<svg xmlns="http://www.w3.org/2000/svg" xmlns:xlink="http://www.w3.org/1999/xlink" width="684.398" height="542.334"
     viewBox="0 0 684.398 542.334">
    <defs>
        <style>
            .a{fill:#4c70e0;opacity:0.5;}.b{fill:#3f2a28;}.c{fill:#fff;}.d{fill:#d8c4c3;}.e{fill:#eddcda;}.f{fill:#f4ebea;}.g{fill:#a9beff;}.h{fill:#92b1ff;}.i{fill:#778dfd;}.j{fill:#352221;}.k{fill:#593d3d;}.l{fill:#ff61ad;}.m{fill:#fed517;}.n{fill:#ffb600;}.o{fill:#efa500;}.p{fill:#9fb6ff;}.q{fill:#8da3ff;}.r{fill:#d3bcba;}.s{fill:#f445a1;}.t{fill:#ff76be;}.u{fill:#bbcdff;}.v{fill:#493130;}.w{fill:#472f2e;}.x{fill:#c6afaf;}.y{fill:#9e8282;}.z{fill:#b29a9a;}.aa{fill:#ff85c5;}.ab{fill:#ffce00;}.ac{fill:#fde01a;}.ad{fill:url(#a);}.ae{fill:#ffc9b6;}.af{fill:#ffb9a4;}.ag{fill:#71abff;}.ah{fill:#2c1d1b;}.ai{fill:#a6c2ff;}.aj{fill:#ffbbe2;}
        </style>
        <linearGradient id="a" y1="0.5" x2="1" y2="0.5" gradientUnits="objectBoundingBox">
            <stop offset="0" stop-color="#8da3ff"/>
            <stop offset="1" stop-color="#6781ef"/>
        </linearGradient>
    </defs>
    <g transform="translate(-599.225 -170.977)">
        <g transform="translate(659.01 499.508)">
            <path class="a"
                  d="M148.333,159.713,277.715,235.52c4.475,2.586,12.37,2.258,17.536-.727l27.433-15.841c5.171-2.98,5.734-7.537,1.26-10.122L194.561,133.022c-4.475-2.586-12.365-2.258-17.531.727l-27.438,15.841C144.426,152.576,143.858,157.127,148.333,159.713Z"
                  transform="translate(-145.315 -86.641)"/>
            <path class="a"
                  d="M221.741,133.362c-12.677,5.4-16.732,14.9-27.935,30.914s-22.226,25.938-7.916,35.538,42.987-7.03,49.516-24.719c2.888-7.818,5.827-14.817,9.784-18.749,10.644-10.588,28.385-15.1,27.228-22.984-1.306-8.893-12.129-9.452-20.25-8.781S229.421,130.09,221.741,133.362Z"
                  transform="translate(-6.151 -115.063)"/>
            <path class="a"
                  d="M224.671,184.512l135.281,78.433c8.955,5.171,24.74,4.516,35.077-1.454L459.3,224.729c10.337-5.965,11.469-15.078,2.519-20.25L326.538,126.046c-8.955-5.166-24.74-4.516-35.077,1.454L227.19,164.262C216.852,170.232,215.721,179.345,224.671,184.512Z"
                  transform="translate(156.756 -122.56)"/>
            <path class="a" d="M375.883,177.792l-117.906,67.64-69.124-39.909L306.76,137.884Z"
                  transform="translate(34.067 -59.426)"/>
        </g>
        <g transform="translate(1010.343 170.977)">
            <g transform="translate(31.147 294.327)">
                <g transform="translate(123.43 132.615)">
                    <path d="M272.821,165.7c0-8.668-5.269-18.734-11.766-22.482a10.778,10.778,0,0,0-5.141-1.434,14.354,14.354,0,0,0-7.537,2.115c-3.7,2.289-4.2,7.485-4.2,7.485l13.22,27.151a9.993,9.993,0,0,0,8.627-.307,13.543,13.543,0,0,0,5.115-5.315,18.606,18.606,0,0,0,.973-2.258A16,16,0,0,0,272.821,165.7Z"
                          transform="translate(-243.919 -141.781)"/>
                    <path class="b"
                          d="M244.125,152.691c0,8.663,5.269,18.729,11.766,22.482s11.766-.23,11.766-8.893-5.268-18.734-11.766-22.482S244.125,144.028,244.125,152.691Z"
                          transform="translate(-244.125 -139.292)"/>
                    <path class="c"
                          d="M244.977,149.608c0,4.746,2.883,10.261,6.446,12.319s6.441-.128,6.441-4.874-2.883-10.26-6.441-12.314S244.977,144.862,244.977,149.608Z"
                          transform="translate(-240.615 -132.789)"/>
                    <g transform="translate(3.139 1.019)">
                        <path class="d"
                              d="M245.2,141.98h7.67v22.364a3.5,3.5,0,0,1-1.193,2.99l.005.015-2.647,1.382-2.355-2.77.671-.266a9.752,9.752,0,0,1-2.15-5.775Z"
                              transform="translate(-242.843 -141.98)"/>
                        <path class="e"
                              d="M252.408,141.98v23.578c0,2.821-1.72,4.117-3.835,2.9s-3.835-4.506-3.835-7.327V141.98Z"
                              transform="translate(-244.738 -141.98)"/>
                    </g>
                </g>
                <g transform="translate(2.967 62.916)">
                    <path d="M249.32,152.083c0-8.663-5.268-18.729-11.766-22.482a10.837,10.837,0,0,0-5.141-1.434,14.356,14.356,0,0,0-7.537,2.115c-3.7,2.289-4.2,7.485-4.2,7.485l13.22,27.151a10,10,0,0,0,8.632-.307,13.56,13.56,0,0,0,5.11-5.315,18.637,18.637,0,0,0,.973-2.258A15.974,15.974,0,0,0,249.32,152.083Z"
                          transform="translate(-220.28 -128.168)"/>
                    <path class="b"
                          d="M220.6,139.078c0,8.663,5.268,18.729,11.766,22.482s11.766-.23,11.766-8.893-5.263-18.729-11.766-22.482S220.6,130.415,220.6,139.078Z"
                          transform="translate(-220.597 -125.679)"/>
                    <path class="c"
                          d="M221.476,136c0,4.746,2.883,10.26,6.446,12.314s6.441-.128,6.441-4.874-2.883-10.26-6.441-12.314S221.476,131.251,221.476,136Z"
                          transform="translate(-216.975 -119.173)"/>
                    <g transform="translate(3.277 1.019)">
                        <path class="d"
                              d="M221.7,128.367h7.665v22.369a3.494,3.494,0,0,1-1.193,2.985l.005.015-2.647,1.382-2.355-2.77.671-.266a9.734,9.734,0,0,1-2.145-5.775Z"
                              transform="translate(-219.338 -128.367)"/>
                        <path class="e"
                              d="M228.907,128.367v23.578c0,2.821-1.72,4.122-3.835,2.9s-3.835-4.5-3.835-7.327V128.367Z"
                              transform="translate(-221.237 -128.367)"/>
                    </g>
                </g>
                <g transform="translate(200.087 88.214)">
                    <path d="M287.82,157.02c0-8.663-5.269-18.729-11.766-22.477a10.738,10.738,0,0,0-5.141-1.434,14.4,14.4,0,0,0-7.542,2.109c-3.7,2.289-4.2,7.491-4.2,7.491l13.215,27.151a10.006,10.006,0,0,0,8.632-.307,13.523,13.523,0,0,0,5.11-5.315,18.255,18.255,0,0,0,.978-2.258A16.162,16.162,0,0,0,287.82,157.02Z"
                          transform="translate(-258.78 -133.109)"/>
                    <path class="b"
                          d="M259.1,144.019c0,8.663,5.269,18.729,11.766,22.482s11.766-.23,11.766-8.893-5.269-18.734-11.766-22.482S259.1,135.356,259.1,144.019Z"
                          transform="translate(-259.097 -130.62)"/>
                    <path class="c"
                          d="M259.975,140.936c0,4.746,2.888,10.26,6.446,12.319s6.446-.128,6.446-4.874-2.888-10.261-6.446-12.314S259.975,136.19,259.975,140.936Z"
                          transform="translate(-255.48 -124.117)"/>
                    <g transform="translate(3.277 1.019)">
                        <path class="d"
                              d="M260.2,133.308h7.665v22.364a3.5,3.5,0,0,1-1.188,2.99l.005.015-2.647,1.382-2.36-2.775.671-.261a9.747,9.747,0,0,1-2.145-5.775Z"
                              transform="translate(-257.842 -133.308)"/>
                        <path class="e"
                              d="M267.4,133.308v23.578c0,2.821-1.715,4.117-3.835,2.9s-3.83-4.506-3.83-7.327V133.308Z"
                              transform="translate(-259.737 -133.308)"/>
                    </g>
                </g>
                <path class="e"
                      d="M241.035,147.123,282.687,123.3c8.9-5.141,22.487-5.7,30.193-1.254l125.542,72.484-.061-.42h19.1v16.835l-.056.005c-.384,3.169-2.847,6.426-7.311,9L394.769,251.6c-8.9,5.135-22.487,5.7-30.193,1.249L225.194,172.375c-3.707-2.14-5.35-5.064-5.13-8.095l-.041-.005V148.4Z"
                      transform="translate(-219.995 -102.844)"/>
                <path class="f"
                      d="M225.217,169.206,364.6,249.682c7.706,4.449,21.294,3.886,30.193-1.254l55.327-31.642c8.9-5.14,9.871-12.984,2.166-17.434L312.9,118.881c-7.706-4.449-21.294-3.886-30.193,1.249l-55.327,31.647C218.484,156.913,217.511,164.757,225.217,169.206Z"
                      transform="translate(-220.017 -115.88)"/>
            </g>
            <g transform="translate(1.289 71.895)">
                <g transform="translate(1.951)">
                    <path class="g" d="M214.567,118.521l78.679-45.691a2.729,2.729,0,0,1,2.985.1l.01.01L215.084,119.8Z"
                          transform="translate(-214.567 -72.436)"/>
                    <path class="g"
                          d="M298.78,76.313,216.3,123.939l-1.418-3.538,82.2-47.457A11.219,11.219,0,0,1,298.78,76.313Z"
                          transform="translate(-213.282 -70.343)"/>
                    <path class="g"
                          d="M295.8,77.238l-79.636,46.177-.8-1.987,81.792-47.222A3.687,3.687,0,0,1,295.8,77.238Z"
                          transform="translate(-211.271 -65.139)"/>
                    <path class="h"
                          d="M298.095,76.326c0,.148-.061.236-.067.374l-81.792,47.222-1.08-2.693L297.639,73.6A9.667,9.667,0,0,1,298.095,76.326Z"
                          transform="translate(-212.14 -67.632)"/>
                    <path class="h" d="M295.825,72.535a7.488,7.488,0,0,1,2.125,2.094l-82.2,47.457-1.08-2.693Z"
                          transform="translate(-214.151 -72.028)"/>
                </g>
                <path class="i"
                      d="M222.767,90.13c0,3.154-1.92,4.608-4.291,3.241s-4.291-5.038-4.291-8.2,1.92-4.608,4.291-3.241S222.767,86.971,222.767,90.13Z"
                      transform="translate(-214.186 -35.428)"/>
            </g>
            <g transform="translate(20.883 115.853)">
                <path class="j" d="M240.837,93.456,219.727,81.2a1.221,1.221,0,0,0-1.336.046l-.005.005,22.451,12.959Z"
                      transform="translate(-216.476 -81.021)"/>
                <path class="j" d="M242.213,94.756l-23.4-13.507a5.024,5.024,0,0,0-.763,1.505L242.213,96.7Z"
                      transform="translate(-217.852 -80.084)"/>
                <path class="j" d="M242.353,95.863,218.018,81.814a1.668,1.668,0,0,0,.609,1.357l23.726,13.757Z"
                      transform="translate(-217.992 -77.756)"/>
                <path class="j"
                      d="M242.374,95.49,218.213,81.543a4.269,4.269,0,0,0-.2,1.219c0,.067.026.108.026.169L242.374,96.98Z"
                      transform="translate(-218.013 -78.873)"/>
                <path class="j" d="M241.6,94.025,219.148,81.066A3.289,3.289,0,0,0,218.2,82L241.6,95.51Z"
                      transform="translate(-217.238 -80.838)"/>
            </g>
            <g transform="translate(72.575 84.503)">
                <path class="j"
                      d="M250.929,87.333c-9.795-5.688-21.1-12.252-21.1-12.257a1.221,1.221,0,0,0-1.336.046l-.005.005,22.446,12.959Z"
                      transform="translate(-226.568 -74.898)"/>
                <path class="j" d="M252.305,88.633l-23.4-13.507a5.041,5.041,0,0,0-.758,1.51l24.156,13.947Z"
                      transform="translate(-227.944 -73.961)"/>
                <path class="j" d="M252.445,89.74l-24.33-14.049a1.658,1.658,0,0,0,.6,1.357l23.726,13.757Z"
                      transform="translate(-228.084 -71.633)"/>
                <path class="j"
                      d="M252.47,89.368,228.314,75.421a4.246,4.246,0,0,0-.2,1.213,1.619,1.619,0,0,0,.031.169l24.33,14.049Z"
                      transform="translate(-228.109 -72.746)"/>
                <path class="j" d="M251.7,87.9,229.249,74.943a3.368,3.368,0,0,0-.952.937l23.4,13.507Z"
                      transform="translate(-227.334 -74.715)"/>
            </g>
            <rect class="k" width="5.117" height="63.349" transform="translate(184.739 213.783) rotate(16.061)"/>
            <g transform="translate(168.201 110.525)">
                <path class="l"
                      d="M280.245,105.041c-.338-2.775-4.1-2.637-6.246.292.983-2.918,2.084-7.4-1.567-8.049-1.925-.343-3.814.783-5.3,2.278a2.3,2.3,0,0,0-1.869-1.894c-1.208-.133-1.971.778-2.442,1.935-.763-2.13-2.007-4.147-3.763-4.649-2.422-.7-3.584,1-4,2.975a5.975,5.975,0,0,0-2.857-1.142c-1.782.005-3.471.3-4.5,1.894-1.848,2.852,1.449,5.919,3.512,8.069a5.448,5.448,0,0,0-.676,5.514,3.55,3.55,0,0,0-3.748,3.492c.031,2.939,2.509,4.895,5.12,5.77-1.828.947-3.507,2.232-1.961,4.239,1.49,1.94,4.383,1.659,6.769.824-.573,2.35-.312,4.874,2.662,5.187,2.232.236,4.5-1.935,5.9-4.239a5.012,5.012,0,0,0,5.325,2.621,3.661,3.661,0,0,0,2.7-2.627c3.108,1.562,6.825,2.488,9.18-.512a4.72,4.72,0,0,0,.2-5.033,3.494,3.494,0,0,0,2.826-2.319,3.668,3.668,0,0,0-.486-3.21,6.751,6.751,0,0,0,3.185-5.407,6.824,6.824,0,0,0-.9-3.492A7.248,7.248,0,0,0,280.245,105.041Z"
                      transform="translate(-246.786 -18.943)"/>
                <g transform="translate(4.834)">
                    <path class="i"
                          d="M302.068,94.471a4.287,4.287,0,0,0-3.8-.707,3.97,3.97,0,0,0-.886-4.613c-1.1-1.07-2.749-1.229-4.588.159.84-3-2.437-6.81-5.929-3.953-1.418-2.58-6.067-3.179-7.347-1.137-2.079-7.5-8.315-3.507-8.172.195-2.089-.456-5.35.01-6.62,2.089a4.734,4.734,0,0,0-.256,4.475,4.761,4.761,0,0,0-2.468.886,3.843,3.843,0,0,0-1.162,4.9,4.647,4.647,0,0,0-3.6,2.57,5.192,5.192,0,0,0,1.085,5.489,3.826,3.826,0,0,0-1.659,1.49,4.65,4.65,0,0,0-.1,4.475,5.123,5.123,0,0,0-3.384,1.157c-2.238,2-1.505,4.869-.287,7.235a4.672,4.672,0,0,0-3.548,2.811,6.048,6.048,0,0,0,1.065,6.067,11.932,11.932,0,0,1,3.768,3.579,3.867,3.867,0,0,1,3.671-1.782,5.058,5.058,0,0,1,4.014,2.959,2.247,2.247,0,0,1,2.406-.932,3.017,3.017,0,0,1,2.166,1.853,5.178,5.178,0,0,1,6.467.2,3.962,3.962,0,0,1,1.388,3.589c1.254-1.92,5.8-2.452,6.774,1.382,4.352-1.971,6.8-.174,9.032,3.686a3.674,3.674,0,0,0,.507-.1,5.554,5.554,0,0,0,2.9-2.652,5.252,5.252,0,0,0,.056-4.849,5.181,5.181,0,0,0,2.8-2.729,5.236,5.236,0,0,0,.107-3.645c1.91.077,3.466-.635,3.3-3.318a9.514,9.514,0,0,0-1.592-4.465c3-.036,5.7-.963,5.535-4.229a6.194,6.194,0,0,0-3.041-4.639,8.486,8.486,0,0,0,4.168-6.021,3.956,3.956,0,0,0-2.033-4.116,5.842,5.842,0,0,0,.942-2.1A5.21,5.21,0,0,0,302.068,94.471Z"
                          transform="translate(-242.82 -79.981)"/>
                    <path class="m"
                          d="M285.971,100.22c-.978-3.835-5.519-3.3-6.774-1.382a3.962,3.962,0,0,0-1.388-3.589,5.178,5.178,0,0,0-6.467-.2,3.017,3.017,0,0,0-2.166-1.853,2.247,2.247,0,0,0-2.406.932,5.058,5.058,0,0,0-4.014-2.959,3.867,3.867,0,0,0-3.671,1.782,11.932,11.932,0,0,0-3.768-3.579c.046.061.077.133.128.195a4.637,4.637,0,0,0-3.512,2.524,5,5,0,0,0,1.183,5.683,4.235,4.235,0,0,0-1.823,3.845,4.1,4.1,0,0,0,1.782,2.9,4.317,4.317,0,0,0-4.137,2.079c-1.208,2.145.307,4.715,1.8,6.856-1.29-.067-2.483.184-2.862,1.556a5.431,5.431,0,0,0,.742,4.116c-.1,0-.2.01-.312.01a5.975,5.975,0,0,1,2.857,1.142c.42-1.971,1.582-3.671,4-2.975,1.756.5,3,2.519,3.763,4.649.471-1.157,1.234-2.068,2.442-1.935a2.3,2.3,0,0,1,1.869,1.894c1.485-1.5,3.374-2.621,5.3-2.278,3.651.65,2.55,5.13,1.567,8.049,2.145-2.929,5.909-3.067,6.246-.292a7.248,7.248,0,0,1,7.06,2.519,4.4,4.4,0,0,0,1.828-.753,4.919,4.919,0,0,0,1.746-5.883c3.707-1.024,5.678-5.023,3.528-8.356a8.856,8.856,0,0,0,5.3-6.282,6.168,6.168,0,0,0-.819-4.731C292.77,100.046,290.323,98.249,285.971,100.22Z"
                          transform="translate(-247.73 -41.294)"/>
                </g>
            </g>
            <g transform="translate(63.136 235.68)">
                <g transform="translate(0.95 9.248)">
                    <path class="b"
                          d="M226.743,155.549a14.942,14.942,0,0,0,3.313,2.309,99.738,99.738,0,0,1,12.616-36.726l7.782-13.486a4.25,4.25,0,0,0-3.732-1.388l-7.455,12.908a104.1,104.1,0,0,0-12.815,36.009C226.553,155.293,226.63,155.437,226.743,155.549Z"
                          transform="translate(-226.451 -106.232)"/>
                    <g transform="translate(3.267 0.719)">
                        <g transform="translate(0 24.146)">
                            <path class="n"
                                  d="M227.089,111.088l3.579,55.47,1.311,20.28c7.48,7.875,22.789,13.286,40.5,13.286,17.73,0,33.044-5.422,40.52-13.3l1.306-20.255,3.574-55.48Z"
                                  transform="translate(-227.089 -111.088)"/>
                        </g>
                        <path class="m"
                              d="M272.488,106.372c-25.073,0-45.4,10.808-45.4,24.146s20.326,24.151,45.4,24.151,45.394-10.813,45.394-24.151S297.556,106.372,272.488,106.372Z"
                              transform="translate(-227.089 -106.372)"/>
                        <g transform="translate(2.442 2.237)">
                            <path class="o"
                                  d="M270.523,123.592c17.895,0,33.219,5.581,39.675,13.517a13.259,13.259,0,0,0,3.282-8.392c0-12.1-19.236-21.908-42.957-21.908s-42.957,9.81-42.957,21.908a13.281,13.281,0,0,0,3.277,8.392C237.3,129.173,252.628,123.592,270.523,123.592Z"
                                  transform="translate(-227.566 -106.809)"/>
                            <path class="o"
                                  d="M267.886,137.121c17.895,0,33.219-5.581,39.675-13.517-6.456-7.936-21.78-13.517-39.675-13.517s-33.219,5.581-39.68,13.517C234.667,131.54,249.992,137.121,267.886,137.121Z"
                                  transform="translate(-224.929 -93.304)"/>
                        </g>
                    </g>
                    <path class="n"
                          d="M268.615,121.462c-22.41,0-40.581,9.661-40.581,21.586s18.171,21.581,40.581,21.581,40.576-9.661,40.576-21.581S291.025,121.462,268.615,121.462Z"
                          transform="translate(-219.929 -43.482)"/>
                </g>
                <circle class="b" cx="4.21" cy="4.21" r="4.21" transform="translate(70.823 37.863)"/>
                <g transform="translate(73.812 34.015)">
                    <path class="m"
                          d="M251.541,112.78l-1.485-1.055c-.1-.082-.2-.148-.3-.22l-.169-.118-.026.021a3.442,3.442,0,0,0-3.446.287c-2.99,1.725-5.432,6.39-5.432,10.373v7.864l1.859,1.075c1.224-1.085,9-4.147,9-8.131V115.8a7.451,7.451,0,0,0-.287-2.043Zm-5.355,10.982a2.94,2.94,0,0,1-1.28.394,4.761,4.761,0,0,1-.236-1.429c0-2.688,1.633-5.806,3.646-6.968a2.9,2.9,0,0,1,1.285-.4,4.761,4.761,0,0,1,.236,1.428C249.837,119.477,248.2,122.595,246.186,123.762Z"
                          transform="translate(-240.682 -111.069)"/>
                    <path class="n"
                          d="M246.472,111.971c-2.985,1.725-5.427,6.395-5.427,10.373v7.6l10.854-4.521v-9.349C251.9,112.093,249.457,110.25,246.472,111.971ZM244.69,122.7a2.94,2.94,0,0,1-1.28.394,4.761,4.761,0,0,1-.236-1.429c0-2.688,1.633-5.806,3.646-6.968a2.9,2.9,0,0,1,1.285-.4,4.761,4.761,0,0,1,.236,1.428C248.341,118.417,246.708,121.535,244.69,122.7Z"
                          transform="translate(-239.186 -110.009)"/>
                    <path class="m"
                          d="M246.2,111.911a4.761,4.761,0,0,1,.236,1.428c0,2.688-1.633,5.806-3.651,6.973a2.94,2.94,0,0,1-1.28.394,2.13,2.13,0,0,0,3.41,1.331c2.017-1.167,3.651-4.285,3.651-6.973C248.567,112.987,247.579,111.814,246.2,111.911Z"
                          transform="translate(-237.283 -107.62)"/>
                </g>
                <g transform="translate(15.05)">
                    <path class="m"
                          d="M240.065,106.139l-1.485-1.06a2.981,2.981,0,0,0-.3-.215l-.169-.123-.026.02a3.454,3.454,0,0,0-3.446.287c-2.99,1.725-5.432,6.39-5.432,10.373v7.869l1.859,1.07c1.224-1.085,9-4.147,9-8.125v-7.081a7.393,7.393,0,0,0-.287-2.043Zm-5.356,10.977a2.941,2.941,0,0,1-1.28.394,4.71,4.71,0,0,1-.235-1.428c0-2.683,1.633-5.806,3.645-6.968a2.893,2.893,0,0,1,1.285-.394,4.706,4.706,0,0,1,.235,1.428C238.359,112.831,236.726,115.954,234.709,117.116Z"
                          transform="translate(-229.205 -104.425)"/>
                    <path class="n"
                          d="M235,105.329c-2.985,1.72-5.427,6.39-5.427,10.368v7.6l10.854-4.685v-9.185C240.422,105.452,237.98,103.6,235,105.329Zm-1.782,10.726a2.941,2.941,0,0,1-1.28.394,4.71,4.71,0,0,1-.235-1.428c0-2.683,1.633-5.806,3.645-6.968a2.893,2.893,0,0,1,1.285-.394,4.706,4.706,0,0,1,.235,1.428C236.864,111.77,235.231,114.894,233.213,116.056Z"
                          transform="translate(-227.709 -103.365)"/>
                    <path class="m"
                          d="M234.725,105.269a4.706,4.706,0,0,1,.235,1.428c0,2.683-1.633,5.806-3.651,6.968a2.941,2.941,0,0,1-1.28.394,2.13,2.13,0,0,0,3.41,1.331c2.017-1.162,3.651-4.285,3.651-6.968C237.091,106.339,236.1,105.167,234.725,105.269Z"
                          transform="translate(-225.806 -100.975)"/>
                </g>
                <path class="b"
                      d="M291.573,138.151c-10.337,17.9-24.709,30.362-37.5,32.517-5.914,1-10.972-.276-15.037-3.8-8.458-7.327-10.721-23.209-7.219-40.8-.317-4.925-.491-7.644-.87-12.267-7.644,23.306-6,46.06,5.519,56.033a20.746,20.746,0,0,0,13.9,5.079,26.192,26.192,0,0,0,4.362-.374c13.926-2.345,29.348-15.534,40.259-34.432L307.8,117.9c1.162-2.478.553-4.065-2.4-5.437a9.6,9.6,0,0,0-1.316,4.014Z"
                      transform="translate(-226.266 -71.326)"/>
                <circle class="b" cx="4.21" cy="4.21" r="4.21" transform="translate(19.614 7.997)"/>
            </g>
            <path class="j" d="M251.653,68.3h-5.8l1.534,253.01h5.795Z" transform="translate(-82.411 -17.561)"/>
            <g transform="translate(101.283 130.028)">
                <path class="j" d="M233.716,83.79v242.3c0,.85,1.3,1.541,2.9,1.541s2.9-.691,2.9-1.541V83.79Z"
                      transform="translate(-233.716 -83.79)"/>
            </g>
            <g transform="translate(135.269 130.028)">
                <path class="j" d="M240.354,83.79v242.3c0,.85,1.3,1.541,2.9,1.541s2.9-.691,2.9-1.541V83.79Z"
                      transform="translate(-240.354 -83.79)"/>
            </g>
            <g transform="translate(31.123 202.751)">
                <path class="i"
                      d="M220.049,141.4s-.082,8.346,0,8.965,4.562,3.062,4.562,3.062-2.509-5.914,2.171-9.139,49.449-29.614,56.294-32.957,17.71-7.014,28.237-2,65.981,38.252,65.981,38.252l2.34-6.845s-64.481-38.088-71.163-40.76-15.037-1.188-21.55,1.659S220.049,141.4,220.049,141.4Z"
                      transform="translate(-220.013 -95.593)"/>
                <path class="i"
                      d="M312.9,102.69c-7.706-4.449-21.294-3.886-30.193,1.254l-55.327,31.642c-8.9,5.141-9.871,12.984-2.166,17.434L306.466,199.8l85.678-51.4ZM233.68,148.908c-6.441-3.717-5.427-6.83,2.007-11.126l49.434-28.493c7.434-4.3,18.785-4.767,25.226-1.05l67.707,39.316L306.466,190.5Z"
                      transform="translate(-219.994 -91.01)"/>
                <g transform="translate(0.024)">
                    <path class="p"
                          d="M312.9,101c-7.706-4.449-21.294-3.886-30.193,1.249l-55.327,31.647c-8.9,5.135-9.871,12.979-2.166,17.429L306.466,198.1l85.678-51.4ZM233.68,147.209c-6.441-3.717-5.427-6.83,2.007-11.121l49.434-28.5c7.434-4.291,18.785-4.762,25.226-1.044l67.707,39.311-71.588,42.952Z"
                          transform="translate(-220.017 -97.994)"/>
                </g>
            </g>
            <g transform="translate(110.64 186.307)">
                <path class="i" d="M242.5,302.064l-6.954-4.015V94.813l6.954,4.015Z"
                      transform="translate(-235.544 -94.656)"/>
                <path class="q" d="M236.9,302.19l6.953-4.015V94.782L236.9,98.954Z"
                      transform="translate(-229.948 -94.782)"/>
            </g>
            <g transform="translate(189.367 139.075)">
                <path class="i" d="M257.874,294.091l-6.954-4.015V85.557l6.954,4.015Z"
                      transform="translate(-250.92 -85.557)"/>
                <path class="q" d="M252.278,294.091l6.953-4.015V85.557l-6.953,4.015Z"
                      transform="translate(-245.324 -85.557)"/>
            </g>
            <g transform="translate(140.441 275.323)">
                <g transform="translate(0 10.305)">
                    <path class="b"
                          d="M283.028,169.124a16.714,16.714,0,0,1-3.692,2.58,111.352,111.352,0,0,0-14.054-40.924l-8.673-15.022a4.728,4.728,0,0,1,4.157-1.546l8.3,14.382a116.039,116.039,0,0,1,14.285,40.115C283.233,168.843,283.151,169,283.028,169.124Z"
                          transform="translate(-178.555 -114.181)"/>
                    <g transform="translate(0 0.8)">
                        <g transform="translate(0 26.906)">
                            <path class="r"
                                  d="M265.51,142.154c0,4.357-1.992,8.458-5.453,12.1l1.459-22.589A16.747,16.747,0,0,1,265.51,142.154Z"
                                  transform="translate(-164.349 -69.859)"/>
                            <path class="r"
                                  d="M245.347,131.665l1.454,22.564c-3.451-3.64-5.437-7.736-5.437-12.083A16.737,16.737,0,0,1,245.347,131.665Z"
                                  transform="translate(-241.364 -69.851)"/>
                            <path class="s"
                                  d="M342.525,119.592l-3.994,61.8-1.459,22.589c-8.33,8.776-25.385,14.8-45.128,14.8S255.127,212.75,246.8,203.97l-1.454-22.564-3.983-61.814Z"
                                  transform="translate(-241.364 -119.592)"/>
                        </g>
                        <path class="t"
                              d="M291.944,114.337c27.935,0,50.581,12.047,50.581,26.906s-22.646,26.906-50.581,26.906-50.58-12.047-50.58-26.906S264.01,114.337,291.944,114.337Z"
                              transform="translate(-241.364 -114.337)"/>
                        <g transform="translate(2.719 2.493)">
                            <path class="l"
                                  d="M289.752,133.522c-19.932,0-37.012,6.221-44.206,15.063a14.768,14.768,0,0,1-3.651-9.349c0-13.481,21.427-24.412,47.857-24.412s47.857,10.931,47.857,24.412a14.768,14.768,0,0,1-3.65,9.349C326.764,139.743,309.689,133.522,289.752,133.522Z"
                                  transform="translate(-241.895 -114.824)"/>
                            <path class="u"
                                  d="M286.814,148.6c-19.932,0-37.012-6.226-44.206-15.063,7.194-8.842,24.274-15.063,44.206-15.063s37.013,6.221,44.206,15.063C323.827,142.376,306.751,148.6,286.814,148.6Z"
                                  transform="translate(-238.957 -99.778)"/>
                        </g>
                        <g transform="translate(6.369 6.28)">
                            <path class="c"
                                  d="M246.934,118.46a1.815,1.815,0,1,0,1.818-1.818A1.814,1.814,0,0,0,246.934,118.46Z"
                                  transform="translate(-224.785 -111.12)"/>
                            <path class="c"
                                  d="M248.175,123.743a1.815,1.815,0,1,0,1.818-1.812A1.818,1.818,0,0,0,248.175,123.743Z"
                                  transform="translate(-219.672 -89.329)"/>
                            <path class="c"
                                  d="M253.677,127.436c.594-1.091,2.222-3.123,3.748-3.369a6.019,6.019,0,0,1,3.246-6.62c3.052-1.505,8.371.343,8.95,3.625a3.647,3.647,0,0,1,4.04-.532,3.743,3.743,0,0,1,2.027,4.639c2.673-.676,5.863.348,7.03,2.949.783,1.741.067,4.7-1.587,5.729a4.18,4.18,0,0,1-1.577,5.765,5.641,5.641,0,0,1-5.893-.118,6.232,6.232,0,0,1-9.856-1.459c-3.174.855-6.784-.763-9.088-2.877C252.167,132.838,252.08,130.38,253.677,127.436Z"
                                  transform="translate(-201.387 -109.99)"/>
                            <path class="c"
                                  d="M246.187,125.529a6.879,6.879,0,0,1,3.354-.5,5.26,5.26,0,0,1,3.487-5.13,4.6,4.6,0,0,1,4.116.374,4.4,4.4,0,0,1,3.866-2.55c1.5-.031,2.294,1.265,2.5,2.667a9.331,9.331,0,0,1,6.308-1.935,5.657,5.657,0,0,1,4.449,3.359c1.848-1.577,5.443-1.408,6.825.609,2,2.918-1.551,4.588-4.244,5.565a3.93,3.93,0,0,1,1.132,1.792c.594,2.15-1,3.9-2.9,4.613a7.9,7.9,0,0,1-6.574-.558c-.236,2.442-1.777,4.029-5.084,3.948a7.185,7.185,0,0,1-3.743-1.367,6.751,6.751,0,0,1-6.6,4.675c-1.618-.005-4-.64-5.048-1.976a6.713,6.713,0,0,1-1.152-3.169,5.618,5.618,0,0,1-1.843-.686,5.278,5.278,0,0,1-2.386-5.064A6.118,6.118,0,0,1,246.187,125.529Z"
                                  transform="translate(-242.608 -106.675)"/>
                            <path class="c"
                                  d="M251.81,119.127a2.647,2.647,0,1,0,2.647-2.647A2.647,2.647,0,0,0,251.81,119.127Z"
                                  transform="translate(-204.696 -111.788)"/>
                            <path class="c"
                                  d="M258.4,120.251a2.65,2.65,0,1,0,2.647-2.647A2.647,2.647,0,0,0,258.4,120.251Z"
                                  transform="translate(-177.549 -107.157)"/>
                            <circle class="c" cx="4.69" cy="4.69" r="4.69" transform="translate(36.977 26.93)"/>
                            <path class="c"
                                  d="M252.076,125.091a3.177,3.177,0,1,0,3.174-3.174A3.178,3.178,0,0,0,252.076,125.091Z"
                                  transform="translate(-203.6 -89.387)"/>
                            <circle class="c" cx="2.723" cy="2.723" r="2.723" transform="translate(33.621 3.631)"/>
                            <path class="c"
                                  d="M257.69,118.617a1.815,1.815,0,1,0,1.818-1.812A1.818,1.818,0,0,0,257.69,118.617Z"
                                  transform="translate(-180.47 -110.448)"/>
                            <circle class="c" cx="1.816" cy="1.816" r="1.816" transform="translate(38.036)"/>
                            <path class="c"
                                  d="M255.229,124.113a1.818,1.818,0,1,0,1.818-1.812A1.818,1.818,0,0,0,255.229,124.113Z"
                                  transform="translate(-190.609 -87.805)"/>
                        </g>
                    </g>
                </g>
                <circle class="b" cx="4.69" cy="4.69" r="4.69" transform="translate(17.567 42.186)"/>
                <g transform="translate(9.452 37.898)">
                    <g transform="translate(2.068)">
                        <path class="l"
                              d="M243.614,121.479l1.654-1.183a3.585,3.585,0,0,1,.333-.236l.195-.138.026.021a3.853,3.853,0,0,1,3.84.323c3.328,1.92,6.047,7.122,6.047,11.556v8.765l-2.063,1.193c-1.367-1.2-10.03-4.618-10.03-9.052v-7.89a8.033,8.033,0,0,1,.323-2.273Zm5.965,12.232a3.228,3.228,0,0,0,1.428.44,5.256,5.256,0,0,0,.261-1.592c0-2.99-1.818-6.472-4.065-7.767a3.3,3.3,0,0,0-1.429-.44,5.26,5.26,0,0,0-.261,1.592C245.513,128.939,247.331,132.416,249.579,133.711Z"
                              transform="translate(-243.614 -119.57)"/>
                    </g>
                    <path class="s"
                          d="M249.257,120.577c3.328,1.92,6.052,7.117,6.052,11.556V140.6l-12.1-5.028V125.15C243.21,120.711,245.934,118.657,249.257,120.577Zm1.986,11.95a3.228,3.228,0,0,0,1.428.44,5.256,5.256,0,0,0,.261-1.592c0-2.99-1.818-6.472-4.065-7.767a3.3,3.3,0,0,0-1.429-.44,5.26,5.26,0,0,0-.261,1.592C247.178,127.756,249,131.232,251.243,132.528Z"
                          transform="translate(-243.21 -118.386)"/>
                    <path class="l"
                          d="M246.158,120.509a5.26,5.26,0,0,0-.261,1.592c0,3,1.818,6.472,4.065,7.767a3.228,3.228,0,0,0,1.428.44,2.377,2.377,0,0,1-3.8,1.48c-2.243-1.3-4.065-4.772-4.065-7.762C243.521,121.707,244.627,120.4,246.158,120.509Z"
                          transform="translate(-241.929 -115.727)"/>
                </g>
                <g transform="translate(74.921)">
                    <g transform="translate(2.069)">
                        <path class="s"
                              d="M256.4,114.077l1.654-1.183a3.556,3.556,0,0,1,.333-.235l.195-.138.026.02a3.853,3.853,0,0,1,3.84.323c3.328,1.92,6.047,7.122,6.047,11.556v8.765l-2.063,1.193c-1.367-1.2-10.03-4.618-10.03-9.052v-7.89a8.1,8.1,0,0,1,.323-2.278Zm5.965,12.232a3.3,3.3,0,0,0,1.428.44,5.259,5.259,0,0,0,.261-1.592c0-2.99-1.818-6.467-4.065-7.767a3.275,3.275,0,0,0-1.428-.44,5.42,5.42,0,0,0-.261,1.592C258.3,121.537,260.118,125.014,262.366,126.309Z"
                              transform="translate(-256.401 -112.168)"/>
                    </g>
                    <path class="l"
                          d="M262.044,113.177c3.328,1.92,6.052,7.117,6.052,11.551V133.2L256,127.979v-10.23C256,113.31,258.721,111.252,262.044,113.177Zm1.987,11.95a3.3,3.3,0,0,0,1.428.44,5.259,5.259,0,0,0,.261-1.592c0-2.99-1.818-6.467-4.065-7.767a3.275,3.275,0,0,0-1.428-.44,5.42,5.42,0,0,0-.261,1.592C259.965,120.355,261.783,123.832,264.03,125.127Z"
                          transform="translate(-255.997 -110.986)"/>
                    <path class="s"
                          d="M258.941,113.107a5.42,5.42,0,0,0-.261,1.592c0,3,1.818,6.472,4.065,7.767a3.3,3.3,0,0,0,1.428.44,2.377,2.377,0,0,1-3.8,1.48c-2.243-1.3-4.06-4.772-4.06-7.762C256.309,114.305,257.41,113,258.941,113.107Z"
                          transform="translate(-254.712 -108.325)"/>
                </g>
                <path class="b"
                      d="M262.874,149.745c11.52,19.948,27.53,33.828,41.79,36.229,6.584,1.116,12.221-.312,16.753-4.229,9.421-8.166,11.945-25.866,8.044-45.455.353-5.489.548-8.52.968-13.67,8.52,25.969,6.682,51.318-6.149,62.433A23.128,23.128,0,0,1,308.8,190.71a29.042,29.042,0,0,1-4.864-.42c-15.514-2.611-32.7-17.306-44.851-38.359l-14.3-24.755c-1.3-2.755-.609-4.526,2.673-6.057a10.7,10.7,0,0,1,1.469,4.475Z"
                      transform="translate(-229.783 -75.29)"/>
                <path class="b" d="M255.939,118.6a4.69,4.69,0,1,0,4.69-4.69A4.694,4.694,0,0,0,255.939,118.6Z"
                      transform="translate(-181.315 -105)"/>
            </g>
            <g transform="translate(122.212 253.208)">
                <path class="q" d="M315.943,107.849l-78.139,46.9v9.838l78.557-46.65Z"
                      transform="translate(-237.804 -107.849)"/>
            </g>
            <g transform="translate(31.123 90.377)">
                <path class="i"
                      d="M220.049,119.458s-.082,8.346,0,8.965,4.562,3.062,4.562,3.062-2.509-5.914,2.171-9.139,49.449-29.614,56.294-32.957,17.71-7.014,28.237-2.007,65.981,38.257,65.981,38.257l2.34-6.851S315.153,80.7,308.472,78.027s-15.037-1.183-21.55,1.664S220.049,119.458,220.049,119.458Z"
                      transform="translate(-220.013 -73.648)"/>
                <path class="i"
                      d="M312.9,80.742C305.2,76.293,291.608,76.856,282.709,82l-55.327,31.642c-8.9,5.14-9.871,12.984-2.166,17.434l81.249,46.771,85.678-51.4ZM233.68,126.955c-6.441-3.717-5.427-6.825,2.007-11.121l49.434-28.5c7.434-4.291,18.785-4.762,25.226-1.044L378.054,125.6l-71.588,42.952Z"
                      transform="translate(-219.994 -69.062)"/>
                <g transform="translate(0.024)">
                    <path class="p"
                          d="M312.9,79.047C305.2,74.6,291.608,75.161,282.709,80.3l-55.327,31.647c-8.9,5.135-9.871,12.979-2.166,17.428l81.249,46.776,85.678-51.4ZM233.68,125.261c-6.441-3.717-5.427-6.83,2.007-11.121l49.434-28.5c7.434-4.291,18.785-4.762,25.226-1.044l67.707,39.311-71.588,42.952Z"
                          transform="translate(-220.017 -76.046)"/>
                </g>
            </g>
            <path class="q" d="M236.9,145.641l85.68-51.4v-8.68l-85.68,51.4Z" transform="translate(-119.308 53.518)"/>
            <path class="p" d="M266.671,111.964l-9.989,6.047-7.9-4.559,10.023-6.028Z"
                  transform="translate(-70.35 143.611)"/>
            <rect class="j" width="5.795" height="29.819" transform="translate(101.284 197.997)"/>
            <rect class="j" width="5.795" height="29.819" transform="translate(135.271 202.51)"/>
            <rect class="j" width="5.795" height="54.688" transform="translate(101.284 81.164)"/>
            <g transform="translate(61.04 38.595)">
                <g transform="translate(36.393 46.397)">
                    <path class="v"
                          d="M232.964,75.663v3.753c0,1.981,3.021,3.589,6.748,3.589s6.753-1.608,6.753-3.589V75.663Z"
                          transform="translate(-232.964 -72.238)"/>
                    <path class="w"
                          d="M239.712,74.994c-3.727,0-6.748,1.608-6.748,3.589s3.021,3.589,6.748,3.589,6.753-1.608,6.753-3.589S243.439,74.994,239.712,74.994Z"
                          transform="translate(-232.964 -74.994)"/>
                </g>
                <g transform="translate(0 17.056)">
                    <path class="x" d="M303.582,80.465l-58.323,33.673-19.4-11.2,58.323-33.673Z"
                          transform="translate(-225.856 -69.263)"/>
                    <path class="y" d="M229.646,105.124v7.521l58.323-33.673V71.451Z"
                          transform="translate(-210.243 -60.249)"/>
                    <path class="z" d="M225.856,75.84v7.521l19.4,11.2V87.042Z" transform="translate(-225.856 -42.167)"/>
                </g>
                <g transform="translate(1.689)">
                    <path class="n"
                          d="M301.476,71.069c-1.5,2.171-2.5,6.513-2.5,6.513a17.117,17.117,0,0,0-1.669-2.673,6.817,6.817,0,0,0-2.923-1.833,21.186,21.186,0,0,1,.358,4.2,8.98,8.98,0,0,1-2.616,4.982,26.113,26.113,0,0,0-1.5-2.842,12.307,12.307,0,0,0-3.174-2.79s-1.336,2.959-1.838,4.3-2.171,4.844-2.171,4.844-1.674-1.838-2.673-3.005-3.676-1.838-3.676-1.838a11.191,11.191,0,0,1-.7,3.226,41.879,41.879,0,0,1-2.345,5.069s-1.464-2.115-1.966-2.647l-2.284-2.422a10.914,10.914,0,0,0-2.058,3.681,21.371,21.371,0,0,1-1.48,3.784,32.162,32.162,0,0,0-2.893-2.442,5.761,5.761,0,0,0-3.794-1.014,10.7,10.7,0,0,1,.9,3.625,13.008,13.008,0,0,1-.917,4.844s-2.34-1-2.673-2.5-.584-4.178-.584-4.178a26.542,26.542,0,0,0-3.758,4.68,50.648,50.648,0,0,0-2.509,5.842,16.376,16.376,0,0,1-1.167-3.169,16.425,16.425,0,0,0-1.838-3.845A30.2,30.2,0,0,0,243.9,97.3c-1.618,2.335-2.9,4.342-2.9,4.342a26.276,26.276,0,0,1-1-5.012,30.258,30.258,0,0,1,0-4.234,12.146,12.146,0,0,0-3.005,1.562,22.613,22.613,0,0,0-2.8,2.673,13.809,13.809,0,0,0-2.324-4.086c-1.608-1.91-5.688-4.383-5.688-4.383a23.018,23.018,0,0,1,.952,9.139c-.369,5.791.451,12.1,1.418,13a74.855,74.855,0,0,0,8.771,5.5c2.6,1.387,5.6,3.574,7.936,2.739,2.6-.927,8.438-5.207,17.541-10.112,5.309-2.857,11.469-6.912,15.954-9.359,7.613-4.157,14.556-7.378,19.082-10.435,3.052-2.063,3-3.2,3.384-5.207,1-5.094,3.763-15.954,3.763-15.954A16.329,16.329,0,0,0,301.476,71.069Z"
                          transform="translate(-226.186 -59.575)"/>
                    <path class="m"
                          d="M296.422,68.784s-3.379,1.377-4.3,3.466c-.834-4.931-3.865-6.318-3.865-6.318s-3.733,2.14-5.033,5.13c-1.29-1.987-7.306-3.574-7.306-3.574a37.654,37.654,0,0,0-3.338,7.68c-1.838-1.833-6.692-2.355-6.692-2.355s-2.079,3.779-2.079,6.62c-1.587-1.341-4.5-1.516-7.516-.753-2.258,2.586-3.174,8.771-3.174,8.771a30.778,30.778,0,0,0-7.286-1.987c-1.623,2.55-3.154,7.972-3.154,7.972s-3.174-4.818-6.518-4.649c-.169,3.425-1.321,4.48-1.961,8.1l-8.013-2.371s4.081,2.473,5.688,4.383a13.809,13.809,0,0,1,2.324,4.086,22.613,22.613,0,0,1,2.8-2.673A12.146,12.146,0,0,1,240,98.751a30.258,30.258,0,0,0,0,4.234A26.276,26.276,0,0,0,241,108s1.28-2.007,2.9-4.342a30.2,30.2,0,0,1,3.118-3.845,16.425,16.425,0,0,1,1.838,3.845,16.376,16.376,0,0,0,1.167,3.169,50.648,50.648,0,0,1,2.509-5.842,26.542,26.542,0,0,1,3.758-4.68s.251,2.673.584,4.178,2.673,2.5,2.673,2.5a13.008,13.008,0,0,0,.917-4.844,10.7,10.7,0,0,0-.9-3.625,5.761,5.761,0,0,1,3.794,1.014,32.162,32.162,0,0,1,2.893,2.442,21.371,21.371,0,0,0,1.48-3.784,10.914,10.914,0,0,1,2.058-3.681l2.284,2.422c.5.532,1.966,2.647,1.966,2.647a41.879,41.879,0,0,0,2.345-5.069,11.191,11.191,0,0,0,.7-3.226s2.673.671,3.676,1.838,2.673,3.005,2.673,3.005,1.669-3.507,2.171-4.844,1.838-4.3,1.838-4.3a12.307,12.307,0,0,1,3.174,2.79,26.113,26.113,0,0,1,1.5,2.842,8.98,8.98,0,0,0,2.616-4.982,21.186,21.186,0,0,0-.358-4.2,6.817,6.817,0,0,1,2.923,1.833,17.117,17.117,0,0,1,1.669,2.673s1-4.342,2.5-6.513a16.329,16.329,0,0,1,3.512-3.594s-3.512.338-4.761,1.925C299.806,73.5,296.422,68.784,296.422,68.784Z"
                          transform="translate(-226.186 -65.932)"/>
                </g>
            </g>
            <g transform="translate(130.533)">
                <g transform="translate(30.597 46.403)">
                    <path class="v"
                          d="M258.9,68.125v3.758c0,1.981-3.021,3.589-6.748,3.589s-6.748-1.608-6.748-3.589V68.125Z"
                          transform="translate(-245.405 -64.705)"/>
                    <path class="w"
                          d="M252.153,67.457c3.727,0,6.748,1.6,6.748,3.589s-3.021,3.589-6.748,3.589-6.748-1.608-6.748-3.589S248.426,67.457,252.153,67.457Z"
                          transform="translate(-245.405 -67.457)"/>
                </g>
                <g transform="translate(2.761 17.061)">
                    <path class="x" d="M239.968,72.928,298.291,106.6l19.4-11.2L259.371,61.726Z"
                          transform="translate(-239.968 -61.726)"/>
                    <path class="y" d="M298.291,97.587v7.521L239.968,71.435V63.914Z"
                          transform="translate(-239.968 -52.712)"/>
                    <path class="z" d="M270.762,68.3v7.521l-19.4,11.2V79.5Z" transform="translate(-193.036 -34.63)"/>
                </g>
                <path class="s"
                      d="M242.936,63.532c1.5,2.171,2.5,6.513,2.5,6.513a17.117,17.117,0,0,1,1.669-2.673,6.855,6.855,0,0,1,2.924-1.838,21.666,21.666,0,0,0-.358,4.209,8.981,8.981,0,0,0,2.616,4.982,25.627,25.627,0,0,1,1.505-2.842,12.316,12.316,0,0,1,3.169-2.79s1.336,2.959,1.838,4.3,2.176,4.844,2.176,4.844,1.669-1.838,2.673-3.005,3.671-1.838,3.671-1.838a11.191,11.191,0,0,0,.7,3.226,41.876,41.876,0,0,0,2.345,5.069s1.464-2.115,1.966-2.647l2.283-2.422a10.885,10.885,0,0,1,2.063,3.681,21.125,21.125,0,0,0,1.474,3.784,32.753,32.753,0,0,1,2.9-2.442,5.781,5.781,0,0,1,3.794-1.019,10.608,10.608,0,0,0-.9,3.63,12.937,12.937,0,0,0,.911,4.844s2.34-1,2.673-2.509.589-4.173.589-4.173a26.883,26.883,0,0,1,3.758,4.675,51.563,51.563,0,0,1,2.5,5.847,16.344,16.344,0,0,0,1.167-3.174,16.463,16.463,0,0,1,1.838-3.84,30.34,30.34,0,0,1,3.118,3.84c1.618,2.34,2.9,4.347,2.9,4.347a26.271,26.271,0,0,0,1-5.012,30.258,30.258,0,0,0,0-4.234,12.145,12.145,0,0,1,3.005,1.562,22.609,22.609,0,0,1,2.8,2.673,13.812,13.812,0,0,1,2.324-4.086c1.608-1.91,5.688-4.388,5.688-4.388a23.044,23.044,0,0,0-.952,9.139c.369,5.8-.451,12.1-1.418,13.01a75.117,75.117,0,0,1-8.771,5.5c-2.6,1.388-5.6,3.574-7.936,2.739-2.6-.927-8.438-5.207-17.541-10.112-5.309-2.857-11.469-6.912-15.954-9.359C258.04,87.371,251.1,84.156,246.571,81.1c-3.052-2.063-3-3.2-3.384-5.207-1-5.094-3.758-15.954-3.758-15.954A16.37,16.37,0,0,1,242.936,63.532Z"
                      transform="translate(-239.429 -52.033)"/>
                <path class="aa"
                      d="M247.99,61.251s3.379,1.377,4.3,3.461c.835-4.925,3.866-6.318,3.866-6.318s3.732,2.145,5.033,5.135c1.29-1.992,7.306-3.574,7.306-3.574a37.65,37.65,0,0,1,3.338,7.68c1.838-1.838,6.692-2.355,6.692-2.355S280.6,69.059,280.6,71.9c1.587-1.336,4.506-1.51,7.521-.748,2.253,2.586,3.169,8.771,3.169,8.771a30.768,30.768,0,0,1,7.291-1.987c1.623,2.55,3.154,7.972,3.154,7.972s3.174-4.818,6.513-4.649c.169,3.42,1.321,4.48,1.961,8.1l8.013-2.376s-4.081,2.478-5.688,4.388a13.812,13.812,0,0,0-2.324,4.086,22.609,22.609,0,0,0-2.8-2.673,12.145,12.145,0,0,0-3.005-1.562,30.258,30.258,0,0,1,0,4.234,26.271,26.271,0,0,1-1,5.012s-1.28-2.007-2.9-4.347a30.34,30.34,0,0,0-3.118-3.84,16.463,16.463,0,0,0-1.838,3.84,16.344,16.344,0,0,1-1.167,3.174,51.563,51.563,0,0,0-2.5-5.847,26.883,26.883,0,0,0-3.758-4.675s-.251,2.673-.589,4.173-2.673,2.509-2.673,2.509a12.937,12.937,0,0,1-.911-4.844,10.608,10.608,0,0,1,.9-3.63A5.781,5.781,0,0,0,281.055,88a32.753,32.753,0,0,0-2.9,2.442,21.125,21.125,0,0,1-1.474-3.784,10.885,10.885,0,0,0-2.063-3.681L272.335,85.4c-.5.532-1.966,2.647-1.966,2.647a41.876,41.876,0,0,1-2.345-5.069,11.191,11.191,0,0,1-.7-3.226s-2.673.666-3.671,1.838-2.673,3.005-2.673,3.005S259.3,81.086,258.8,79.75s-1.838-4.3-1.838-4.3a12.316,12.316,0,0,0-3.169,2.79,25.627,25.627,0,0,0-1.505,2.842,8.981,8.981,0,0,1-2.616-4.982,21.666,21.666,0,0,1,.358-4.209,6.855,6.855,0,0,0-2.924,1.838,17.117,17.117,0,0,0-1.669,2.673s-1-4.342-2.5-6.513a16.37,16.37,0,0,0-3.507-3.594s3.507.338,4.756,1.925C244.605,65.966,247.99,61.251,247.99,61.251Z"
                      transform="translate(-239.429 -58.394)"/>
            </g>
            <path class="j" d="M251.964,119.611h-5.795l-.249-41.075h5.8Z" transform="translate(-82.156 24.592)"/>
            <rect class="j" width="5.774" height="34.413" transform="translate(164.618 223.389)"/>
            <g transform="translate(93.05 106.494)">
                <g transform="translate(36.393 29.34)">
                    <path class="v"
                          d="M239.216,85.593v3.753c0,1.987,3.021,3.594,6.748,3.594s6.748-1.608,6.748-3.594V85.593Z"
                          transform="translate(-239.216 -82.168)"/>
                    <path class="w"
                          d="M245.964,84.924c-3.727,0-6.748,1.608-6.748,3.589s3.021,3.589,6.748,3.589,6.748-1.608,6.748-3.589S249.691,84.924,245.964,84.924Z"
                          transform="translate(-239.216 -84.924)"/>
                </g>
                <path class="x" d="M309.833,90.4l-58.322,33.673-19.4-11.2,58.323-33.673Z"
                      transform="translate(-232.108 -79.194)"/>
                <path class="y" d="M235.9,115.054v7.521L294.22,88.9V81.382Z" transform="translate(-216.495 -70.179)"/>
                <path class="z" d="M232.108,85.77v7.521l19.4,11.2V96.972Z" transform="translate(-232.108 -52.098)"/>
            </g>
            <g transform="translate(93.039 62.848)">
                <path class="aa"
                      d="M235.584,121.5a29.913,29.913,0,0,1,2.632,4.024,13.107,13.107,0,0,1,.748,5s1.367-1.951,2.222-3.195a14.048,14.048,0,0,1,2.053-2.5,22.282,22.282,0,0,0,2.1,4.521,38.436,38.436,0,0,0,3.906,3.809s.154-2.9.374-4.009a21.176,21.176,0,0,0-.189-5.448s1.792.333,3.133.435a12.907,12.907,0,0,1,3.707,1.393s-.384-2.145-.512-3.9a11.163,11.163,0,0,1,.9-4.137,8.7,8.7,0,0,0,2.55,2.2,27.43,27.43,0,0,0,3.635,1.377,38.966,38.966,0,0,0-.189-4.731,22.5,22.5,0,0,1,0-4.352s2.381,1.5,3.4,2.34a15.843,15.843,0,0,0,2.447,1.551s-.015-2.57,0-4.142c.021-2.258.021-4.577.021-4.577s1.3.384,2.447.691a5.181,5.181,0,0,1,2.77,1.756s-.379-2.381-.5-4.029a35.393,35.393,0,0,1,.184-4.68,10.217,10.217,0,0,1,3.072.292c1.807.7,2.944,1.147,2.944,1.147s.154-2.012.374-3.507c.328-2.2.86-4.884.86-4.884a26.562,26.562,0,0,1,2.273,1.628,14.84,14.84,0,0,1,2.57,3.005,48.122,48.122,0,0,0,.061-4.884,15.684,15.684,0,0,1,.563-4.321s1.495,1.659,2.509,2.944c.937,1.188,2,2.442,2,2.442a18.374,18.374,0,0,1-.189-3.7,15.473,15.473,0,0,0-.312-4.383,11.553,11.553,0,0,1,3.072,1.249,6.884,6.884,0,0,1,2.314,2.693,41.338,41.338,0,0,0,.189-5.135c-.123-1.879-.374-3.318-.374-3.318a6.077,6.077,0,0,1,2.5.747,8.543,8.543,0,0,1,2.335,2.258,41.362,41.362,0,0,1,2.314-7.142,38.775,38.775,0,0,1,3.343-4.844,4.484,4.484,0,0,0-4.331,2.171,18.435,18.435,0,0,0-2.115,4.593,22.18,22.18,0,0,0-1.838-5.268,18.576,18.576,0,0,0-3.338-4l-2.668,5.478-3.85-4.639a40,40,0,0,0-2.253,5.77,16.089,16.089,0,0,0-4.782-2.606s1.69,4.854.937,7.69c-1.4-2.263-4.762-3.589-4.762-3.589s.046,7.352-.5,8.438a4.447,4.447,0,0,0-3.994-.42v6.851s-3.338-1.674-5.842-1.137c-.184,2.765-.686,9.073-.686,9.073a8.636,8.636,0,0,0-4.92-1.444c-.881,1.971-2.683,8.212-2.683,8.212a6.607,6.607,0,0,0-4.762-2.258c.466,3.005-1.587,7.1-1.587,7.1s-2.335-3.087-4.424-3.256a51.58,51.58,0,0,1-1.669,8.689s-1.341-4.3-3.676-4.961c-1.178,3.553-2.975,5.12-3.594,8.8-.507-2.058-2.683-4.157-6.4-4.931,2.289,2.673,2.852,7.992,2.852,7.992Z"
                      transform="translate(-232.098 -70.669)"/>
                <path class="s"
                      d="M236.5,145.967s4.818,2.862,9.165,5.207c2.391,1.3,6.451,3.738,7.972,2.842,3.128-1.838,17.188-10,25.728-14.95,8.1-4.69,24.75-13.932,25.907-15.565s-.338-34.719-.184-41.231.768-11.11.768-11.11A38.775,38.775,0,0,0,302.511,76a41.362,41.362,0,0,0-2.314,7.142,8.543,8.543,0,0,0-2.335-2.258,6.077,6.077,0,0,0-2.5-.747s.251,1.439.374,3.318a41.338,41.338,0,0,1-.189,5.135,6.884,6.884,0,0,0-2.314-2.693,11.553,11.553,0,0,0-3.072-1.249,15.473,15.473,0,0,1,.312,4.383,18.374,18.374,0,0,0,.189,3.7s-1.065-1.254-2-2.442c-1.014-1.285-2.509-2.944-2.509-2.944a15.684,15.684,0,0,0-.563,4.321,48.122,48.122,0,0,1-.061,4.884,14.84,14.84,0,0,0-2.57-3.005,26.562,26.562,0,0,0-2.273-1.628s-.533,2.683-.86,4.884c-.22,1.5-.374,3.507-.374,3.507s-1.137-.445-2.944-1.147a10.217,10.217,0,0,0-3.072-.292,35.393,35.393,0,0,0-.184,4.68c.123,1.649.5,4.029.5,4.029a5.181,5.181,0,0,0-2.77-1.756c-1.147-.307-2.447-.691-2.447-.691s0,2.319-.021,4.577c-.015,1.572,0,4.142,0,4.142a15.843,15.843,0,0,1-2.447-1.551c-1.024-.84-3.4-2.34-3.4-2.34a22.5,22.5,0,0,0,0,4.352,38.966,38.966,0,0,1,.189,4.731,27.43,27.43,0,0,1-3.635-1.377,8.7,8.7,0,0,1-2.55-2.2,11.163,11.163,0,0,0-.9,4.137c.128,1.751.512,3.9.512,3.9a12.907,12.907,0,0,0-3.707-1.393c-1.341-.1-3.133-.435-3.133-.435a21.176,21.176,0,0,1,.189,5.448c-.22,1.106-.374,4.009-.374,4.009a38.436,38.436,0,0,1-3.906-3.809,22.282,22.282,0,0,1-2.1-4.521,14.048,14.048,0,0,0-2.053,2.5c-.855,1.244-2.222,3.195-2.222,3.195a13.107,13.107,0,0,0-.748-5,29.913,29.913,0,0,0-2.632-4.024l-.625,4.024s-.563-5.32-2.852-7.992c-.123,3.236.875,6.661.973,9.61C233.34,132.886,236.5,145.967,236.5,145.967Z"
                      transform="translate(-232.106 -68.65)"/>
            </g>
            <g transform="translate(0 151.368)">
                <path class="k"
                      d="M326.071,123.214a19.747,19.747,0,0,1-5.058,5.11c-8.909,5.509-12.805,7.424-24.9,3.507-9.769-3.164-12.559-10.076-19.446-16.287s-14.94-4.982-21.5-9.836a28.489,28.489,0,0,1-11.351-17.751c-2.8,13.261,3.354,18.616,7.992,25.882-2.842,12.621-15.677,49.812-23.03,67.118s-16.036,42.168-14.7,50.155,8.018,26.757,21.709,43.223,42.793,12.4,56.34,6.743c13.4-5.591,15.877-17.26,21.719-33.961s12.841-76.657,12.549-94.49C326.123,136.787,328.616,130.889,326.071,123.214Z"
                      transform="translate(-213.934 -87.958)"/>
                <path class="b"
                      d="M231.12,105.709c6.564,4.854,14.623,3.62,21.5,9.836s9.677,13.123,19.446,16.287c12.1,3.917,15.995,2,24.9-3.507a19.747,19.747,0,0,0,5.058-5.11,26.505,26.505,0,0,0-1.2-3c-4.434-9.349-17-1.1-17-1.1s-3.139-10.5-8.218-13.414-14.971,0-14.971,0,.133-9.564-9.7-15.222-16.963-.338-20.49,4.992c-5.719-7.521-10.675-7.521-10.675-7.521A28.489,28.489,0,0,0,231.12,105.709Z"
                      transform="translate(-189.895 -87.958)"/>
            </g>
            <path class="w"
                  d="M270.186,100.362c-2.975,2-8.233,16.384-10.383,31.908-1.4,10.117-17.761,49.321-23.547,62.464s-13.266,30.515-10.706,34.432,13.307,1.229,21.54-2.9,14.054-12.851,14.853-25.8,9.211-59.213,11.141-71.562C275.68,112.317,278.506,94.765,270.186,100.362Z"
                  transform="translate(-168.207 110.137)"/>
            <path class="w"
                  d="M237.617,95.6s-6.487,7.67-10.332,12.273-7.516,12.283-7.516,12.283a90.392,90.392,0,0,0,10.675-9.3C234.469,106.457,237.617,95.6,237.617,95.6Z"
                  transform="translate(-189.895 94.882)"/>
            <path class="w"
                  d="M233.862,97.995s-6.559,15.288-7.813,20.634-2.012,17.454-2.012,17.454,6.108-9.1,8.11-17.454S233.862,97.995,233.862,97.995Z"
                  transform="translate(-172.311 104.762)"/>
            <path class="w"
                  d="M242.9,99.174A68.207,68.207,0,0,0,232.343,114.4c-2.877,5.734-6.436,17.075-6.436,17.075s7.844-7.393,10.547-13.281S242.9,99.174,242.9,99.174Z"
                  transform="translate(-164.606 109.62)"/>
            <path class="k" d="M256.375,104.113h-3.163l-5.39,18.722,4.929,1.374L257.7,107.03Z"
                  transform="translate(-74.316 129.967)"/>
            <path class="m"
                  d="M243.448,120.342s4.25-.4,4.1,6.83-.189,32.451,0,44.728,1.992,47.508,1.992,47.508,8.412,4.485,12.324,4.342,4.823-3.113,7.726-8.653,8.581-5.99,11.484-6.344,12.38.875,13.686-4.808.835-8.213,5.074-8.827,10.742-1.285,10.639-6.1.927-60.3,0-73.994S306.69,92.5,300.787,88.291s-13.947-1.608-19.395,2.4-14.981,9.887-21.381,13.973c-10.47,6.682-18.176,7.619-21.309,10.1s0,8.422,0,8.422Z"
                  transform="translate(-117.63 55.914)"/>
            <path class="n"
                  d="M241.364,93.783s1.183,16.906,1.94,24.54,3.748,44.718,5.427,52.07,2.084,10.691,2.084,10.691,3.005-8.166,1.592-22.185c-.717-7.153-1.454-22.139-3.676-37.514A132.956,132.956,0,0,0,241.364,93.783Z"
                  transform="translate(-100.923 87.409)"/>
            <path class="n"
                  d="M247.822,89.952s.809,21.9,3.625,37.565,3.3,45.225,3.3,45.225,3.318-16.1,2.724-26.89-2.883-25.948-4.721-36.285A156.907,156.907,0,0,0,247.822,89.952Z"
                  transform="translate(-74.316 71.625)"/>
        </g>
        <g transform="translate(892.219 420.091)">
            <path class="o" d="M224.593,161.5l-6.006-3.471-2.378-8.984,5.029-2.9Z"
                  transform="translate(-86.44 54.027)"/>
            <path class="m"
                  d="M248.1,140.87l58.58-33.821L295.33,271.817l-27.144,15.672L265.2,273.812l-18.314,10.573-7.576,4.374-18.314,10.573-2.988,17.126-27.144,15.672Z"
                  transform="translate(-190.863 -107.049)"/>
            <path class="o"
                  d="M248.928,141.325,307.508,107.5,296.158,272.272l-27.144,15.671-2.988-13.677L247.713,284.84l-7.576,4.375-18.314,10.573-2.988,17.126-27.167,15.719Z"
                  transform="translate(-187.548 -105.174)"/>
            <path class="m"
                  d="M208.029,141.888l58.579-33.821,40.6,194.672L280.068,318.41l-2.988-13.676-18.314,10.573-7.576,4.374-18.314,10.573-2.988,17.126-27.144,15.672Z"
                  transform="translate(-141.908 -102.854)"/>
            <g transform="translate(0 33.821)">
                <path class="ab"
                      d="M256.984,118.867l-8.884-5.213L190.863,304.915l4.119,2.378,57.182-191.078v.046l-5.279,220.992,4.815,2.78Z"
                      transform="translate(-190.863 -113.655)"/>
            </g>
            <path class="ac" d="M260.622,107.049l8.883,5.213-58.579,33.821-8.884-5.213Z"
                  transform="translate(-144.805 -107.049)"/>
            <path class="n"
                  d="M240.9,111.4l-4.454,2.57c.22,7.137-1.188,19.886-12.5,28.022a70.843,70.843,0,0,1-6.477,3.743,14.564,14.564,0,0,1-10.092,1c3.533,2.964,8.448,4.613,15.068,1.731a71.35,71.35,0,0,0,6.477-3.743C245.342,132.916,240.9,111.4,240.9,111.4Z"
                  transform="translate(-122.846 -89.115)"/>
            <g transform="translate(77.107 24.858)">
                <path class="o"
                      d="M237.366,111.9l-2.837,1.638c-1.546,7.337-5.7,18.068-16.942,25.242-1.034.681-6.149,3.364-7.132,3.738a22.21,22.21,0,0,1-3.308,1.034c.374.374.732.763,1.147,1.111a14.566,14.566,0,0,0,10.092-1,70.075,70.075,0,0,0,6.472-3.743C236.178,131.79,237.586,119.041,237.366,111.9Z"
                      transform="translate(-200.876 -111.904)"/>
                <path class="n"
                      d="M220.15,137.466c11.239-7.173,15.4-17.9,16.942-25.242l-6.134,3.543A37.34,37.34,0,0,1,216.28,133.59c-1.034.681-6.149,3.364-7.132,3.738a22.1,22.1,0,0,1-2.621.87,23.023,23.023,0,0,0,3.185,4.04,22.21,22.21,0,0,0,3.308-1.034C214,140.829,219.116,138.147,220.15,137.466Z"
                      transform="translate(-203.439 -110.586)"/>
                <path class="ad"
                      d="M209.01,135.347a22.1,22.1,0,0,0,2.621-.87c.983-.374,6.1-3.057,7.132-3.738a37.34,37.34,0,0,0,14.679-17.823L205.923,128.8A31.176,31.176,0,0,0,209.01,135.347Z"
                      transform="translate(-205.923 -107.735)"/>
            </g>
            <g transform="translate(73.794 74.127)">
                <path d="M206.793,133.12l3.036-1.751,1.531,8.74c.3,1.971.64,3.948.942,5.949l.082-.041c.118-2.253.241-4.5.359-6.707l.783-10.076,2.514-1.449,2.033,8.448c.394,1.853.8,3.825,1.2,5.8l.082-.046c.041-2.232.077-4.429.123-6.569l.282-9.784L222.593,124l-1,21.141-3.717,2.145-1.889-8.243c-.328-1.393-.594-2.908-.835-4.285l-.082.046c-.062,1.557-.113,3.256-.23,4.9l-.62,9.7-3.661,2.109Z"
                      transform="translate(-199.026 -111.334)"/>
                <path d="M210.231,127.609l8.2-4.736.256,3.763-5.248,3.031.271,3.978,4.459-2.575.256,3.727-4.465,2.575.307,4.557,5.448-3.144.256,3.763-8.4,4.854Z"
                      transform="translate(-184.861 -115.981)"/>
                <path d="M216.027,129.089l-3.594,2.074-.256-3.763,10.168-5.873.256,3.763-3.6,2.079,1.085,16.031-2.975,1.715Z"
                      transform="translate(-176.844 -121.527)"/>
                <path d="M205.276,135.655l8.264-4.772.251,3.758-5.3,3.067.307,4.582,4.542-2.621.256,3.763-4.542,2.621.517,7.685-2.954,1.7Z"
                      transform="translate(-205.276 -82.98)"/>
                <path d="M207.332,132l2.959-1.7,1.08,16.026,5.181-2.99.256,3.763-8.141,4.7Z"
                      transform="translate(-196.805 -85.407)"/>
                <path d="M209.278,143.043c-.44-6.467,1.72-11.561,5.258-13.6s6.205.3,6.641,6.733c.435,6.467-1.715,11.745-5.253,13.788S209.713,149.509,209.278,143.043Zm8.863-5.115c-.266-3.953-1.551-5.668-3.343-4.634s-2.755,4.045-2.488,8c.271,3.973,1.567,5.842,3.354,4.813S218.406,141.9,218.14,137.928Z"
                      transform="translate(-189.023 -91.879)"/>
                <path d="M211.961,141.492c-.435-6.467,1.725-11.561,5.263-13.6s6.205.3,6.635,6.733c.44,6.461-1.71,11.74-5.248,13.783S212.4,147.959,211.961,141.492Zm8.863-5.115c-.266-3.948-1.552-5.668-3.338-4.634s-2.755,4.05-2.488,8c.266,3.978,1.562,5.847,3.354,4.813S221.095,140.35,220.823,136.377Z"
                      transform="translate(-177.964 -98.264)"/>
                <path d="M214.593,129.373l4.721-2.729c2.775-1.6,5.146-1.459,5.463,3.246a10.218,10.218,0,0,1-1.946,7.055l3.512,6.205-3.318,1.915-3-5.683-1.628.937.481,7.137-2.954,1.7Zm5.1,6.513a4.338,4.338,0,0,0,2.191-4.326c-.128-1.94-1.024-2.125-2.57-1.229l-1.526.881.374,5.56Z"
                      transform="translate(-166.89 -104.239)"/>
            </g>
            <path d="M239.233,179.426a7.151,7.151,0,0,0-3.666,1.5,95.038,95.038,0,0,0-2.314-11.587c-1.951-3.246-5.97-3.471-8.673-3.942.317-2.724-.451-3.425-1.157-6.262a9.927,9.927,0,0,1-.476-4.429c.2-1.864,1.879-3.917,2.509-5.724,1.961-5.622,1.669-11.1-.3-15.232-.164-.333-.563.021-.589.471-.266,4.582,1.541,6.615-.44,13.338a34.2,34.2,0,0,0-3.456,5.412c-.476.911-.906,2.314-1.275,3.036a7.309,7.309,0,0,1-.645-1.3c.143-.507.578-.881.589-1.49.041-1.838-1.654-3.886-2.314-3.948a2.79,2.79,0,0,0,.123-1.935,4.311,4.311,0,0,1-1.469,1.761,4.656,4.656,0,0,0-1.71,2,3.034,3.034,0,0,0,.215,3.369,2.644,2.644,0,0,0,.364,2.708c.686.917,2.181-.568,2.278-.558a10.293,10.293,0,0,1,.538,2.391c-.246.512-.819,1.213-1.393,2.1a22.559,22.559,0,0,0-2.325,5.473c-.906,2.816-1.444,6.7-2.115,9.738a51.111,51.111,0,0,0-1.362,5.13c-.333,3.062.251,3.825.86,2.836,1-1.613,1.009-5.862,1.382-7.1.625-2.058,1.29-4.04,2.115-6.436a17.739,17.739,0,0,1,2.929-5.77c.609,1.408.773,5.412,2.422,5.939a12.233,12.233,0,0,0,.527,4.992c.63,2.222,2.161,4.045,2.913,7.322-.6,4.741-.553,6.676-1.894,12.058a2.891,2.891,0,0,0-.43,3.64c1.342,2.15,2.565,2.647,4.577,1.224a1.007,1.007,0,0,0,.261-1.162,8.837,8.837,0,0,0-2.847-2.7c.891-2.048,3.584-10.071,4-13.251.323-2.714-.635-7.158-1.818-11.259,1.27,1.382,4.091,1.981,5.862,1.649.486,3.85,2.33,7.153,2.821,9.651-.21,1.659.246,2.662.891,2.4a11.184,11.184,0,0,0,4.618-4.572C239.709,180.235,239.576,179.359,239.233,179.426Z"
                  transform="translate(-111.71 2.421)"/>
            <path d="M209.244,170.033l40.314-23.248L249.166,144l-40.313,23.247Z"
                  transform="translate(-116.746 45.175)"/>
        </g>
        <g transform="translate(664.039 174.612)">
            <g transform="translate(0 121.565)">
                <path class="k"
                      d="M310.461,206.63c.558-.3.348-1.536,1.475-2.76-.312-.778-2.7-.922-4.705-.773.015-1.9-2.652-6.144-4.721-7.726a6.811,6.811,0,0,0-3.942,2.258,7.2,7.2,0,0,0-2-4.439,8.536,8.536,0,0,0-8.965-.794c-.42-1.357-.7-3.231-1.669-4.331-1.889.225-3.261-.655-4.649.471-.046-.609-1.685-2.493-.169-3.615-2.15-.829-6.364-.686-7.485.5a10.81,10.81,0,0,0-1.664-2.493c-1.72-1.956-4.06-4.393-6.856-3.886a9.236,9.236,0,0,0-2.412-4.429c-2.15-1.71-3.758-1.807-6.385-1.029-1.055-1.05-3.256-2.621-4.972-2.386-.287-1.464-.855-2.836-.707-4.009-2.248.051-3.594-.236-4.895.758.01-.845.2-3.3-.968-4.178-1.219,1.418-3.287.973-4.726,1.884-.829-2.381-3.528-4.372-5.98-3.917.317-.681-.138-2.509.84-3.584-3.6-1.9-7.68-.671-8.448-.389a5.54,5.54,0,0,0-7.526-5.12c-.1-1.1-.061-2.836-.635-3.717-1.06-1.623-3.338-.169-4.92.922a7.892,7.892,0,0,1,1.408-3.84,7.9,7.9,0,0,0-7.035.364c-.722-2.319-3.471-4.659-5.627-3.891a8.023,8.023,0,0,0-3.036-4.782c-.589,1.213-1.69,1.357-3.185,2.068-1.874-3.057-4.731-3.61-5.939-3.4.389-.788.353-2.048,1.27-3.287a10.266,10.266,0,0,0-7.357.4,4.428,4.428,0,0,0-.7.379,9.423,9.423,0,0,0-.671-.891c-.686-.8-2.611-2.355-3.82-2.284a7.727,7.727,0,0,0-1.428,3.646,5.185,5.185,0,0,0-1.1-.266c-2.243-.261-5.632.9-7.88.794.148,1.316,1.654,1.766,1.961,1.869a3.573,3.573,0,0,0-2.478,2.345c-2.012.02-4.828.42-6.9-.056-.5,1.116.927,2.15,1.449,2.565-3.231-.374-6.743,1.075-9.574,2.355.01,1.034,2.478,1.06,2.99,1.178a12.971,12.971,0,0,0-3.164,2.2,3.9,3.9,0,0,0-.63,2.376c-1.823.236-4.219,1.29-5.647,1.352-.082,1.6,2.857,2.376,4.352,2.662a28.085,28.085,0,0,0-2.58,5.627,64.689,64.689,0,0,1,6.912-1.7,4.2,4.2,0,0,0,1.643,3.446,5.9,5.9,0,0,0,3.61,1.229c-.891.7-2.7,2.084-3.912,3.031a14.053,14.053,0,0,0,5.463,1.587,6.311,6.311,0,0,0-1.751,2.468,16.927,16.927,0,0,0,7.593-.292c-.635,1.162-.543,2.5-.855,3.779,2.545-.507,5.033-1.818,7.137-2.294a3.221,3.221,0,0,0-.015,1.152,4.713,4.713,0,0,0,2.826,3.205,9.445,9.445,0,0,0,6.042.481c-.266.338-.015,2.468-1.592,4.009,2.074,1.106,5.422.978,8.074-.072a58.966,58.966,0,0,0,.44,6.979c1.982-.589,3.809-2.877,4.444-3.948.573,2.488,3.871,5.8,6.717,5.76-1.121,1.326-1.8,2.391-1.152,3.707,1.761.394,5.96-.829,8.863-2.017.461,2.217,3.082,3.594,5.5,3.579a10.4,10.4,0,0,0,.292,5.765c1.807-.978,4.49-1.577,5.914-2.181.384-.164.773-.338,1.152-.527a6.363,6.363,0,0,0,4.1,3.958,8.558,8.558,0,0,0,3.533.563c-1.152.978-2.78,1.951-3.333,3.994a41.576,41.576,0,0,0,9.216.676,8.35,8.35,0,0,0,1.859-.338,6.112,6.112,0,0,0,1.956,7.363c.952-2.079,3.149-3.154,4.3-3.983a8.026,8.026,0,0,0,.149,3.256c.486,1.956,1.162,3.543,2.852,4.608,1.469-1.408,3.635-2.5,4.147-3.154.072.722,1.761,3.691,2.642,5.842,2.1.251,3.436-1.49,4.465-2.9.143,1.4,1.546,3.63,2.115,5.74,1.254.486,2.877-.374,4.209-1.454a7.091,7.091,0,0,0,3.323,4.526,7.785,7.785,0,0,0,5.857.036,8.785,8.785,0,0,0,3.292,5.484c1.894-2.493,5.023-2.007,6.031-3.435a17.477,17.477,0,0,0,2.9,3.435c2.1-.333,5.468-4.644,5.217-6.948,1.126.7,5.955,1.326,7.235,1.131a13.954,13.954,0,0,0,5.1-2.365c-1.777-1.347-1.449-3.548-1.777-4.132,2.632.7,6.031.041,7.619-2.048a6.624,6.624,0,0,0,1.126-3.707c3.093.5,7.337-.65,8.556-2.545A20.3,20.3,0,0,0,310.461,206.63Z"
                      transform="translate(-146.297 114.235)"/>
                <path class="q"
                      d="M149.638,151.98l120.509,69.576c3.21,1.853,8.873,1.618,12.585-.522l19.692-11.372c3.707-2.14,4.111-5.412.9-7.265L182.816,132.821c-3.21-1.853-8.873-1.618-12.585.522l-19.691,11.366C146.832,146.855,146.423,150.121,149.638,151.98Z"
                      transform="translate(-141.465 117.895)"/>
                <path class="g"
                      d="M150.634,148.159l114.734,66.586c2.606,1.505,7.2,1.316,10.214-.42l15.985-9.231c3.011-1.741,3.343-4.393.732-5.9L177.571,132.6c-2.606-1.505-7.2-1.311-10.214.425l-15.99,9.231C148.356,144,148.028,146.654,150.634,148.159Z"
                      transform="translate(-135.672 117.978)"/>
                <path class="i"
                      d="M173.538,138.08c-7.4,0-13.4,3.195-13.4,7.132s6,7.132,13.4,7.132,13.409-3.195,13.409-7.132S180.942,138.08,173.538,138.08Z"
                      transform="translate(-89.287 144.713)"/>
                <path class="c"
                      d="M291.209,85.156l-5.417-2.309L162.3,371.861l.062.005a1.038,1.038,0,0,0-.133.348c0,.937,1.428,1.7,3.19,1.7,1.587,0,2.847-.63,3.092-1.439l.051.005Z"
                      transform="translate(-80.647 -82.847)"/>
                <path class="ae"
                      d="M207.9,84.579H189.224s-6.175,10.056-7.076,17.055,5.965,11.433,5.965,11.433l4.552-10.655s.323.056.778.113a8.239,8.239,0,0,0,.261,4.332c1.167,2.294,4.214,2.9,5.32-.691a42.377,42.377,0,0,1,1.608-4.357A11.151,11.151,0,0,0,204,99.985C208.751,96.176,207.9,84.579,207.9,84.579Z"
                      transform="translate(1.073 -75.711)"/>
            </g>
            <g transform="translate(163.778)">
                <path class="l"
                      d="M193.3,72.093s-7.849,0-11.034,17.4c-2.324,12.693,13.368,22.1,13.368,22.1L210.866,81.6Z"
                      transform="translate(-162.828 -5.589)"/>
                <path class="af"
                      d="M183.766,105.088s-2.488,16.609,6.81,31.831c5.156,8.438,15.063,21.74,25.518,34.079,7.992,9.431,12.867,20.163,12.626,23.02-.3,3.563-13.317,13.619-13.317,13.619l5.1,7.6,26.834-18.877s-7.787-13.368-10.23-22.769c-2.637-10.158-5.427-24.146-11.1-35.287-10.916-21.448-15.764-33.213-15.764-33.213Z"
                      transform="translate(-156.945 130.351)"/>
                <path class="c"
                      d="M228.705,122.056s-4.224,6.651-6.559,8.7c-4.762,4.173-8.648,6.973-14.1,6.973a10.589,10.589,0,0,1-6.5-1.9s-18.432,11.776-13.22,16.118c4.076,3.4,8.3,4.424,17.213,1.818,4.3-1.254,12.79-6.84,16.952-11.674,3.8-1.213,10.132-4.5,11.848-8.044C235.259,132.142,232.5,125.645,228.705,122.056Z"
                      transform="translate(-140.726 200.259)"/>
                <path class="ae"
                      d="M236.027,100.035c-6.717-6.415-17.915.215-23.066,6.564-9.057,11.156-7.275,29.476-8.018,42.88-.947,17.08-1.69,34.186-2.954,51.246-.865,11.648-2.775,33.818-6.272,51.128-3.021,14.956-8.5,19-11.945,24.192-2.519,3.8,14.8,11.546,17.485,8.489,2.447-2.79,11.284-11.418,11.484-20.337.287-12.9,6.031-25.917,13.066-47.508,1.377-4.219,4.664-8.228,3.5-27.7-.271-4.588-.328-13.778,1.055-18.15,1.086-3.4,4.931-7.342,6.549-10.716a68.2,68.2,0,0,0,4.04-10.6C245.4,134.134,248,111.484,236.027,100.035Z"
                      transform="translate(-156.701 98.759)"/>
                <path class="aa"
                      d="M197.769,81.443c8.817-11.177,13.143-12.042,23.823-5.934,13.077,7.491,24.96,10.685,30.689,15.442,9.708,8.074,14.013,26.235,15.662,47.16.251,3.174,1.49,12.349-2.867,18.8,2.678,9.052,6.733,12.774,3.461,22.277-15.135,8.883-47.058,12.718-58.752-8.8-.727-1.331,1.162-5.98,2.089-7.183-2.437-1.377-4.173-4.757-4.173-7.9-4.485-2.427-8.32-6.093-9.344-12.431-8.986-2.028-18.667-7.076-15.744-17.915,1.423-5.289,8.607-17.562,9.882-23.752C194.8,90.009,195.25,84.633,197.769,81.443Z"
                      transform="translate(-162.638 -7.044)"/>
                <path class="af"
                      d="M189.2,94.474c2.463-.4,5.75-8.776,6.81-13.645.717-3.3,14.479-12.314,14.469-11.843-.159,10.808,1.536,23.158,6.492,28.769-7.142,7.46-13.911,22.712-26.132,20.122C184.126,116.454,184.336,108.236,189.2,94.474Z"
                      transform="translate(-147.895 -18.462)"/>
                <path class="ag"
                      d="M188.76,90.367s12.129-3.932,18.683-3.149a51.411,51.411,0,0,1,12.191,3.149s-9.252,1.311-15.437,1.572S188.76,90.367,188.76,90.367Z"
                      transform="translate(-135.126 56.301)"/>
                <path class="ag"
                      d="M189.8,92.091c.783,0,14.413-.394,21.75-.916s10.219-.881,10.219-.881a26.217,26.217,0,0,1-14.546,4.552A68.357,68.357,0,0,1,189.8,92.091Z"
                      transform="translate(-130.845 69.399)"/>
                <path class="u"
                      d="M201.83,146.83c-1.418,4.849,2.125,9.682,4.536,13.522-1.848,9.4-5.908,28.9-9.748,47.181-4.229,20.152-9.149,42.383-9.508,63.841,9.411,13.2,19.466,18.8,36.219,20.014,29.133,2.109,45.322-11.366,45.322-11.366s1.9-41.165,1.9-69.535c13.665-27.853-.84-49.562-.84-49.562s-18.719-1.382-30.295-9.247c-6.753-4.587-17.178-23.726-14.638-31.488,4.536-13.844,20.767-37.78,20.767-37.78L239.421,79.7s-19.041,31.258-24.223,38c-1.664,2.166-9.006-.246-13.169-2.289-8.31-4.076-8.361-3.313-7.588-8.253C195.686,99.225,207.3,77.6,207.3,77.6l-8.187-4.982s-9.155,29.46-13.972,39.567c-3.85,8.079-4.92,13.507-1.213,19.415C186.731,136.078,193.925,143.21,201.83,146.83Z"
                      transform="translate(-164.482 -3.413)"/>
                <path class="l"
                      d="M192.026,72.86s-2.2,11.412-3.63,15.56-4.429,13.594-4.429,13.594,4.05-2.135,6.282-1.019,4.009,4.086,5.924,4.562a12.144,12.144,0,0,0,4.408,0l1.341-5.263s-3.994-1.116-4.152-7.813.635-15.8.635-15.8Z"
                      transform="translate(-154.873 -2.429)"/>
                <path class="ae"
                      d="M188.29,66.946c9.61-2.161,14.638-2.555,23.173.9a47.471,47.471,0,0,1,13.65,6.277,1.181,1.181,0,0,1,.527,1.085c-2.2,12.662-6.441,26.086-20.654,31.708-11.684,4.618-18.242-8.2-20.275-16.8C182.345,80.1,181.629,68.441,188.29,66.946Z"
                      transform="translate(-158.745 -33.635)"/>
                <path class="ah"
                      d="M238.582,82.559c-3.461-12.744-11.361-19.164-16.9-13.481-1.111-6.077-7.06-9.974-10.465-5.422-2.755-6.589-9.82-4.915-13.66-1.9-7.3,5.729-22.9,27.336-11.494,35.553.7,10.813,13.614,11.622,21.089,6.349,4.065,3.732,11.827,3.615,14.188-.138,1.393,6.8,3.476,13.23,4.864,18.98C231.02,119.485,243.651,101.232,238.582,82.559Z"
                      transform="translate(-162.871 -59.104)"/>
                <path class="ae" d="M189.081,73.1s2.3-7.777,7.363-3.784-2.1,11.868-2.1,11.868Z"
                      transform="translate(-133.803 -21.726)"/>
                <path class="l"
                      d="M208.355,72.236c-.087.195-3.7,6.472-6.917,12.349-3.41,6.226-7.439,12.406-11.141,15.57-5.427,4.623-3.415,11.96-3.415,11.96s1.966-4.726,4.536-3.988,5.2,3.062,8.228,5.688c2.232-3.6,5.489-7.752,9.175-14.008,3.584-6.083,8.637-12.943,6.543-20.27S208.355,72.236,208.355,72.236Z"
                      transform="translate(-144.368 -5)"/>
                <path class="c"
                      d="M183.7,157.924c-4.117,6.5-4.833,11.141.579,14.06,8.2,4.419,12.861.922,22.164-6.559,6.241-5.013,7.173-9.866,12.575-15.647,3.328-.415,5.965-4.357,6.508-8.586a57.949,57.949,0,0,0-.005-11.2s-2.77,5-5.115,9.81c-2.7,5.545-7.951,8.243-11.008,7.619-4.68-.957-12.846-5.581-12.846-5.581S187.028,152.665,183.7,157.924Z"
                      transform="translate(-169.484 232.963)"/>
                <path class="ai"
                      d="M187.363,90.143s2.4,5.176,11.8,10.87,25.554-.02,25.554-.02-14.254-1.121-22.113-4C197.372,95.074,187.363,90.143,187.363,90.143Z"
                      transform="translate(-140.881 68.777)"/>
                <path class="ai"
                      d="M186.351,87.588c.594.082,6.743,6.313,13.23,6.83s13.225-4.04,13.225-4.04a89.016,89.016,0,0,1-13.225-.364C194.328,89.272,186.351,87.588,186.351,87.588Z"
                      transform="translate(-145.051 58.251)"/>
                <path class="ai"
                      d="M206.59,99.62s-8.643,10.614-12.452,20.214-7.265,39.7-7.265,39.7,6.825-23.265,10.557-35.809A195.921,195.921,0,0,1,206.59,99.62Z"
                      transform="translate(-142.9 107.822)"/>
                <path class="ae"
                      d="M234.571,84.058s-7,13.486-14.874,27.5c-17.208,9.114-37.842,24.755-37.842,24.755l4.931,7.7s17.8-2.222,33.367-10.312c8.929-4.644,12.329-2.565,16.573-9.544,9.1-14.971,20.183-32.886,20.183-32.886S244.995,82.46,234.571,84.058Z"
                      transform="translate(-163.574 42.908)"/>
                <path class="l"
                      d="M214.255,75.492c-10.127,1.29-15.217,12.549-19.149,25.948a92.428,92.428,0,0,0-3.794,24.53,135.059,135.059,0,0,1,19.958,10.25c11.668-10.506,19.86-25.62,21.033-37.775S222.3,78.17,214.255,75.492Z"
                      transform="translate(-124.612 8.415)"/>
                <path class="aj"
                      d="M192.717,84.579a34.877,34.877,0,0,1,12.8,4.019,38.29,38.29,0,0,1,9.994,7.388l-4.895,5.9s-5.678-5.3-9.748-7.214a42.687,42.687,0,0,0-9.861-2.785Z"
                      transform="translate(-125.868 45.853)"/>
                <path class="ae"
                      d="M210.062,95.8,199.4,93.7s-8.018,3.569-12.17,5.647-6.748,9.339-8.3,15.826.261,8.044,0,11.418,3.374,3.63,4.413,0,3.113-10.122,3.113-10.122,4.152-1.715,10.117-3.712S211.1,101.521,211.1,101.521Z"
                      transform="translate(-178.284 83.424)"/>
            </g>
        </g>
        <path class="c"
              d="M346.437,159.694c-8.6-10.23-21.11-14.331-33.6-8.9-9.1,3.963-14.623,11.976-22.072,18.432-14.986,12.984-33,17.92-52.69,24.248-6.984,2.243-32.113,6.579-30.828,17.981,1.382,12.3,23.828,14.74,32.655,15.642,20.782,2.125,43.32,6.313,62.966-2.565,10.563-4.772,20.726-10.614,30.976-16.02,6.339-3.338,13.44-6.38,17.782-12.344C359.713,185.033,354.536,169.325,346.437,159.694Z"
              transform="translate(768.65 483.353)"/>
        <path class="c"
              d="M231.361,156.644c-14.659-3.523-28.57-9.2-43.633-8.074-12.36.932-31.247,4.122-40.4,13.547-6.784,6.984-4.178,15.309,3.292,20.582,6.006,4.239,13.916,5.171,20.987,6.154,12.216,1.69,22.436,2.8,33.034,9.9,12.687,8.5,23.009,13.394,38.436,9.421,11.51-2.964,25.149-9.364,29.583-21.243C281.2,164.048,252.824,161.805,231.361,156.644Z"
              transform="translate(505.819 483.509)"/>
        <path class="c"
              d="M210.813,146.1c-5.463-6.441-15.662-5.653-23.122-5.371a174.056,174.056,0,0,0-33.075,4.219c-11.95.43-24.965,3.5-19.825,13.763,3.179,6.354,15.242,6.415,20.787,7.409,12.564,2.243,21.955,7.255,35.016,5.417C201.392,170.018,222.84,160.3,210.813,146.1Z"
              transform="translate(465.587 451.043)"/>
    </g>
</svg>