<svg xmlns="http://www.w3.org/2000/svg" width="371.31" height="322.188" viewBox="0 0 371.31 322.188"><defs><style>.a{fill:#352221;}.b{fill:#8da3ff;}.c{fill:#6781ef;}.d{fill:#778dfd;}.e{opacity:0.5;}.f{fill:#a4baff;}.g{fill:#bbceff;}.h{opacity:0.57;}.i{fill:#ffce00;}.j{fill:#ffb600;}.k{fill:#ffd836;}.l{fill:#5273dd;}.m{fill:#2c1d1b;}.n{fill:#3f2a28;}.o{fill:#bbcdff;}.p{fill:#a6c2ff;}.q{fill:#ffb9a4;}.r{fill:#ffc9b6;}.s{fill:#301333;}.t{fill:#593d3d;}.u{fill:#c6afaf;}.v{fill:#d8c4c3;}.w{fill:#472f2e;}.x{fill:#b29a9a;}.y{fill:#281818;}.z{fill:#fed517;}.aa{fill:#efa500;}.ab{fill:#efdfdf;}.ac{fill:#fff;}.ad{fill:#493130;}</style></defs><g transform="translate(-351.547 -449.9)"><g transform="translate(404.344 498.245)"><g transform="translate(226.027 254.242)"><path class="a" d="M432.5,537.752v16.054c0,1.96,2.99,3.547,6.675,3.547s6.672-1.588,6.672-3.547V537.752Z" transform="translate(-432.5 -537.752)"/></g><g transform="translate(299.143 211.594)"><path class="a" d="M453.728,525.37v16.054c0,1.96,2.986,3.547,6.672,3.547s6.675-1.588,6.675-3.547V525.37Z" transform="translate(-453.728 -525.37)"/></g><g transform="translate(9.451 130.199)"><path class="a" d="M369.62,501.738v16.054c0,1.96,2.99,3.548,6.675,3.548s6.671-1.588,6.671-3.548V501.738Z" transform="translate(-369.62 -501.738)"/></g><g transform="translate(101.045)"><path class="b" d="M501.843,514.511,415.33,464.844a5.218,5.218,0,0,0-3.923-.737l-.127-.152a12.38,12.38,0,0,0-8.208,2.731A32.629,32.629,0,0,0,396.4,474.2l11.466,9.365V531.04c0,5.476,3.358,11.893,7.464,14.263l86.513,49.67c4.105,2.37,7.464-.169,7.464-5.645V528.773C509.307,523.3,505.949,516.88,501.843,514.511Z" transform="translate(-395.756 -463.937)"/><path class="b" d="M437.738,505.205a12.37,12.37,0,0,1-5.649,6.62c-7.247,4.2-10.639,3.231-10.639,3.231l-.871-14.311,12.84-3.379Z" transform="translate(-336.656 -382.225)"/><path class="c" d="M490.19,597.092l-86.51-49.667c-4.106-2.37-7.467-8.79-7.467-14.263V472.609c0-5.473,3.362-8.015,7.467-5.645l86.51,49.67c4.106,2.37,7.467,8.786,7.467,14.263v60.554C497.657,596.924,494.3,599.462,490.19,597.092Z" transform="translate(-396.213 -458.706)"/></g><g transform="translate(204.731 59.634)"><path class="b" d="M531.947,531.825l-86.513-49.67a5.214,5.214,0,0,0-3.923-.734l-.127-.151A12.356,12.356,0,0,0,433.176,484a32.576,32.576,0,0,0-6.672,7.508l11.466,9.365v47.479c0,5.473,3.358,11.893,7.464,14.263l86.513,49.667c4.106,2.37,7.464-.169,7.464-5.642V546.088C539.411,540.611,536.053,534.195,531.947,531.825Z" transform="translate(-425.86 -481.25)"/><path class="b" d="M467.842,522.518a12.358,12.358,0,0,1-5.649,6.62c-7.247,4.2-10.639,3.234-10.639,3.234l-.871-14.315,12.84-3.379Z" transform="translate(-366.76 -399.542)"/><path class="c" d="M520.294,614.407l-86.51-49.67c-4.106-2.37-7.467-8.786-7.467-14.263V489.92c0-5.473,3.362-8.011,7.467-5.642l86.51,49.667c4.106,2.37,7.467,8.79,7.467,14.263v60.554C527.761,614.235,524.4,616.776,520.294,614.407Z" transform="translate(-426.317 -476.02)"/></g><g transform="translate(0 5.235)"><path class="b" d="M468.138,475.719a32.635,32.635,0,0,0-6.675-7.508,12.371,12.371,0,0,0-8.208-2.735l-.127.155a5.219,5.219,0,0,0-3.923.734L374.34,509.59c-4.105,2.37-7.464,8.786-7.464,14.263v60.554a8.958,8.958,0,0,0,.84,4l-.021.034a12.367,12.367,0,0,0,5.652,6.62c7.243,4.2,10.639,3.234,10.639,3.234l.871-14.314,64.346-37.15c4.106-2.373,7.467-8.79,7.467-14.266V485.084Z" transform="translate(-366.876 -465.457)"/><path class="d" d="M377.858,592.17l74.865-43.226c4.106-2.37,7.464-8.79,7.464-14.263V474.128c0-5.473-3.358-8.015-7.464-5.642l-74.865,43.222c-4.109,2.37-7.467,8.79-7.467,14.263v60.554C370.391,592,373.749,594.54,377.858,592.17Z" transform="translate(-358.284 -460.225)"/></g><path class="c" d="M651.864,598.616l-179.3-107.971c-4.171-2.408-11.525-2.1-16.34.678l-55.77,32.2-23.025-13.553c-4.929,4.839-5.876,15.258-5.876,23.149s2.421,9.889,6.372,12.169l183.15,105.74c4.171,2.407,11.521,2.1,16.34-.675l73.27-42.3C655.508,605.266,656.035,601.023,651.864,598.616Z" transform="translate(-355.432 -402.624)"/><path class="b" d="M375.4,535.85l183.15,105.74c4.171,2.411,11.521,2.1,16.34-.675l73.27-42.3c4.818-2.783,5.345-7.026,1.175-9.434L466.189,483.438c-4.171-2.408-11.521-2.1-16.34.679l-73.27,42.3C371.764,529.2,371.233,533.442,375.4,535.85Z" transform="translate(-352.906 -420.237)"/><g class="e" transform="translate(32.657 67.518)"><path class="f" d="M527.487,535.695,466.7,570.8c-4.633,2.673-12.8,2.335-18.145-.754l-67.766-39.124c-5.349-3.086-5.934-7.8-1.3-10.478l60.792-35.1c4.633-2.673,12.8-2.335,18.145.754l67.766,39.124C531.534,528.307,532.12,533.022,527.487,535.695Z" transform="translate(-376.358 -483.54)"/><path class="g" d="M510.891,529.983l-52.952,30.575c-4.037,2.328-11.149,2.032-15.809-.658L383.1,525.823c-4.66-2.69-5.17-6.8-1.133-9.127L434.92,486.12c4.037-2.328,11.149-2.032,15.806.658l59.032,34.081C514.414,523.546,514.928,527.655,510.891,529.983Z" transform="translate(-369.302 -481.069)"/><path class="d" d="M403.174,494.883c-3.537,0-6.407,1.526-6.407,3.406s2.869,3.41,6.407,3.41,6.406-1.526,6.406-3.41S406.714,494.883,403.174,494.883Z" transform="translate(-326.471 -455.813)"/><path class="b" d="M397.625,486.32s-.6,3.176.6,9.923,2.81,14.483,2.81,14.483,1.006-8.728.41-14.283A24.232,24.232,0,0,0,397.625,486.32Z" transform="translate(-324.739 -476.743)"/><path class="b" d="M402.418,499.563a43.973,43.973,0,0,1,18.658-5.525c10.123-.4,23.025,3.572,23.025,3.572s-16.277-2.115-23.025-1.454S402.418,499.563,402.418,499.563Z" transform="translate(-312.659 -457.947)"/><path class="b" d="M382.347,497.476a44,44,0,0,1,19.037-4.044c10.123.4,22.674,5.37,22.674,5.37s-16.061-3.386-22.842-3.258S382.347,497.476,382.347,497.476Z" transform="translate(-361.718 -459.422)"/><path class="b" d="M399.29,498.268a46.848,46.848,0,0,0-.375,12.62,55.9,55.9,0,0,0,3.1,12.506s-.158-6.854-.4-15.086C401.419,501.161,399.29,498.268,399.29,498.268Z" transform="translate(-321.789 -447.539)"/></g><g class="h" transform="translate(130.065 125.038)"><path class="f" d="M555.768,552.395l-60.792,35.1c-4.633,2.673-12.8,2.335-18.144-.754l-67.766-39.124c-5.349-3.086-5.935-7.8-1.3-10.478l60.792-35.1c4.632-2.673,12.8-2.335,18.144.751l67.766,39.127C559.815,545.007,560.4,549.722,555.768,552.395Z" transform="translate(-404.639 -500.24)"/><path class="g" d="M539.172,546.683l-52.953,30.575c-4.037,2.328-11.149,2.032-15.809-.658l-59.028-34.078c-4.66-2.69-5.17-6.8-1.133-9.127L463.2,502.82c4.037-2.328,11.149-2.032,15.806.658l59.032,34.078C542.7,540.246,543.209,544.355,539.172,546.683Z" transform="translate(-397.583 -497.769)"/><ellipse class="d" cx="6.406" cy="3.408" rx="6.406" ry="3.408" transform="translate(70.297 39.07)"/><path class="b" d="M425.906,503.02s-.6,3.176.6,9.923,2.811,14.483,2.811,14.483,1.006-8.728.41-14.283A24.181,24.181,0,0,0,425.906,503.02Z" transform="translate(-353.02 -493.443)"/><path class="b" d="M430.7,516.263a43.975,43.975,0,0,1,18.658-5.525c10.123-.4,23.025,3.572,23.025,3.572s-16.277-2.115-23.025-1.454S430.7,516.263,430.7,516.263Z" transform="translate(-340.94 -474.647)"/><path class="b" d="M410.628,514.176a43.992,43.992,0,0,1,19.037-4.044c10.123.4,22.674,5.37,22.674,5.37s-16.061-3.386-22.843-3.258S410.628,514.176,410.628,514.176Z" transform="translate(-389.999 -476.121)"/><path class="b" d="M427.571,514.968a46.847,46.847,0,0,0-.375,12.62,55.819,55.819,0,0,0,3.107,12.506s-.162-6.854-.4-15.086C429.7,517.861,427.571,514.968,427.571,514.968Z" transform="translate(-350.07 -464.239)"/></g><path class="d" d="M481.693,498.268s-26.452,12.31-42.2,21.4S400.98,546.03,400.98,546.03s25.574-15.355,40.725-23.352S481.693,498.268,481.693,498.268Z" transform="translate(-283.516 -380.021)"/><g transform="translate(92.492 2.84)"><path class="i" d="M405.606,523.483c.2,8.328,8.952,17.063,12.461,19.849,7.1,5.628,15.052,9.544,22.925,14,8.359,4.729,23.5,8.855,35.073,3.592,7.8-3.544,10.078-14.029,10.436-18.675.393-5.077-.861-9.733-1.585-14.68,6.19-1.274,9.065-3.127,8.228-5.559-.923-2.68-3.231-2.986-8.976-2.848-.813-6.8-2.959-10.422-6.513-15.678-2.752-1.843-5.607-3.565-8.232-5.311-12.475-8.294-25.481-16.081-38.38-23.693-5.259-3.1-15.361-7.426-21.489-7.381a9.318,9.318,0,0,0-7.281-2.228c-5.166.861-6,5.5-3.7,8.717-2.928,5.284-4.949,25.939-4.846,29.307a67.417,67.417,0,0,0,1.471,9.72A31.023,31.023,0,0,0,405.606,523.483Z" transform="translate(-393.73 -464.761)"/><path class="j" d="M395.122,507.091c1.1,2.876,5.9,3.224,8.773,2.563,8.9,13.415,23.931,24.62,38.266,30.775,8.37,3.592,30.144,8.349,39.554,6.489,1.929,3.871,6.258,6.017,8.569,4.495,3.141-2.073,2.07-5.235,1.509-8.277,2.872-2.253,6.489-3.8,8.821-19.078.837-5.483.617-21.027-3.692-25.243,1.288-1.722,3.565-6.847,1.64-8.91-2.432-2.611-7.385-2.359-10.154-2.256-2.432-4.8-6.961-8.411-11.8-11.645,3.555,5.256,5.7,8.876,6.513,15.678,5.745-.138,8.053.169,8.976,2.848.837,2.432-2.039,4.285-8.228,5.559.724,4.946,1.977,9.6,1.584,14.68-.358,4.646-2.635,15.131-10.436,18.675-11.576,5.263-26.714,1.137-35.073-3.592-7.874-4.453-15.83-8.37-22.925-14-3.51-2.786-12.258-11.521-12.461-19.849a31.023,31.023,0,0,1-10.4-10.87c.927,4.543,2.153,9.734,3.276,14.411C396.662,502.08,393.831,503.716,395.122,507.091Z" transform="translate(-392.684 -437.282)"/><path class="j" d="M400.6,466.967a4.155,4.155,0,0,0-3.148-1.378.457.457,0,0,0-.317.771,17.069,17.069,0,0,1,2.776,2.687c.372.544,1.178,1.505,1.781.644C402.326,468.793,401.2,467.57,400.6,466.967Z" transform="translate(-385.731 -462.762)"/><path class="j" d="M399.48,467.223a5.012,5.012,0,0,0-2.831,1.808c-.465.617-1.378,2.015-.754,2.79.472.589,1.106.176,1.405-.358a7.169,7.169,0,0,1,2.611-3.221A.561.561,0,0,0,399.48,467.223Z" transform="translate(-388.954 -458.795)"/><path class="j" d="M398.258,483.334c-.379-1.081-1.185-1.894-1.553-2.99s-.186-2.253-.482-3.344a.319.319,0,0,0-.53-.138c-1.474,1.857-.186,6.262,2.08,6.958A.4.4,0,0,0,398.258,483.334Z" transform="translate(-390.473 -435.42)"/><path class="j" d="M400.861,485.393c-.479-1.085-1.316-1.939-1.75-3.072-.4-1.044-.427-2.166-.792-3.207a.273.273,0,0,0-.492-.065c-1.55,2.125-.065,6.386,2.287,7.319C400.716,486.609,401.067,485.855,400.861,485.393Z" transform="translate(-385.272 -430.147)"/><path class="j" d="M418.879,487.873a.351.351,0,0,0-.592.245c-.12,1.257.234,2.4-.1,3.678-.283,1.078-1.071,1.915-1.157,3.038a.562.562,0,0,0,.706.537C420.174,494.607,420.611,489.485,418.879,487.873Z" transform="translate(-336.784 -408.51)"/><path class="j" d="M421.761,493.34a23.066,23.066,0,0,1-4.047-.4,18.458,18.458,0,0,1-3.606-1.843.292.292,0,0,0-.424.327c.868,3.048,5.776,4.856,8.37,2.993A.582.582,0,0,0,421.761,493.34Z" transform="translate(-344.984 -400.482)"/><path class="k" d="M418.738,472.231c-5.48-2.335-13.5-6.083-18.954-2.439-9.723,6.5,3.7,21.475,10.726,25.216,7.243,3.858,28.278,12.172,31.529-1.484C444.106,484.83,421.577,473.436,418.738,472.231Z" transform="translate(-387.275 -456.184)"/></g><g transform="translate(190.975 60.153)"><path class="i" d="M434.2,540.123c.2,8.325,8.952,17.06,12.461,19.846,7.092,5.628,15.048,9.548,22.925,14,8.356,4.725,23.5,8.852,35.073,3.592,7.8-3.544,10.074-14.032,10.436-18.678.393-5.077-.861-9.73-1.584-14.676,6.189-1.278,9.065-3.131,8.228-5.559-.923-2.68-3.231-2.986-8.976-2.852-.813-6.8-2.962-10.422-6.513-15.678-2.756-1.843-5.607-3.565-8.232-5.311-12.475-8.29-25.481-16.081-38.38-23.693-5.263-3.1-15.361-7.422-21.492-7.378a9.3,9.3,0,0,0-7.278-2.228c-5.17.861-6.007,5.5-3.7,8.717-2.928,5.28-4.953,25.935-4.849,29.3a67.43,67.43,0,0,0,1.474,9.72A31.062,31.062,0,0,0,434.2,540.123Z" transform="translate(-422.323 -481.401)"/><path class="j" d="M423.716,523.734c1.1,2.876,5.9,3.22,8.769,2.562,8.9,13.412,23.934,24.62,38.269,30.771,8.37,3.592,30.144,8.349,39.551,6.492,1.932,3.871,6.262,6.014,8.569,4.491,3.145-2.073,2.073-5.235,1.512-8.277,2.869-2.253,6.489-3.792,8.821-19.078.833-5.48.613-21.024-3.692-25.243,1.285-1.722,3.565-6.844,1.639-8.91-2.432-2.607-7.384-2.359-10.154-2.256-2.435-4.8-6.961-8.408-11.8-11.645,3.551,5.256,5.7,8.876,6.513,15.678,5.745-.134,8.053.172,8.976,2.852.837,2.428-2.039,4.281-8.228,5.559.723,4.946,1.977,9.6,1.584,14.676-.362,4.646-2.638,15.134-10.436,18.678-11.576,5.259-26.717,1.133-35.073-3.592-7.877-4.453-15.833-8.373-22.925-14-3.51-2.786-12.258-11.521-12.461-19.846a31.062,31.062,0,0,1-10.4-10.874c.926,4.547,2.153,9.737,3.272,14.411C425.253,518.719,422.421,520.355,423.716,523.734Z" transform="translate(-421.274 -453.925)"/><path class="j" d="M429.2,483.606a4.168,4.168,0,0,0-3.148-1.378.458.458,0,0,0-.32.771,17.09,17.09,0,0,1,2.78,2.687c.369.548,1.178,1.509,1.781.644C430.917,485.431,429.791,484.209,429.2,483.606Z" transform="translate(-414.322 -479.404)"/><path class="j" d="M428.074,483.863a5.026,5.026,0,0,0-2.835,1.8c-.462.62-1.374,2.015-.751,2.793.472.589,1.106.172,1.4-.362a7.206,7.206,0,0,1,2.611-3.217A.56.56,0,0,0,428.074,483.863Z" transform="translate(-417.545 -475.435)"/><path class="j" d="M426.849,499.975c-.375-1.082-1.182-1.894-1.55-2.993s-.186-2.253-.482-3.341a.32.32,0,0,0-.531-.141c-1.478,1.857-.186,6.262,2.08,6.957A.393.393,0,0,0,426.849,499.975Z" transform="translate(-419.065 -452.062)"/><path class="j" d="M429.455,502.035c-.482-1.088-1.316-1.939-1.75-3.076-.4-1.044-.431-2.163-.792-3.207a.275.275,0,0,0-.493-.065c-1.55,2.125-.065,6.386,2.287,7.323C429.31,503.247,429.658,502.493,429.455,502.035Z" transform="translate(-413.862 -446.788)"/><path class="j" d="M447.473,504.512a.352.352,0,0,0-.592.245c-.121,1.257.234,2.4-.1,3.679-.282,1.078-1.071,1.918-1.157,3.038a.56.56,0,0,0,.706.537C448.768,511.246,449.205,506.124,447.473,504.512Z" transform="translate(-365.375 -425.152)"/><path class="j" d="M450.357,509.978a22.762,22.762,0,0,1-4.05-.4,18.645,18.645,0,0,1-3.606-1.846.293.293,0,0,0-.424.327c.868,3.048,5.776,4.857,8.373,2.993A.583.583,0,0,0,450.357,509.978Z" transform="translate(-373.577 -417.124)"/><path class="k" d="M447.333,488.868c-5.483-2.335-13.5-6.079-18.954-2.438-9.723,6.5,3.7,21.479,10.722,25.216,7.247,3.861,28.281,12.176,31.529-1.484C472.7,501.468,450.167,490.077,447.333,488.868Z" transform="translate(-415.865 -472.825)"/></g><g transform="translate(216.611 130.793)"><path class="b" d="M531.024,512.17a32.65,32.65,0,0,0-6.672-7.509,12.356,12.356,0,0,0-8.208-2.731l-.127.152a5.206,5.206,0,0,0-3.923.737L437.23,546.041c-4.106,2.37-7.464,8.79-7.464,14.263v60.554a8.947,8.947,0,0,0,.84,4l-.021.034a12.368,12.368,0,0,0,5.652,6.623c7.243,4.192,10.639,3.231,10.639,3.231l.871-14.314h0l64.346-37.15c4.105-2.37,7.467-8.79,7.467-14.263V521.535Z" transform="translate(-429.766 -501.91)"/><path class="d" d="M440.745,628.622,515.613,585.4c4.106-2.373,7.464-8.79,7.464-14.266v-60.55c0-5.476-3.358-8.015-7.464-5.645l-74.868,43.226c-4.105,2.37-7.464,8.786-7.464,14.263v60.55C433.281,628.454,436.639,630.992,440.745,628.622Z" transform="translate(-421.174 -496.68)"/></g><path class="c" d="M439,543.871c-.393-1.3-1.385-2.149-2-3.348a7.736,7.736,0,0,1-.734-2.1,11.874,11.874,0,0,0-.3-2.166.572.572,0,0,0-1.03-.134c-.951,1.361-.362,3.765.214,5.18.623,1.54,1.6,3.069,3.358,3.217A.513.513,0,0,0,439,543.871Z" transform="translate(-201.737 -288.149)"/><path class="c" d="M442.985,538.842a5.312,5.312,0,0,0-3.024-1.688,7.678,7.678,0,0,0-3.61-.393.4.4,0,0,0-.093.72c.975.51,2.039.765,3.055,1.178a10.166,10.166,0,0,0,3.093,1.191A.673.673,0,0,0,442.985,538.842Z" transform="translate(-197.752 -286.133)"/><path class="c" d="M456.347,506.46a.349.349,0,0,0-.055.42c.458.761,1.546,1.009,2.28,1.457.94.572,1.653,1.491,2.638,1.97a.73.73,0,0,0,1.057-.813C461.982,507.6,458.055,504.875,456.347,506.46Z" transform="translate(-148.432 -361.161)"/><path class="c" d="M461.186,508.9a.476.476,0,0,0-.913,0,10.788,10.788,0,0,1-1.161,3.041,19.589,19.589,0,0,0-1.781,2.469c-.148.352.007.958.51.889C460.521,514.944,461.662,511.2,461.186,508.9Z" transform="translate(-145.907 -354.858)"/><path class="c" d="M458.474,522.443a.437.437,0,0,0-.854.117,43.621,43.621,0,0,1-.372,4.963,11.758,11.758,0,0,0-.475,3.709.683.683,0,0,0,1.137.3C459.621,529.345,459.215,524.967,458.474,522.443Z" transform="translate(-147.249 -321.684)"/><path class="c" d="M457.7,528c-.623-1.047-1.237-2.111-1.943-3.1-.265-.375-.957-.165-.792.334.362,1.1.827,2.163,1.274,3.227a7.451,7.451,0,0,0,1.516,2.824c.406.365,1.257.151,1.2-.5A6.769,6.769,0,0,0,457.7,528Z" transform="translate(-151.629 -315.398)"/><path class="c" d="M458.307,528.862c-.889-.248-1.836-.148-2.735-.4a18.469,18.469,0,0,1-2.549-1.34c-.251-.11-.665.01-.623.358.279,2.315,4.174,4.143,6.079,2.683A.722.722,0,0,0,458.307,528.862Z" transform="translate(-157.838 -309.597)"/><path class="c" d="M376.442,482.127c-2.139,1-5.111,4.3-4.24,6.878a.65.65,0,0,0,1.171.155c.665-.978.747-2.263,1.305-3.31a11.906,11.906,0,0,1,2.359-2.948C377.462,482.489,376.928,481.9,376.442,482.127Z" transform="translate(-354.237 -419.598)"/><path class="c" d="M379.463,487.187c-1.24-.406-2.614-.182-3.892-.537a32.144,32.144,0,0,1-3.5-1.6.445.445,0,0,0-.548.544c1.006,2.508,5.742,4.6,8.118,2.945A.752.752,0,0,0,379.463,487.187Z" transform="translate(-355.573 -412.386)"/><path class="c" d="M378.044,480.147a28.791,28.791,0,0,0-1.753,3.975,23.6,23.6,0,0,0-1.722,4.553.814.814,0,0,0,1.481.623,14.626,14.626,0,0,0,1.715-4.433,17.351,17.351,0,0,0,.847-4.564A.308.308,0,0,0,378.044,480.147Z" transform="translate(-348.109 -424.668)"/><path class="c" d="M374.074,494.057c-.3-1.02-.289-2.2-.975-3.048-.141-.176-.386-.079-.5.065-.723.944-.42,2.356-.213,3.448.231,1.2.592,2.793,1.581,3.582.458.369,1.381.193,1.312-.544C375.172,496.338,374.418,495.239,374.074,494.057Z" transform="translate(-353.994 -397.995)"/><path class="d" d="M372.09,504.93c-.541-.937-1.54-1.5-2.115-2.435a23.221,23.221,0,0,1-1.285-2.886.387.387,0,0,0-.665,0c-1.1,2.228.692,6.42,3.417,6.448A.754.754,0,0,0,372.09,504.93Z" transform="translate(-364.864 -377.204)"/><path class="d" d="M435.857,543.272c-.482-1.147-1.553-1.894-2.232-2.928a39,39,0,0,1-1.667-3.544c-.348-.661-1.254-.289-1.305.355a7.309,7.309,0,0,0,1.326,4.15c.679,1.106,1.667,2.566,3.028,2.817C435.458,544.205,436.081,543.806,435.857,543.272Z" transform="translate(-211.018 -286.688)"/><path class="d" d="M458.878,501.149a9.378,9.378,0,0,0-2.969-3.7.307.307,0,0,0-.448.344,25.359,25.359,0,0,0,1.832,3.968c.61,1.326.916,2.845,1.96,3.9a.516.516,0,0,0,.858-.227C460.376,503.88,459.612,502.492,458.878,501.149Z" transform="translate(-150.374 -382.12)"/><path class="d" d="M458.989,497.5c-.159-.362-.692-.152-.7.19-.038,1.522.182,3.034.12,4.557a23.235,23.235,0,0,1-1.033,4.564.668.668,0,0,0,1.106.644C461.2,505.253,460.187,500.259,458.989,497.5Z" transform="translate(-145.721 -382.352)"/><path class="l" d="M377.521,508.384c-.589-.937-1.467-1.643-2.06-2.594a32.19,32.19,0,0,1-1.385-2.966c-.179-.375-.685-.152-.716.193-.176,2.1,1.305,5.318,3.255,6.272C377.173,509.562,377.9,508.984,377.521,508.384Z" transform="translate(-351.062 -369.358)"/><path class="l" d="M375.2,503.53c-.234-.041-.482.255-.258.444.913.772,1.943,1.374,2.8,2.225s1.543,1.85,2.456,2.656a.4.4,0,0,0,.658-.386C380.286,506.144,377.524,503.926,375.2,503.53Z" transform="translate(-347.379 -367.169)"/><path class="l" d="M425.8,529.479c-1.209.062-2.352.5-3.579.5a21.944,21.944,0,0,1-3.878-.637.39.39,0,0,0-.375.644c1.9,1.9,6.182,2.3,8.28.568A.638.638,0,0,0,425.8,529.479Z" transform="translate(-242.27 -304.074)"/><path class="l" d="M422.019,528.961c-.434-.482-1.405.024-1.14.661a24.381,24.381,0,0,1,1.285,3.369,35.138,35.138,0,0,0,.617,3.565.777.777,0,0,0,1.484,0C425.129,534.265,423.552,530.666,422.019,528.961Z" transform="translate(-234.988 -305.467)"/><path class="l" d="M432.678,532.665a12.349,12.349,0,0,0-3.072-1.226,22.008,22.008,0,0,0-3.193-1.257.248.248,0,0,0-.275.362c.892,1.994,4.257,3.782,6.4,3.2A.6.6,0,0,0,432.678,532.665Z" transform="translate(-222.091 -302.031)"/><path class="l" d="M433.945,532.829c-1.088-.6-2.373.076-3.531.231-1.55.207-3.107.01-4.66.127a.328.328,0,0,0-.165.606,7.487,7.487,0,0,0,4.684,1.147c1.264-.038,3.282-.072,3.861-1.4A.536.536,0,0,0,433.945,532.829Z" transform="translate(-223.737 -296.136)"/><path class="l" d="M430.874,537.579a9.41,9.41,0,0,0-3.479-3.741c-.348-.241-.672.214-.527.527a9.51,9.51,0,0,0,3.017,3.971C430.347,538.619,431.1,538.137,430.874,537.579Z" transform="translate(-220.325 -293.243)"/></g><g transform="translate(351.547 449.9)"><path class="j" d="M394.9,514.328c2.979-2.583,6.09-8.4,8.249-11.49.028-5.253-8.249-18.214-13.842-24.1,1.281-3.858-.63-10.209-3.52-14.018s-8.418-6.637-8.418-6.637L367.2,464.723S380.795,508.762,394.9,514.328Z" transform="translate(-313.287 -429.892)"/><path class="m" d="M373.86,510.276a37.646,37.646,0,0,1-1.192,5.642c-.861,2.886.2,6.909.2,6.909a4.158,4.158,0,0,0,3.3,2.3,10.35,10.35,0,0,0,4.5-.11,33.291,33.291,0,0,0,5.645,5.221c3.2,2.266,10.257,4.023,12.179,3.73,3.1-.472,4.757-2.886,4.519-4.443s-3.889-5.873-6.882-7.739a61.664,61.664,0,0,1-7.694-6.744,37.015,37.015,0,0,1-3.816-4.974Z" transform="translate(-300.745 -302.838)"/><path class="m" d="M387.544,474.415s8.969,22.88,10.36,32.142,4.182,23.28,5.852,34.946a161.95,161.95,0,0,1,.871,34.429c-.31,4.522-1.96,16.34-1.088,22.763-.982,4.174-10.767,4.695-11.928-.155-.72-3.01-8.232-29.659-8.993-38.042a39.067,39.067,0,0,1,1.223-14.39s-12.217-26.163-16.5-36.454-1.371-23.049-1.371-23.049Z" transform="translate(-318.662 -389.979)"/><path class="m" d="M360.445,516.944s-1.653,6.145-1.447,9.7,1.054,4.405,2.132,5.6a2.131,2.131,0,0,0,2.335.682s.5,7.333,3.971,10.3,9.782,3.245,12.675,2.17.992-6.327-1.839-11.476-6.448-10.687-7.35-15.341C363.989,517.626,360.445,516.944,360.445,516.944Z" transform="translate(-333.377 -286.026)"/><path class="n" d="M371.219,477.951s-4.391,6.213-7.894,17.139c-2.459,7.684-2.06,26.111-2.06,26.111s-.634,18.141.537,24.413,1.071,7.546,1.071,7.546a101.379,101.379,0,0,0-4.261,32.827c.778,17.786,2.228,30.544,2.228,30.544s.992,3.365,5.559,3.83a9.939,9.939,0,0,0,7.2-2.463s7.629-37.66,10.457-46.243a102.957,102.957,0,0,0,3.868-18.475L393.7,510.9s11.428-7.46,5.569-26.276C395.6,472.836,371.219,477.951,371.219,477.951Z" transform="translate(-334.476 -384.036)"/><path class="k" d="M379.655,462.575c2.37-.747,11.659-3.754,12.586-3.3,6.651,3.3,14.173,16.216,15.145,24.964.4,3.62-.293,20.087-2.449,25.877,3.138,1.409,2.6,4.271,1.261,6.027,1.281,1.746,2.163,2.067,2.842,3.754,1.309,3.251-.437,4.794-2.7,7.24-3.313,3.572-9.079,6.462-18.547,7.774-10.96,1.516-19.374-3.045-22.777-7.581-.8-1.071-.661-3.878,1.739-5.407-1.829-5.552-3.186-16.14-4.974-22.8-2.69-10.026-5.339-21.95.465-29.521C364.793,466.284,374.485,464.273,379.655,462.575Z" transform="translate(-333.878 -427.092)"/><g transform="translate(23.29 31.029)"><path class="o" d="M393.51,462.243a61.481,61.481,0,0,1,6.234,9.165,32.7,32.7,0,0,1,3.193,10.14l-16.068,8.714s-5.673-9.8-9.761-14.669c-4.457-5.3-7.674-8.735-7.674-8.735l-2.8,1.188a145.1,145.1,0,0,1,8.563,12.775c1.3,2.4,5.8,9.444,6.882,15.275.417,2.249-.954,14.965-1.794,21.582-1.495,11.79-14.535,9.358-14.535,9.358s-3.3,6.238-5.831,19.264c-1.85,9.516-.214,19.629,0,34.1a198.144,198.144,0,0,1-1.609,24.392s22,5.656,33.5,3.7a73.782,73.782,0,0,0,27.782-10.88,21.664,21.664,0,0,0,7.388-7.963s-5.57-21.031-10.626-41.183c-3.431-13.677-4.14-21.417-5.91-30.788a197.65,197.65,0,0,1-2.621-26.821c-.117-8.211-4.312-20.938-7.033-25.136-3.741-5.779-6.985-6.813-6.985-6.813Z" transform="translate(-358.309 -458.909)"/><path class="p" d="M383.529,479.4c-.926.048-5.339,3.785-10.147,4.474a14.994,14.994,0,0,1-9.806-1.419,29.842,29.842,0,0,0,9.558-.754C378.032,480.411,383.529,479.4,383.529,479.4Z" transform="translate(-345.435 -408.836)"/><path class="p" d="M382.231,475.677a24.262,24.262,0,0,1-14.814,9.565s4.133-3.245,6.723-5.287S382.231,475.677,382.231,475.677Z" transform="translate(-336.047 -417.923)"/><path class="p" d="M365.949,488.923s4.192,11.18,7.943,21.024c2.108,5.528,5.428,13.1,5.428,13.1s-4.484-2.469-8.314-10.9C366.831,502.955,365.949,488.923,365.949,488.923Z" transform="translate(-339.635 -385.546)"/></g><path class="q" d="M369.285,456.721s8.855,6.723,11.776,11.232c4.956,7.646,5.642,9.892,1.2,14.111-11.287,1.615-17.769-5.4-19.7-11.032C365.375,469.479,369.285,456.721,369.285,456.721Z" transform="translate(-324.633 -433.228)"/><path class="j" d="M366.493,460.049s1.278,5.866,5.108,8.748c4.622,3.479,13.316,4.05,13.316,6.424-2.525,0-3.017.148-3.017,1.967,0,3.413-1.006,4.2-1.006,4.2s-7.106-2.225-11.628-4.109c-5.662-2.363-7.4-13.161-7.4-13.161S363.128,459.732,366.493,460.049Z" transform="translate(-326.33 -425.135)"/><path class="j" d="M370.791,460.353s3.668,3.988,5.242,5.824.654,5.218,1.443,6.741a20.809,20.809,0,0,1,1.137,2.549s-3.279-.661-3.913-2.549-3.909,1.519-3.909,1.519l-2.318-1.9s3.5-2.235,2.318-4.626-3.148-5.535-3.148-5.535Z" transform="translate(-312.204 -424.351)"/><path class="r" d="M388.545,465.662c-.162-3.868-1-8.724-3.975-11.487-2.938-2.728-7.987-3-11.8-2.731-5.917.417-10.081,6.958-9.034,14.525.968,6.992,5.635,17.759,13.429,19.219,3.968.744,7.04-2.232,8.859-6.045A31.4,31.4,0,0,0,388.545,465.662Z" transform="translate(-322.157 -446.323)"/><g transform="translate(64.744 13.167)"><path class="s" d="M370.346,453.761l.021-.038C370.346,453.789,370.342,453.789,370.346,453.761Z" transform="translate(-370.345 -453.723)"/></g><path class="n" d="M362.261,465.413c-.124-5.352,2.246-12.127,7.9-14.28,3.093-1.175,10.212-2.194,13.429.338a3.643,3.643,0,0,1,.913-.878,4.582,4.582,0,0,1,5.662.947,8.34,8.34,0,0,1,2,3.9c3.1-1.75,7.061,2.432,5.683,6.341-2.043,5.786-10.071,6.427-14.831,4-.692,4.739-5.4,8.748-10.247,8.855-1.05,2.521-2.965,5.728-5.99,6.289C365.967,476.162,362.248,470.724,362.261,465.413Z" transform="translate(-325.37 -449.9)"/><path class="r" d="M368.617,458.469s-1.429-3.079-3.864-1.388,1.932,6.816,1.932,6.816Z" transform="translate(-321.076 -433.588)"/><path class="p" d="M385.543,476.145a18.686,18.686,0,0,1-8.979,6.083,26.6,26.6,0,0,1-10.426,1.061s3.765-1.254,6.758-2.222S383.129,476.242,385.543,476.145Z" transform="translate(-315.883 -385.751)"/><path class="p" d="M381.873,474.883a15.185,15.185,0,0,1-7.915,6.372c-5.311,1.712-8.69.913-8.69.913s5.89-1.877,8.208-2.938S381.873,474.883,381.873,474.883Z" transform="translate(-318.01 -388.835)"/><path class="r" d="M362.879,478.458s6.279,4.918,8.039,7.395.847,6.465.534,11.208-4.818,3.52-8.466,3.058-4.505-2.222-2.359-3.058a9.04,9.04,0,0,1,4.981,0s-5.8-3.224-6.141-9.114A12.865,12.865,0,0,1,362.879,478.458Z" transform="translate(-332.246 -380.097)"/><path class="j" d="M351.829,505.329c2.211-4.991,3.193-6.527,6.861-12.541s4.626-8.118,9.182-13.97c1.588-10.343,6.524-16.612,13.174-16.918,4.044,3.083,7.044,25.488,3.086,32.352-3.169,5.5-4.787,7.04-8.039,8.917-.84,2.16-2.859,3.92-4.13,5.731,2.315,1.65,5,3.582,7.109,5.156a35.084,35.084,0,0,1,7.619,8.067,24.151,24.151,0,0,1-3.455,4.732c-2.1,2.18-3.985,4.016-3.985,4.016s-14.883-4.326-19.264-7.9a18.814,18.814,0,0,1-5.779-7.825C353.417,512.782,350.668,507.95,351.829,505.329Z" transform="translate(-351.547 -420.569)"/></g><g transform="translate(430.364 536.989)"><path class="t" d="M464.645,648.125c-.806-.7-1.509-1.319-2.066-1.825l-5.59-5.049c-15.22-13.75-29.593-26.731-52.033-48.616-12.11-11.814-23.593-28.185-25.618-67.622-1.088-21.189,5.507-40,12.351-44.263a3.683,3.683,0,0,1,4.106-.3c9.561,5.308,26.321,18.4,26.49,18.53a2.394,2.394,0,0,0,2.948-3.771c-.7-.544-17.225-13.457-27.113-18.944a8.519,8.519,0,0,0-8.962.424c-9.289,5.793-15.7,27.127-14.6,48.571,2.111,41.083,14.252,58.308,27.058,70.8,22.5,21.95,36.916,34.963,52.167,48.74l5.587,5.049c.575.52,1.3,1.154,2.125,1.877,6.479,5.68,21.658,18.971,20.559,27.885-.289,2.356-2.435,4.312-4.536,6.541a17.284,17.284,0,0,1,.041,4.529,6.6,6.6,0,0,0,1.357-.52c4.722-2.425,7.378-5.776,7.891-9.964C488.211,668.77,472.291,654.828,464.645,648.125Z" transform="translate(-374.431 -475.185)"/></g><g transform="translate(471.118 551.554)"><path class="u" d="M402.675,496.058l31.061,14.763-37.212,19.49Z" transform="translate(-361.182 -438.732)"/><path class="v" d="M403.184,495.787l31.061,14.763-37.212,19.49Z" transform="translate(-359.938 -439.395)"/><path class="u" d="M435.49,500.073l1.029,2.363-38.241,20.109-.967.429-.787-2.478Z" transform="translate(-361.182 -428.918)"/><path class="a" d="M392.108,479.414s6.286,7.081,9.782,11.742c2.222,2.962,8.638,12.041,8.638,12.041l-6.286,4.536s-6.331-9.275-8.965-12.627c-1.908-2.428-9.014-10.6-9.014-10.6S387.6,479.414,392.108,479.414Z" transform="translate(-386.263 -479.414)"/><path class="w" d="M391.544,490.942c.5.73,2.335.355,4.109-.844s2.814-2.762,2.318-3.5-2.332-.355-4.109.844S391.052,490.209,391.544,490.942Z" transform="translate(-373.655 -462.754)"/><path class="v" d="M391.89,489.578c.317.469,1.495.227,2.631-.541s1.8-1.767,1.484-2.236-1.495-.227-2.631.537S391.577,489.109,391.89,489.578Z" transform="translate(-372.699 -461.941)"/><g transform="translate(19.188 24.809)"><path class="v" d="M422.49,534.373l4.1-2.82-30.656-44.936-4.1,2.82Z" transform="translate(-391.834 -486.617)"/></g><path class="x" d="M398.278,505.731l.856,2.533-1.823.879-.787-2.478Z" transform="translate(-361.182 -415.087)"/></g><path class="j" d="M380.439,469.877a45.975,45.975,0,0,1,13.416,6.382A175.205,175.205,0,0,1,407.5,487.6l-7.064,9.458s-12.451-3.606-18.706-7.209-7.708-8.507-7.708-8.507Z" transform="translate(54.945 48.829)"/><path class="r" d="M388.694,474.566a7.2,7.2,0,0,0-6.158,2.859c-2.38,2.941-1.853,7.075.42,7.974,1.04.41,5.518,1.608,6.465,2.614s5.662,8.008,6.713,6.716c1.219-1.495-.53-2.942-1.175-4.509a3.7,3.7,0,0,1,.927-3.386c2.2,1.581,6.8,5.135,6.8,5.135s8.514-1.3,3.158-8.738c-2.053-2.848-7.567-3.331-10.505-4.319S388.694,474.566,388.694,474.566Z" transform="translate(71.95 60.235)"/><g transform="translate(406.955 664.521)"><g transform="translate(63.389 83.85)"><path class="y" d="M386.42,539.464l4.756-2.69.007.014a2.257,2.257,0,0,1,2.284.182c1.96,1.133,3.551,4.171,3.551,6.785a3.374,3.374,0,0,1-1,2.7l0,0-.017.01a1.654,1.654,0,0,1-.338.193l-4.681,2.669Z" transform="translate(-385.104 -536.557)"/><path class="n" d="M386.038,540.456c0,2.614,1.588,5.652,3.551,6.785s3.551-.072,3.551-2.686-1.591-5.652-3.551-6.785S386.038,537.839,386.038,540.456Z" transform="translate(-386.038 -534.635)"/><path class="z" d="M386.42,539.755a4.664,4.664,0,0,0,1.946,3.72c1.075.62,1.943-.038,1.943-1.471a4.665,4.665,0,0,0-1.943-3.72C387.291,537.664,386.42,538.326,386.42,539.755Z" transform="translate(-385.104 -532.905)"/></g><g transform="translate(88.246 68.977)"><path class="y" d="M394.05,535.146l4.757-2.69.007.014a2.256,2.256,0,0,1,2.284.182c1.96,1.133,3.551,4.171,3.551,6.785a3.374,3.374,0,0,1-1,2.7l0,.007-.017.01a1.8,1.8,0,0,1-.338.189l-4.681,2.673Z" transform="translate(-391.312 -532.239)"/><ellipse class="n" cx="3.084" cy="5.452" rx="3.084" ry="5.452" transform="translate(0 4.061) rotate(-23.051)"/><path class="z" d="M394.05,535.438A4.657,4.657,0,0,0,396,539.155c1.075.62,1.943-.038,1.943-1.471A4.654,4.654,0,0,0,396,533.968C394.922,533.348,394.05,534.006,394.05,535.438Z" transform="translate(-391.312 -528.584)"/></g><g transform="translate(0 40.159)"><path class="y" d="M389.1,541.762c0-6.482-3.94-14.015-8.8-16.822a8.051,8.051,0,0,0-3.844-1.068,10.707,10.707,0,0,0-5.642,1.578c-2.773,1.712-3.114,5.945-3.114,5.945l9.861,19.973a7.477,7.477,0,0,0,6.454-.227,10.145,10.145,0,0,0,3.827-3.978,14.021,14.021,0,0,0,.727-1.688A12.01,12.01,0,0,0,389.1,541.762Z" transform="translate(-367.475 -523.872)"/><path class="n" d="M367.634,532.254c0,6.482,3.944,14.015,8.807,16.822s8.8-.172,8.8-6.654-3.944-14.015-8.8-16.822S367.634,525.772,367.634,532.254Z" transform="translate(-367.634 -522.232)"/><path class="z" d="M367.94,531.227c0,4.815,2.928,10.409,6.537,12.492s6.541-.127,6.541-4.943-2.928-10.409-6.541-12.492S367.94,526.412,367.94,531.227Z" transform="translate(-366.886 -519.896)"/></g><g transform="translate(5.635 27.677)"><path class="aa" d="M373.021,533.075a8.945,8.945,0,0,0-3.751-1.25V520.248l35.7,5.053a24.742,24.742,0,0,1,9.658,1.367l53.3,7.546v26.132h0c.289,2.928-1.7,6.086-5.9,8.507l-17.294,9.985c-7.175,4.14-18.127,4.595-24.341,1.009l-39.007-22.281a14.468,14.468,0,0,0,.709-4.674C382.1,544.975,378.959,536.505,373.021,533.075Z" transform="translate(-369.27 -520.248)"/></g><g transform="translate(3.131 26.947)"><path class="j" d="M372.483,533.517a9.425,9.425,0,0,0-3.94-1.316V520.036l37.508,5.311a25.983,25.983,0,0,1,10.147,1.436l56.011,7.932v22.04h0c.3,3.076-1.791,6.4-6.193,8.938l-18.175,10.495c-7.54,4.354-19.05,4.829-25.577,1.061l-37.439-21.616s-.758-.382-1.068-.568c0-.224.007-.8,0-1.019C383.35,545.982,378.459,536.968,372.483,533.517Z" transform="translate(-368.543 -520.036)"/></g><path class="a" d="M368.554,535.493l-.01-.017v-4.085s.685.034,1.574.1a14.873,14.873,0,0,1,4.646-3.985l18.176-10.491c7.536-4.354,19.047-4.829,25.577-1.061l49.336,28.484a9.9,9.9,0,0,1,3.162,2.766l1.223-.286-.024,3.386c.282,3.065-1.812,6.372-6.2,8.9L447.841,569.7c-7.54,4.353-19.05,4.829-25.577,1.061l-49.336-28.484C369.822,540.477,368.4,538.032,368.554,535.493Z" transform="translate(-365.413 -509.291)"/><path class="z" d="M422.278,569.562l-49.336-28.484c-6.53-3.771-5.7-10.416,1.836-14.769l18.176-10.491c7.536-4.353,19.047-4.832,25.577-1.061l49.336,28.484c6.527,3.768,5.7,10.416-1.836,14.766L447.856,568.5C440.316,572.851,428.805,573.33,422.278,569.562Z" transform="translate(-365.427 -512.213)"/><g transform="translate(14.158 2.798)"><path class="aa" d="M440.215,536.45l-34.023-19.643c-4.5-2.6-12.437-2.273-17.638.73l-12.534,7.236c-2.38,1.375-3.741,3.083-4.137,4.777-.61-2.29.789-4.874,4.137-6.806l12.534-7.236c5.2-3,13.136-3.331,17.638-.73l34.023,19.643c2.442,1.409,3.341,3.4,2.873,5.4A5.7,5.7,0,0,0,440.215,536.45Z" transform="translate(-371.745 -513.025)"/><path class="j" d="M438.852,543.167,426.318,550.4c-5.2,3-13.137,3.331-17.638.73l-34.026-19.643a5.686,5.686,0,0,1-2.869-3.379c.4-1.695,1.757-3.4,4.137-4.777l12.534-7.236c5.2-3,13.136-3.331,17.638-.73l34.023,19.643a5.7,5.7,0,0,1,2.873,3.376C442.593,540.085,441.232,541.79,438.852,543.167Z" transform="translate(-371.646 -511.586)"/></g><path class="ab" d="M414.7,556.675,378.82,535.961c-4.75-2.738-4.147-7.57,1.333-10.736l13.216-7.633c5.483-3.165,13.853-3.513,18.6-.771l35.876,20.714c4.75,2.742,4.147,7.574-1.336,10.739L433.294,555.9C427.815,559.069,419.442,559.417,414.7,556.675Z" transform="translate(-348.124 -505.467)"/><path class="ac" d="M411.791,552.127,379.9,533.717c-4.219-2.439-3.685-6.734,1.188-9.547l11.745-6.782c4.874-2.811,12.313-3.12,16.533-.685l31.887,18.413c4.223,2.435,3.689,6.73-1.185,9.544l-11.748,6.782C423.453,554.255,416.014,554.562,411.791,552.127Z" transform="translate(-344.6 -505.252)"/><path class="ab" d="M413.641,522.195a30.6,30.6,0,0,0-12.369,4.3,117.548,117.548,0,0,0-11.876,9.671l-1.918-1.1s7-7.305,12.4-10.281a37.564,37.564,0,0,1,11.89-3.761Z" transform="translate(-319.13 -490.691)"/><path class="ab" d="M411.428,520.93a30.6,30.6,0,0,0-12.368,4.3A117.8,117.8,0,0,0,387.18,534.9l-1.915-1.1s7-7.305,12.392-10.278a37.533,37.533,0,0,1,11.893-3.764Z" transform="translate(-324.539 -493.784)"/><path class="ab" d="M409.214,519.621a30.542,30.542,0,0,0-12.368,4.3,117.557,117.557,0,0,0-11.876,9.672l-1.919-1.1s7-7.305,12.4-10.281a37.624,37.624,0,0,1,11.89-3.765Z" transform="translate(-329.951 -496.99)"/><path class="ab" d="M407,518.354a30.6,30.6,0,0,0-12.368,4.3,117.789,117.789,0,0,0-11.879,9.672l-1.915-1.1s7-7.305,12.393-10.281a37.579,37.579,0,0,1,11.893-3.761Z" transform="translate(-335.36 -500.08)"/><path class="ab" d="M404.787,517.094a30.545,30.545,0,0,0-12.368,4.3,117.571,117.571,0,0,0-11.876,9.672l-1.919-1.1s7-7.305,12.4-10.281a37.629,37.629,0,0,1,11.89-3.764Z" transform="translate(-340.771 -503.167)"/><path class="a" d="M388.988,538.38l-15.122-8.73v-4.206l15.122,8.73Z" transform="translate(-352.4 -479.872)"/><path class="a" d="M388.988,538.155l-15.122-8.73v-2.1l15.122,8.73Z" transform="translate(-352.4 -475.282)"/><g transform="translate(17.08 4.828)"><path class="n" d="M378.081,515.163c-.865,0-1.564.372-1.564.834s.7.83,1.564.83,1.564-.372,1.564-.83S378.945,515.163,378.081,515.163Z" transform="translate(-363.002 -509.828)"/><path class="n" d="M379.412,514.385c-.861,0-1.564.372-1.564.83s.7.834,1.564.834,1.564-.372,1.564-.834S380.276,514.385,379.412,514.385Z" transform="translate(-359.748 -511.73)"/><path class="n" d="M374.153,517.34c-.861,0-1.56.372-1.56.83s.7.834,1.56.834,1.564-.372,1.564-.834S375.018,517.34,374.153,517.34Z" transform="translate(-372.593 -504.507)"/><path class="n" d="M375.494,516.569c-.861,0-1.564.372-1.564.83s.7.83,1.564.83,1.564-.372,1.564-.83S376.358,516.569,375.494,516.569Z" transform="translate(-369.325 -506.391)"/><path class="n" d="M376.822,515.79c-.861,0-1.56.372-1.56.834s.7.83,1.56.83,1.564-.372,1.564-.83S377.687,515.79,376.822,515.79Z" transform="translate(-366.069 -508.295)"/><path class="n" d="M380.75,513.614c-.865,0-1.564.372-1.564.83s.7.83,1.564.83,1.564-.372,1.564-.83S381.614,513.614,380.75,513.614Z" transform="translate(-356.478 -513.614)"/></g><path class="n" d="M391.352,515.493,379.91,522.1l-2.415-1.395,11.442-6.606Z" transform="translate(-343.534 -507.601)"/><path class="n" d="M387.4,517.816l-11.442,6.606-2.415-1.395,11.442-6.606Z" transform="translate(-353.189 -501.924)"/></g><g transform="translate(491.016 723.207)"><path class="n" d="M399.011,529.7l0,.007a2.476,2.476,0,0,0-2.914.024c-2.239,1.292-4.054,4.76-4.054,7.746a3.585,3.585,0,0,0,1.381,3.238l-.01.017,3.169,1.939,5.29-11.263Z" transform="translate(-392.04 -529.251)"/><path class="ad" d="M401.052,533.353c0,2.983-1.815,6.451-4.057,7.746s-4.054-.079-4.054-3.065,1.815-6.455,4.054-7.746S401.052,530.367,401.052,533.353Z" transform="translate(-389.838 -527.908)"/></g><g transform="translate(496.634 728.553)"><path class="t" d="M420.991,560.223h-.231c-3.572-.072-6.861-1.863-9.782-5.325a73.744,73.744,0,0,1-4.615-6.341c-3.052-4.516-6.207-9.186-11.759-13.46a2.393,2.393,0,0,1,2.921-3.792c6.165,4.746,9.7,9.968,12.806,14.573a69.717,69.717,0,0,0,4.312,5.935c2.018,2.394,4.05,3.579,6.213,3.62l.131,0c4.34,0,9.01-4.488,12.606-8.411a2.394,2.394,0,1,1,3.53,3.234C432.6,555.2,427.156,560.223,420.991,560.223Z" transform="translate(-393.671 -530.804)"/></g></g></svg>