<svg xmlns="http://www.w3.org/2000/svg" width="316" height="353.99" viewBox="0 0 316 353.99"><defs><style>.a{fill:#ff61ad;}.b{fill:#ff85c5;}.c{fill:#3f2a28;}.d{fill:#fff;}.e{fill:#ceb7b6;}.f{fill:#dec9c5;}.g{fill:#f4ebea;}.h{fill:#ddc9c7;}.i,.o{fill:#ffb600;}.j{fill:#493130;}.k{fill:#fed517;}.l{fill:#fde01a;}.m{fill:#8da3ff;}.n{fill:#a9beff;}.o{opacity:0.5;}.p{fill:#778dfd;}.q{fill:#edd9d9;}.r{fill:#efa500;}</style></defs><g transform="translate(-76.8 -448.521)"><g transform="translate(76.8 448.521)"><g transform="translate(0 32.946)"><g transform="translate(0 60.133)"><path class="a" d="M76.8,511.444V474.976h69.091v83.333C109.38,574.62,98.336,533.874,76.8,511.444Z" transform="translate(-76.8 -474.976)"/><path class="b" d="M111.344,598.989c-19.077,0-34.544-8.226-34.544-18.377V485.341c21.536,22.43,32.58,63.176,69.091,46.865v48.406C145.891,590.763,130.424,598.989,111.344,598.989Z" transform="translate(-76.8 -448.873)"/></g><g transform="translate(13.76 95.792)"><path class="c" d="M80.711,499.7a56.021,56.021,0,0,0,20.783,3.782c19.08,0,34.547-8.226,34.547-18.373V539.1c0,10.147-15.467,18.373-34.547,18.373A56.1,56.1,0,0,1,80.711,553.7Z" transform="translate(-80.711 -485.111)"/></g><g transform="translate(23.137 103.993)"><path class="d" d="M83.376,504.731a60.375,60.375,0,0,0,11.407,1.084c19.08,0,34.547-8.226,34.547-18.373v9.609c0,10.147-15.467,18.373-34.547,18.373a60.385,60.385,0,0,1-11.407-1.084Z" transform="translate(-83.376 -487.442)"/></g><path class="b" d="M78.313,484.7l-.035-.018a16.262,16.262,0,0,1,.964-1.569c.179-.25.345-.5.549-.742,2.488-3.367,8.409-9.605,20.076-12.824,4.043-1.115,6.351-.074,7.575,2.083,1.3-.077,2.565-.211,3.905-.211,1.365,0,2.663.134,3.986.218,1.224-2.164,3.532-3.205,7.579-2.09,16.413,4.525,21.592,15.136,21.592,15.136l-.113.046a10.662,10.662,0,0,1,1.5,5.067c0,10.15-15.467,18.377-34.544,18.377S76.8,499.944,76.8,489.793A10.707,10.707,0,0,1,78.313,484.7Z" transform="translate(-76.8 -429.66)"/><path class="a" d="M101.665,468.7c11.614,0,21.026,5.007,21.026,11.185s-9.412,11.181-21.026,11.181-21.022-5.007-21.022-11.181S90.055,468.7,101.665,468.7Z" transform="translate(-67.122 -430.659)"/><g transform="translate(17.856)"><g transform="translate(0.004 30.371)"><path class="e" d="M115.252,466.517v13.771c0,1.625-1.045,3.065-2.477,4.377V474.092c0-.654-.4-.961-.894-.676a2.147,2.147,0,0,0-.894,1.706v10.949a19.187,19.187,0,0,1-4.954,2.048V477.34a1.033,1.033,0,1,0-2.065,0v11.245a29.2,29.2,0,0,1-4.862.524V477.976a1.033,1.033,0,0,0-2.065,0V489a30.245,30.245,0,0,1-5.01-.549V476.9a1.033,1.033,0,0,0-2.065,0v10.819a17.645,17.645,0,0,1-4.131-1.882v-10.71a2.147,2.147,0,0,0-.894-1.706c-.493-.285-.894.021-.894.676v10.334a6.051,6.051,0,0,1-2.171-4.138V466.517Z" transform="translate(-81.876 -466.517)"/><path class="f" d="M87.217,469.481a1.035,1.035,0,0,1,1.034,1.031v11.132c-.19,0-.352.056-.542.056-.542,0-1-.137-1.523-.162V470.512A1.035,1.035,0,0,1,87.217,469.481Z" transform="translate(-71.022 -459.052)"/><path class="f" d="M89.186,469.3a1.036,1.036,0,0,1,1.034,1.034v10.78c-.676.183-1.341.331-2.065.464V470.333A1.035,1.035,0,0,1,89.186,469.3Z" transform="translate(-66.063 -459.511)"/><path class="f" d="M85.209,469.174A1.035,1.035,0,0,1,86.24,470.2v11.558a20.366,20.366,0,0,1-2.065-.739V470.2A1.035,1.035,0,0,1,85.209,469.174Z" transform="translate(-76.086 -459.826)"/><path class="f" d="M83.387,468.554a2.147,2.147,0,0,1,.894,1.706v10.71a11.208,11.208,0,0,1-1.787-1.407V469.23C82.493,468.576,82.894,468.269,83.387,468.554Z" transform="translate(-80.322 -461.655)"/><path class="f" d="M91.044,468.554c.493-.285.894.021.894.676V479.8a11.162,11.162,0,0,1-1.787,1.407V470.261A2.147,2.147,0,0,1,91.044,468.554Z" transform="translate(-61.039 -461.655)"/></g><path class="g" d="M98.566,463.994c9.215,0,16.688,3.976,16.688,8.877s-7.473,8.877-16.688,8.877-16.691-3.972-16.691-8.877S89.348,463.994,98.566,463.994Z" transform="translate(-81.875 -442.5)"/><path class="e" d="M95.579,463.994c6.945,0,12.575,2.994,12.575,6.689s-5.629,6.692-12.575,6.692S83,474.377,83,470.682,88.63,463.994,95.579,463.994Z" transform="translate(-79.039 -442.5)"/><path class="e" d="M85.989,459.284,83,482.547h25.154l-3.665-23.263Z" transform="translate(-79.04 -454.363)"/><path class="f" d="M93.1,457.885c5.109,0,9.253,2.2,9.253,4.922s-4.145,4.919-9.253,4.919-9.25-2.2-9.25-4.919S87.991,457.885,93.1,457.885Z" transform="translate(-76.901 -457.885)"/></g></g><g transform="translate(103.342)"><g transform="translate(17.071)"><path class="h" d="M179.384,531.29c-7.934-21.132-18.253-52.755-18.253-52.755l-7.807-4.507-2-1.158-12.642-7.3s-10.319,19.71-18.253,31.676-7.434,23.369-7.434,57.846v66.051l38.329,22.131,2,1.154,33.5,19.341V597.717C186.818,563.244,187.321,552.418,179.384,531.29Z" transform="translate(-106.085 -405.577)"/><path class="h" d="M131.286,453.759a54.684,54.684,0,0,1-8.652,18.345c-6.407,8.522-11.611,8.719-11.611,8.719l3.2,9.324s11.994-.517,17.965-9.341,9.693-14.221,9.693-14.221Z" transform="translate(-111.024 -435.33)"/><path class="i" d="M161.231,476.376l-48.244-27.855v11.551s7.543,6.851,15.062,14.134,10.626,14.967,10.626,22.535v11.776l22.711,13.113Z" transform="translate(-106.08 -448.521)"/></g><g transform="translate(0 0.235)"><path class="d" d="M112.843,449.021l0,.007a2.367,2.367,0,0,0-2.79.021c-2.143,1.235-3.877,4.556-3.877,7.413a3.421,3.421,0,0,0,1.319,3.1l-.007.014,10.749,6.213L123.3,455.01Z" transform="translate(-106.172 -448.588)"/><path class="j" d="M116.828,453.67c0,2.857-1.738,6.175-3.881,7.413s-3.877-.077-3.877-2.934,1.735-6.175,3.877-7.413S116.828,450.813,116.828,453.67Z" transform="translate(-98.874 -444.349)"/><path class="h" d="M106.746,470.261l15.052-8.81s-2.674,6.277-6.875,8.441A10.054,10.054,0,0,1,106.746,470.261Z" transform="translate(-104.726 -416.193)"/><path class="h" d="M111.275,472.133l11.1-6.575-5.079-2.877-6.018,6.138Z" transform="translate(-93.321 -413.097)"/><path class="g" d="M127.008,456.263a54.685,54.685,0,0,1-8.652,18.345c-6.407,8.521-11.611,8.719-11.611,8.719l3.205,9.324s11.991-.517,17.961-9.341,9.693-14.221,9.693-14.221Z" transform="translate(-104.726 -429.258)"/><path class="k" d="M155.64,479.66,107.4,451.8v11.551s7.543,6.85,15.059,14.133,10.629,14.967,10.629,22.535V511.8L155.8,524.914Z" transform="translate(-103.089 -440.485)"/></g><path class="h" d="M140.824,469.3l-19.673,11.554L146.58,665.939l19.672-11.554Z" transform="translate(-68.447 -396.192)"/><path class="i" d="M121.261,513.244l19.673-11.554-.153-45.251-19.672,11.554Z" transform="translate(-68.557 -428.582)"/><path class="g" d="M173.793,534.57c-7.934-21.128-18.253-52.751-18.253-52.751l-7.807-4.507-2.005-1.158-12.638-7.3s-10.319,19.71-18.253,31.676S107.4,523.9,107.4,558.379V624.43l38.326,22.127,2.005,1.158,33.5,19.341V601C181.227,566.528,181.727,555.7,173.793,534.57Z" transform="translate(-103.094 -397.307)"/><path class="l" d="M127.068,448.521,107.4,460.076l48.246,27.855,19.672-11.554Z" transform="translate(-103.09 -448.52)"/><path class="c" d="M158.8,597.191,110.077,569.06V485.552L158.8,513.683Z" transform="translate(-96.338 -355.262)"/><path class="d" d="M152.961,511.606l-42-24.247v4.251l42,24.247Z" transform="translate(-94.106 -350.714)"/><path class="h" d="M152.961,507.556l-42-24.247v2.125l42,24.247Z" transform="translate(-94.106 -360.913)"/><path class="h" d="M152.961,506.052l-42-24.247v2.125l42,24.247Z" transform="translate(-94.106 -364.701)"/><path class="d" d="M152.961,514.4l-42-24.247V494.4l42,24.247Z" transform="translate(-94.106 -343.684)"/><path class="k" d="M139,510.02a12.6,12.6,0,0,0-5.151-1.608c-2.322-9.253-12.6-17.275-17.947-7.417-2.375,4.38-2.765,9.932-1.661,15.3-2.319,3.533-2.157,8.708-1.224,12.564,2.85,11.78,17.265,19.794,27.517,11.1C148.483,533.231,148.575,515.456,139,510.02Zm-21.99-3.128a7.088,7.088,0,0,1,12.269-4,11.891,11.891,0,0,1,2.984,5.489,13.241,13.241,0,0,0-9.2,4.264,8.587,8.587,0,0,0-6.083,1.013c-.035-.391-.081-.777-.1-1.175A34.084,34.084,0,0,1,117.015,506.893Z" transform="translate(-90.535 -327.746)"/><path class="d" d="M136.795,514.591a7.008,7.008,0,0,0-2.994-5.035,6.616,6.616,0,0,0-4.1-.595,11.605,11.605,0,0,0-.461-1.2c-1.344-2.9-4.247-5.077-7.55-4.483-8.163,1.471-6.372,11.474-3.072,17.092a6.6,6.6,0,0,0-1.573,2.459c-1.231,4.739,5.049,9.545,8.7,11.28,6.766,3.205,11.111-5.587,9.063-10.9A12.088,12.088,0,0,0,136.795,514.591Z" transform="translate(-81.827 -310.873)"/><path class="d" d="M115.142,495.016c-2.238-.3-5.337,4.722-1.344,8.993,2.072,2.217,5.992,1.854,6.133-1.914C120.029,499.354,118.118,495.41,115.142,495.016Z" transform="translate(-91.822 -331.46)"/><path class="d" d="M122.7,499.825c-1.868-.63-5.809,2.174-2.727,6.71,1.464,2.15,4.94,2.3,5.872-.538A5.154,5.154,0,0,0,122.7,499.825Z" transform="translate(-74.277 -319.539)"/></g><g transform="translate(49.388 108.817)"><path class="m" d="M90.837,490.49V603.909c0,10.685,16.287,19.351,36.38,19.351s36.38-8.666,36.38-19.351V490.49Z" transform="translate(-90.837 -451.643)"/><g transform="translate(0 55.274)"><path class="c" d="M149.109,510.527a59.118,59.118,0,0,1-21.891,3.983c-20.094,0-36.38-8.662-36.38-19.351v80.487c0,10.689,16.287,19.351,36.38,19.351a59.041,59.041,0,0,0,21.891-3.986Z" transform="translate(-90.837 -495.159)"/></g><g transform="translate(0 67.532)"><path class="d" d="M141.192,516.4a62.554,62.554,0,0,1-13.975,1.594c-20.094,0-36.38-8.666-36.38-19.351v6.5c0,10.685,16.287,19.351,36.38,19.351a62.554,62.554,0,0,0,13.975-1.594Z" transform="translate(-90.837 -498.643)"/></g><path class="n" d="M162,500.879l.039-.018a17.453,17.453,0,0,0-1.017-1.654c-.19-.26-.366-.524-.577-.781-2.621-3.547-8.856-10.119-21.146-13.507-4.254-1.175-6.685-.077-7.976,2.2-1.365-.084-2.7-.222-4.109-.222-1.439,0-2.808.141-4.2.225-1.291-2.276-3.722-3.374-7.983-2.2C97.747,489.687,92.3,500.861,92.3,500.861l.113.049a11.28,11.28,0,0,0-1.573,5.334c0,10.689,16.287,19.351,36.38,19.351s36.38-8.662,36.38-19.351A11.245,11.245,0,0,0,162,500.879Z" transform="translate(-90.837 -466.873)"/><path class="i" d="M98.46,483.81l-4.545,17.806h51.1l-4.8-19.461Z" transform="translate(-83.086 -472.637)"/><path class="i" d="M119.584,484.234c-14.2,0-25.716,6.122-25.716,13.68s11.512,13.68,25.716,13.68,25.716-6.125,25.716-13.68S133.788,484.234,119.584,484.234Z" transform="translate(-83.204 -467.399)"/><path class="l" d="M116.212,479.449c-11.6,0-21,5-21,11.174s9.4,11.171,21,11.171,21-5,21-11.171S127.812,479.449,116.212,479.449Z" transform="translate(-79.832 -479.449)"/><path class="o" d="M113.47,479.929c-9.549,0-17.289,3.916-17.289,8.747s7.74,8.75,17.289,8.75,17.289-3.919,17.289-8.75S123.019,479.929,113.47,479.929Z" transform="translate(-77.379 -478.24)"/></g></g><g transform="translate(273.233 493.82)"><path class="h" d="M158.351,470.475a161.217,161.217,0,0,1-8.652,28.337c-6.4,15.917-11.611,22.124-11.611,22.124l3.205,5.626s11.991-14.362,17.961-30.082,9.693-25.417,9.693-25.417Z" transform="translate(-118.883 -438.531)"/><path class="i" d="M187.341,461.4l-48.248,27.855V500.8s7.547-1.865,15.062-3.258,10.626,2.7,10.626,10.267v11.772L187.5,506.47Z" transform="translate(-116.355 -461.396)"/><path class="e" d="M214.678,502.018c-7.29-10.995-16.772-29.1-16.772-29.1l-7.174,4.141-1.84,1.063-5.221,11.016s-36.911,37.788-44.2,57.2-6.833,29.361-6.833,61.037v60.685l88.871-52.206V555.167C221.507,523.49,221.968,513.013,214.678,502.018Z" transform="translate(-132.63 -432.381)"/><path class="e" d="M163.314,569.718l-30.682-17.873,18.415-32.781,19.676,23.65Z" transform="translate(-132.626 -316.167)"/><path class="g" d="M223.4,510.165c-7.29-10.995-23.816-33.386-23.816-33.386l-20.868,12.047s-23.236,38.21-30.526,57.621-6.829,37.4-6.829,69.07v60.689L230.228,624V563.314C230.228,531.638,230.689,521.16,223.4,510.165Z" transform="translate(-110.667 -422.656)"/><path class="m" d="M211.666,509.8c-6.059-9.134-19.794-27.742-19.794-27.742l-17.339,10.01s-19.305,31.75-25.364,47.882-5.679,31.074-5.679,57.4v50.429L217.342,604.4V553.967C217.342,527.65,217.725,518.942,211.666,509.8Z" transform="translate(-105.292 -409.351)"/><path class="p" d="M164.9,501.672l-18.507-10.249,5.6-18.845,17.111,3.905Z" transform="translate(-97.967 -433.235)"/><g transform="translate(19.207 10.249)"><path class="h" d="M149.014,519.979l-10.925-6.457,8.607-7.42L158.5,473.419l13.432,1.7-6.114,22.438Z" transform="translate(-138.089 -441.366)"/><path class="g" d="M161.454,472.311a161.14,161.14,0,0,1-8.652,28.334c-6.4,15.917-11.607,22.127-11.607,22.127l3.2,5.622s11.991-14.362,17.961-30.082,9.7-25.417,9.7-25.417Z" transform="translate(-130.268 -444.157)"/><path class="m" d="M192.6,464.309l-48.244,27.855v11.551s7.543-1.865,15.059-3.262,10.629,2.7,10.629,10.267V522.5l22.711-13.113Z" transform="translate(-122.313 -464.309)"/></g><path class="m" d="M157.6,479.562l-18.507-10.249v11.549L157.6,491.111Z" transform="translate(-116.354 -441.457)"/><g transform="translate(22.738 34.921)"><path class="c" d="M144.71,471.633l0,0a1.7,1.7,0,0,1,2.006.017,6.691,6.691,0,0,1,2.794,5.334,2.472,2.472,0,0,1-.95,2.231l0,.011-5.742,3.318-3.374-7.9Z" transform="translate(-138.194 -471.321)"/><path class="j" d="M139.093,474.712a6.691,6.691,0,0,0,2.794,5.334c1.541.89,2.794-.053,2.794-2.111a6.691,6.691,0,0,0-2.794-5.334C140.346,471.71,139.093,472.657,139.093,474.712Z" transform="translate(-139.093 -468.942)"/></g><path class="q" d="M152.217,496.9l-3.2-5.624-10.925-6.457,3.2,5.624Z" transform="translate(-118.882 -402.412)"/><path class="n" d="M205.847,471.645,187.339,461.4l-48.246,27.855L157.6,499.5Z" transform="translate(-116.354 -461.395)"/><path class="d" d="M148.239,514.518l42-24.248v4.251l-42,24.247Z" transform="translate(-93.322 -388.68)"/><path class="d" d="M148.239,517.01l42-24.247v4.251l-42,24.247Z" transform="translate(-93.322 -382.402)"/><path class="d" d="M194.815,535.639c2.706-7.427-.471-12.054-5.549-14.411a19.381,19.381,0,0,0-.581-11.252c-5.756-15.094-28.045-8.522-32.25-.144a20.019,20.019,0,0,0-7.244,7.828c-2.231,4.409-3.251,12.381,2.734,13.518a.154.154,0,0,0,.077-.3c-6.133-2.013-3.3-10.024-1.221-13.468a19.672,19.672,0,0,1,9.566-7.828c6.868-2.758,16.283-3.205,20.614,4.384a22.546,22.546,0,0,1,2.248,5.559,24.591,24.591,0,0,0-10.4.792c-5.5,1.784-12.673,5.429-13.113,12.582a9.246,9.246,0,0,0,.281,2.864,18.668,18.668,0,0,0-5.446,11.474c-.419,5,1.851,9.922,7,9.8,7.227-.172,15.5-8.687,19.274-14.693a31.186,31.186,0,0,0,4.018-11.5l.056-.077c5.415,1.752,9.781,6.15,9.781,12.891,0,9.464-8.3,13.433-15.027,16.871-.76.39-.211,1.84.581,1.492,6.882-3.04,14.964-7.209,16.663-15.938A14.536,14.536,0,0,0,194.815,535.639Zm-25.329,15.506c-3.7,2.575-11.565,7.927-13.053-2.948-.443-3.223,2.487-7.7,4.56-10.07a7.96,7.96,0,0,0,5.665,3.6c5.506.8,11.713-3.582,15.928-8.18A35.325,35.325,0,0,1,169.486,551.144Z" transform="translate(-95.323 -361.802)"/><path class="j" d="M162.272,531.225a25.742,25.742,0,0,0-3.6,3.342,14.315,14.315,0,0,1-1.9-3.561c-2.8-7.737-.06-17.434,7.684-19.517,2.35-.633,4.876.317,7.163,1.991.028.021.053-.018.032-.042-10.056-11.7-27.567-1.077-24.629,17.5.725,4.581,3.42,9.415,6.569,11.677-2.853,7.42-1.027,14.936,10.418,15.467a.544.544,0,0,0,.144-1.062c-10.415-3.585-7.691-10.45-7.178-12.758.007-.035,12.6,4.117,21.244-3.378C191.947,528.987,171.586,524.291,162.272,531.225Zm16.716,1.08c1.386,2.322-3.254,5.524-9.2,6.006-4.507.366-9.039-1.428-9.859-2.269a17.478,17.478,0,0,1,7.776-5.422C171.149,529.512,176.965,528.914,178.988,532.305Z" transform="translate(-97.208 -342.657)"/></g><g transform="translate(165.217 692.227)"><path class="i" d="M230.82,523.62S218.3,534,207.13,543.534c-16.765-5.513-37.073-4.887-49.623,2.357L131.7,560.8c-11.4-9.464-24.108-19.706-24.108-19.706-3.832,5.907-9.774,29.276-1.457,47.632l.032.056c1.478,5.71,6.266,11.431,14.285,16.058,17.884,10.323,45.187,11.456,60.675,2.516l41.415-23.911c4.7-2.716,7.776-6.069,9.3-9.7a11.544,11.544,0,0,0,1.435-2.35C241.593,553.034,234.648,529.524,230.82,523.62Z" transform="translate(-101.93 -503.098)"/><path class="l" d="M219.88,561.365l-41.415,23.911c-15.488,8.944-42.791,7.811-60.675-2.516h0c-17.884-10.323-19.844-26.089-4.356-35.029l41.411-23.911c15.488-8.944,42.794-7.811,60.675,2.516h0C233.405,536.659,235.365,552.425,219.88,561.365Z" transform="translate(-99.269 -517.787)"/><path class="i" d="M121.176,536.193c-1.523-1.967-8.567-.619-7.22,1.977.88,1.693,4.106,1.742,5.478,1.516C121.151,539.4,122.4,537.78,121.176,536.193Z" transform="translate(-72.072 -473.799)"/><path class="i" d="M123.145,523.041c-1.52-1.967-8.564-.619-7.22,1.974.88,1.7,4.106,1.745,5.478,1.517C123.12,526.25,124.373,524.624,123.145,523.041Z" transform="translate(-67.11 -506.92)"/><path class="i" d="M128.052,531.8c-1.523-1.967-8.567-.619-7.22,1.977.876,1.693,4.1,1.742,5.478,1.516C128.027,535.012,129.276,533.387,128.052,531.8Z" transform="translate(-54.756 -484.862)"/><path class="i" d="M129.653,522.838c-1.523-1.967-8.567-.619-7.22,1.974.876,1.7,4.1,1.745,5.478,1.52C129.628,526.047,130.877,524.424,129.653,522.838Z" transform="translate(-50.724 -507.431)"/><path class="i" d="M141.747,527.238c-1.523-1.967-8.567-.619-7.22,1.974.88,1.7,4.1,1.745,5.478,1.516C141.722,530.447,142.975,528.821,141.747,527.238Z" transform="translate(-20.266 -496.351)"/><path class="i" d="M134.93,529.79c-1.523-1.967-8.567-.623-7.223,1.974.88,1.7,4.106,1.742,5.482,1.516C134.9,533,136.154,531.374,134.93,529.79Z" transform="translate(-37.441 -489.924)"/><path class="i" d="M114.426,529.146c-1.523-1.967-8.567-.619-7.22,1.977.88,1.692,4.1,1.742,5.478,1.516C114.4,532.354,115.65,530.733,114.426,529.146Z" transform="translate(-89.072 -491.546)"/><path class="i" d="M139.507,523.484c-1.523-1.97-8.567-.623-7.22,1.974.876,1.7,4.1,1.742,5.478,1.517C139.482,526.692,140.731,525.067,139.507,523.484Z" transform="translate(-25.908 -505.811)"/><path class="i" d="M127.883,527.606c-4.676-2.079-8.229,1.291-8.032,2.386.362,2.027,4.767,1.7,6.168,1.45C127.915,531.1,130.367,528.711,127.883,527.606Z" transform="translate(-56.818 -494.731)"/><path class="i" d="M115.021,531.836c-2.336-1.038-4.113.644-4.015,1.193.179,1.013,2.382.851,3.082.725C115.035,533.585,116.263,532.388,115.021,531.836Z" transform="translate(-79.08 -483.241)"/><path class="i" d="M132.869,521.228c-2.336-1.038-4.113.644-4.014,1.193.179,1.013,2.382.848,3.082.725C132.887,522.977,134.111,521.781,132.869,521.228Z" transform="translate(-34.132 -509.956)"/><path class="i" d="M129.667,533.666c-2.336-1.038-4.113.644-4.014,1.193.179,1.013,2.385.848,3.082.725C129.685,535.415,130.909,534.219,129.667,533.666Z" transform="translate(-42.196 -478.632)"/><path class="i" d="M128.234,520.562c-2.34-1.038-4.117.647-4.018,1.193.183,1.013,2.385.851,3.086.725C128.248,522.311,129.476,521.114,128.234,520.562Z" transform="translate(-45.815 -511.633)"/><path class="i" d="M117.639,524.984c-2.336-1.041-4.113.644-4.014,1.189.179,1.017,2.385.851,3.082.728C117.657,526.733,118.881,525.537,117.639,524.984Z" transform="translate(-72.487 -500.501)"/><path class="i" d="M114.378,532.169c-4.676-2.079-8.23,1.288-8.033,2.382.362,2.027,4.767,1.7,6.168,1.453C114.41,535.667,116.862,533.274,114.378,532.169Z" transform="translate(-90.829 -483.24)"/><path class="i" d="M126.115,536.538c-4.672-2.076-8.226,1.291-8.029,2.385.362,2.027,4.767,1.7,6.168,1.45C126.15,540.035,128.6,537.643,126.115,536.538Z" transform="translate(-61.263 -472.233)"/><path class="r" d="M140.05,531.465c-1.611-.151-2.9,2.421-2.864,4.595.046,2.688,2.836,3.554,4.391,1.351C143.154,535.173,142.851,531.732,140.05,531.465Z" transform="translate(-13.141 -483.358)"/><path class="r" d="M133.426,539.463c-1-.1-1.8,1.506-1.78,2.853a1.449,1.449,0,0,0,2.727.841C135.354,541.767,135.164,539.628,133.426,539.463Z" transform="translate(-27.096 -463.209)"/><path class="r" d="M121.971,540.1c-1-.1-1.8,1.506-1.78,2.853a1.449,1.449,0,0,0,2.727.841C123.9,542.4,123.709,540.264,121.971,540.1Z" transform="translate(-55.944 -461.608)"/><path class="r" d="M111.1,541.878c1-.095,1.8,1.506,1.78,2.853a1.451,1.451,0,0,1-2.73.841C109.169,544.182,109.356,542.043,111.1,541.878Z" transform="translate(-82.721 -457.128)"/><path class="r" d="M115.8,540.362c1-.1,1.8,1.506,1.78,2.853a1.449,1.449,0,0,1-2.727.841C113.877,542.666,114.067,540.527,115.8,540.362Z" transform="translate(-70.86 -460.946)"/><path class="r" d="M105.554,540.1c1-.1,1.8,1.506,1.78,2.853a1.449,1.449,0,0,1-2.727.841C103.626,542.4,103.816,540.264,105.554,540.1Z" transform="translate(-96.676 -461.608)"/><path class="r" d="M131.924,535.909c-1-.095-1.8,1.506-1.78,2.853a1.449,1.449,0,0,0,2.727.841C133.852,538.213,133.662,536.074,131.924,535.909Z" transform="translate(-30.878 -472.16)"/><path class="r" d="M140.644,536.422c-2.044-2.7-4.81.82-4.841,2.139a2.038,2.038,0,0,0,2.962,1.949C140.183,539.881,141.742,537.872,140.644,536.422Z" transform="translate(-16.627 -473.36)"/><path class="r" d="M132.333,537.449c-2.044-2.7-4.806.82-4.841,2.139a2.035,2.035,0,0,0,2.962,1.946C131.872,540.9,133.431,538.9,132.333,537.449Z" transform="translate(-37.557 -470.773)"/><path class="r" d="M129.054,544.14c-2.044-2.7-4.806.82-4.841,2.139a2.035,2.035,0,0,0,2.962,1.946C128.593,547.6,130.152,545.59,129.054,544.14Z" transform="translate(-45.815 -453.922)"/><path class="r" d="M121.1,548.687c1.3-3.128-3.131-3.74-4.289-3.1a2.036,2.036,0,0,0-.186,3.539C117.879,550.031,120.4,550.365,121.1,548.687Z" transform="translate(-67.295 -448.353)"/><path class="r" d="M107.481,542.728c3.388,0,2.241-4.331,1.21-5.155a2.038,2.038,0,0,0-3.339,1.189C105,540.276,105.662,542.732,107.481,542.728Z" transform="translate(-93.54 -469.205)"/><path class="r" d="M113.515,550.687c3.388,0,2.245-4.331,1.21-5.154a2.037,2.037,0,0,0-3.339,1.189C111.034,548.235,111.7,550.687,113.515,550.687Z" transform="translate(-78.344 -449.165)"/></g></g></svg>