<svg xmlns="http://www.w3.org/2000/svg" width="270.653" height="403.391" viewBox="0 0 270.653 403.391"><defs><style>.a{fill:#2c1d1b;}.b{fill:#ff85c5;}.c{fill:#ffc9b6;}.d{fill:#bbcdff;}.e{fill:#a6c2ff;}.f{fill:#ffb9a4;}.g{fill:#ff61ad;}.h{fill:#3f2a28;}.i{fill:#352221;}.j{fill:#778dfd;}.k{fill:#472f2e;}.l{fill:#8da3ff;}.m{fill:#f4ebea;}.n{fill:#281818;}.o{fill:#fff;}.p{fill:#543a3a;}.q{fill:#ffbbe2;}</style></defs><g transform="translate(0)"><g transform="translate(0)"><path class="a" d="M236.527,538.225c12.978-5.855,19.428-25.688,20.93-38.442,1.521-12.916-.572-26.871,4.41-39.2,3.9-9.664,11.4-14.346,21.812-13.874,5.106.229,10.437,1.712,13.869,4.939a8.964,8.964,0,0,1,3.676,8.663c0,.134.019.258.014.4a.135.135,0,0,1-.134.129,9.365,9.365,0,0,1-.229,1,8.843,8.843,0,0,1-2.045,3.137c-.129.129-.257.262-.4.382-1.807,1.692-4.219,2.8-6.427,2.327-3.862.667-8.034.954-10.022,2.832-4.744,4.481-3.266,14.856-4.062,20.806-.787,5.86-1.311,16.086-2.622,21.851C271.894,528.136,256.576,543.946,236.527,538.225Z" transform="translate(-208.59 -446.671)"/><path class="b" d="M255.029,452.879s-5.65-7.695-13.211-2.613c-10.022,6.737-7.094,13.621-4.51,15.443S255.029,452.879,255.029,452.879Z" transform="translate(-154.121 -439.664)"/><path class="c" d="M271.836,509.019l-4.615,9.96s2.384,6.694,4.367,10.67,5.373,3.366,8.344,8.367-.339,8.124-9.583,8.468-11.237-4.3-14.079-10.36-7.147-13.85-7.214-18.875c-.1-7.9,6.684-7.652,10.646-10.375C262.244,505.129,271.836,509.019,271.836,509.019Z" transform="translate(-247.97 -221.541)"/><path class="c" d="M236.8,516.922c1.526,3.857,3.8,8.725,11.624,10.022,10.012,1.654,12.248.024,16.673,2.97s-1.783,8.558-6.66,12.034c-7.147,5.092-15.414,2.675-20.673,1.5-7.037-1.569-14.3-3.943-13.936-10.894a21.8,21.8,0,0,0-2.46-11.6S234.232,510.433,236.8,516.922Z" transform="translate(-101.59 -189.948)"/><path class="d" d="M247.208,517.4s.1,3.3-3.957,5.278-12.162,2.313-15.118.167a49.874,49.874,0,0,0-6.751-3.957s-3,8.21,6.827,12.687,15.185,7.686,25.178,4.639,16.368-9.564,10.923-15.991C261.63,517.059,247.208,517.4,247.208,517.4Z" transform="translate(-99.29 -180.235)"/><g transform="translate(8.924 150.573)"><path class="d" d="M258.318,577.593c4.086-2.813,8.057-3.881,13.011-4.873-12.239-21.283-12.358-42.671-7.566-66.581,1.33-6.622,4.072-22.07,10.894-25.693,2.746-1.459,34.9-.281,38.146-1.278l.191-.057c2.894,10.1,6.374,23.186,6.694,28.735.825,14.284-10.613,17.75-10.613,17.75A101.933,101.933,0,0,1,307.1,539.57c-2.894,13.712-8.792,33.174-16.973,44.354.629,7.533-4.324,9.511-10.513,11-4.811,1.154-22.58,19.128-32.592,26.962-.048-.024-10.327-1.216-10.327-11.018C242.785,603.286,243.467,587.8,258.318,577.593Z" transform="translate(-236.692 -475.02)"/><path class="e" d="M240.011,511.079c-.319-5.55-3.8-18.637-6.694-28.735,5.874-1.788,13.936-3.127,16.048-4.091,19.114,28.425,24.74,64.855,25.093,98.859,4.477,7.09,2.827,16.268,2.746,24.363-.162,15.7,3.547,31.434,5.378,47.019.253,2.179,1.082,5.292,1.683,8.534-3.352,1.912-14.27,4.5-15.295,4.115-5.364-15.81-15.209-32.945-17.907-49.57a54.275,54.275,0,0,1-.615-13.617c.381-4.191,2.508-8.653.934-12.744-1.3-3.375-5.144-7.094-7.147-10.251-3.094-4.877-5.893-9.926-8.52-15.071-2.8-5.478-5.659-11.209-8.3-17.088a101.933,101.933,0,0,0,1.979-13.974S240.835,525.363,240.011,511.079Z" transform="translate(-157.014 -478.253)"/></g><path class="b" d="M303.6,466.565c-8.582-10.885-13.583-9.521-23.982-3.566-12.735,7.29-23.014,11.886-28.592,16.52-9.454,7.862-14.942,24.063-16.544,44.44-.243,3.089-2.107,13.617-3.209,16.744-3.914,11.128-2,12.959.777,15.557-1.526,1.5-3.023,8.015.186,9.9,14.737,8.644,47.486,10.179,58.876-10.765.706-1.3-1.13-5.826-2.031-7,2.37-1.34,4.062-4.629,4.062-7.69,4.367-2.36,8.1-5.931,9.1-12.105,8.754-1.974,18.179-6.889,15.333-17.445-1.387-5.149-5.717-16.883-7.357-22.813C306.965,476.582,306.06,469.673,303.6,466.565Z" transform="translate(-189.742 -402.33)"/><path class="f" d="M259.845,482.482c-2.4-.391-8.658-3.59-6.789-15.2.525-3.252-14.093-11.991-14.089-11.533.152,10.527-1.5,22.551-6.322,28.01,6.956,7.266,14.9,25.674,26.8,23.152C265.981,505.52,264.574,495.884,259.845,482.482Z" transform="translate(-152.62 -412.55)"/><path class="g" d="M240.156,460.58s2.1,10.89,3.466,14.847,4.224,12.978,4.224,12.978-3.862-2.041-5.993-.977-3.828,3.9-5.655,4.358a11.739,11.739,0,0,1-4.205,0l-1.283-5.025s3.814-1.063,3.967-7.457-.61-15.066-.61-15.066Z" transform="translate(-127.367 -394.267)"/><path class="g" d="M240.577,459.765c.086.186,3.237,7.595,6.308,13.2,3.256,5.945,9.85,11.848,13.383,14.866,5.173,4.41,3.261,11.414,3.261,11.414s-1.878-4.51-4.334-3.8-4.954,2.918-7.848,5.426c-2.131-3.438-7.252-6.909-10.77-12.878-3.418-5.8-8.82-15.834-6.823-22.828S240.577,459.765,240.577,459.765Z" transform="translate(-155.851 -397.924)"/><path class="c" d="M266.063,454.287c-9.321-2.093-14.194-2.479-22.47.872a46.077,46.077,0,0,0-13.235,6.089,1.154,1.154,0,0,0-.515,1.054c2.131,12.277,6.25,25.293,20.029,30.742,11.333,4.482,17.688-7.953,19.662-16.287C271.828,467.045,272.524,455.736,266.063,454.287Z" transform="translate(-146.5 -424.041)"/><path class="h" d="M239.784,454.549c8.9-7.2,20.144-6.322,26.261-1.344,6.484,5.273,11.681,13.1,8.758,21.507-3.042.606-7.366-2.1-9.426-3.857-3.733,4.172-10.341,9.1-18.422,7.962-1.588,5.121-4.992,16.377-9.669,16.067C227.922,475.594,225.476,466.135,239.784,454.549Z" transform="translate(-150.138 -436.738)"/><path class="c" d="M244.207,460.464s-2.227-7.543-7.137-3.671S239.11,468.3,239.11,468.3Z" transform="translate(-145.664 -412.701)"/><path class="d" d="M272.308,526.652s.634,1.754,5.268,4.839,5.874,7.047,5.874,9.521-5.378,5.945-12.592,5.449-11.428-3.218-14.894-10.155-8.477-22.38-7.013-25.8c.815-1.912,3.786-2.765,4.467-3.285a12.317,12.317,0,0,0-.176,6.56,55.519,55.519,0,0,0,5.941,13.083c2.479,4.138,6.823,4.825,9.793,3.338S272.308,526.652,272.308,526.652Z" transform="translate(-248.69 -218.544)"/></g><g transform="translate(82.381 101.698)"><path class="i" d="M308.141,518.847v30.3c0,16-24.387,28.974-54.466,28.974s-54.462-12.973-54.462-28.974v-30.3Z" transform="translate(-119.869 -276.431)"/><g transform="translate(79.344 260.195)"><path class="j" d="M253.675,551.544c30.08,0,54.466-12.973,54.466-28.969v4.5c0,16-24.387,28.969-54.466,28.969s-54.462-12.973-54.462-28.969v-4.5C199.213,538.572,223.6,551.544,253.675,551.544Z" transform="translate(-199.213 -522.576)"/></g><path class="i" d="M221.872,497.624s5.645,16.334,13.55,33.2,21.235,23.014,41.4,13.974-21.393-67.535-21.393-67.535Z" transform="translate(-202.1 -433.115)"/><path class="k" d="M253.675,513.05c30.08,0,54.466,12.973,54.466,28.973s-24.387,28.969-54.466,28.969-54.462-12.973-54.462-28.969S223.6,513.05,253.675,513.05Z" transform="translate(-119.869 -298.272)"/><path class="j" d="M202.11,531.538c5.369-11.047,24.172-19.214,46.614-19.214s41.246,8.167,46.614,19.214h1.588v6.422c0,14.16-21.579,25.641-48.2,25.641s-48.2-11.48-48.2-25.641v-6.422Z" transform="translate(-114.918 -301.008)"/><path class="l" d="M248.724,510.842c26.623,0,48.2,11.476,48.2,25.636s-21.579,25.641-48.2,25.641-48.2-11.48-48.2-25.641S222.106,510.842,248.724,510.842Z" transform="translate(-114.918 -306.591)"/><g transform="translate(105.333 155.534)"><path class="m" d="M254.436,569.808c6.932-3.962,10.155-7.466,10.136-11.037-.019-4-4.148-6.818-7.738-8.825-3.252-1.816-7.142-3.514-10.9-5.159-5.931-2.584-12.062-5.259-15.252-8.248-6.26-5.855-7.142-8.219-9.268-18.861a20.751,20.751,0,0,0-17.235-17.054l-.3,2.875c.491.053,12.038,1.445,14.694,14.747,2.217,11.071,3.333,14.046,10.127,20.406,3.557,3.328,9.636,5.979,16.077,8.787,3.7,1.616,7.519,3.285,10.646,5.03,4.205,2.351,6.25,4.415,6.26,6.317,0,1.616-1.492,4.406-8.682,8.51Z" transform="translate(-203.879 -500.624)"/></g><g transform="translate(74.467 263.556)"><path class="n" d="M245.523,547.043c0-8.611-5.235-18.613-11.69-22.337a10.731,10.731,0,0,0-5.106-1.426,14.3,14.3,0,0,0-7.49,2.1c-3.681,2.274-4.176,7.442-4.176,7.442L230.2,559.8a9.937,9.937,0,0,0,8.572-.305,13.466,13.466,0,0,0,5.082-5.282,19.141,19.141,0,0,0,.968-2.241A16.05,16.05,0,0,0,245.523,547.043Z" transform="translate(-216.807 -523.281)"/><path class="h" d="M218.179,534.168c0,8.606,5.235,18.6,11.69,22.332s11.69-.229,11.69-8.834-5.235-18.608-11.69-22.337S218.179,525.558,218.179,534.168Z" transform="translate(-218.179 -520.852)"/><path class="j" d="M218.466,533.456c0,7.6,4.62,16.429,10.322,19.724s10.322-.2,10.322-7.8-4.62-16.429-10.322-19.719S218.466,525.857,218.466,533.456Z" transform="translate(-217.098 -519.005)"/><path class="o" d="M220.045,530.483c0,3.767,2.288,8.139,5.111,9.769s5.111-.1,5.111-3.866-2.288-8.139-5.111-9.769S220.045,526.717,220.045,530.483Z" transform="translate(-215.783 -513.024)"/></g><rect class="i" width="105.756" height="17.511" transform="translate(108.054 216.024) rotate(-113.325)"/><path class="i" d="M203.925,527.625l41.03,23.77,28.3-16.607-41.031-23.77Z" transform="translate(-107.446 -305.928)"/><path class="i" d="M219.048,513.13c3.666,2.522,4.582,9.268,4.582,13.7-4.582,0-19.7-5.4-19.7-5.4l2.57-6.1Z" transform="translate(-57.823 -297.971)"/><path class="p" d="M204.886,525.3l6.9,9.8,29.552,11.355,28.3-16.606-36.451-21.152Z" transform="translate(-108.407 -314.686)"/><path class="k" d="M217.869,512.177s-1.292,1.2-1.292,4.958v5.359l10.3,6.031-2.832-8.892Z" transform="translate(-121.389 -301.562)"/><path class="k" d="M211.152,512.177s32.6,19.013,36.449,21.149,4.582,9.207,4.582,13.7c-6.37-3.69-42.323-24.535-42.323-24.535Z" transform="translate(-114.673 -301.562)"/><path class="j" d="M242.439,510.042v10.88c0,4.992-7.609,9.035-16.992,9.035s-16.987-4.043-16.987-9.035v-10.88Z" transform="translate(-98.248 -309.606)"/><path class="l" d="M225.446,508.147c9.383,0,16.992,4.043,16.992,9.035s-7.609,9.04-16.992,9.04-16.987-4.048-16.987-9.04S216.064,508.147,225.446,508.147Z" transform="translate(-98.248 -316.745)"/><g transform="translate(79.957 164.037)"><path class="m" d="M242.159,580.72c9.612,0,19.214-3.852,19.719-4.057a1.446,1.446,0,0,0-1.087-2.679c-.148.062-14.847,5.95-25.245,3.023-11.49-3.237-17.235-9.945-15.366-17.955a29.576,29.576,0,0,1,3.752-8.358c1.6-2.713,3.109-5.273,3.028-8.115-.262-9.259-4.892-15.381-7.957-19.428-.8-1.063-1.521-2.007-2.05-2.87a20.723,20.723,0,0,1-2.269-15.977,1.444,1.444,0,1,0-2.746-.9,23.42,23.42,0,0,0,2.551,18.389c.572.93,1.344,1.955,2.212,3.1,3.009,3.981,7.133,9.43,7.371,17.764.057,2.007-1.187,4.119-2.627,6.57a31.842,31.842,0,0,0-4.081,9.168c-2.227,9.545,4.439,17.745,17.4,21.4A27.472,27.472,0,0,0,242.159,580.72Z" transform="translate(-211.09 -502.408)"/></g><g transform="translate(33.322 39.762)"><path class="j" d="M221.564,489.517a34.155,34.155,0,0,1,7.938-6.446s.677-.462,1.75-1.087l0,0a54.173,54.173,0,0,1,12.52-5.578s24.229,41.947,32.668,62.591c6.422,15.71,18.689,53.079,18.689,53.079s.076,19.052-1.707,25.483l0,.01c-.057.348-.11.72-.162,1.049-1.139,6.8-5.917,9.8-11.023,6.9a88.02,88.02,0,0,1-7.838-5.1c-12.434-8.939-25.593-38.17-34.032-58.814s-25.488-58.867-25.488-58.867S218.227,493.374,221.564,489.517Z" transform="translate(-214.88 -476.117)"/><path class="l" d="M221.569,487.167a33.988,33.988,0,0,1,7.933-6.441,30.469,30.469,0,0,1,8.892-4.1c4.491-1.049,12.563,1.149,12.563,1.149s12.077,29.536,20.516,50.18,19.681,51.077,18.136,68.774c-.391,4.486-.854,8.038-1.321,10.842-1.14,6.808-5.917,9.8-11.018,6.908a87.1,87.1,0,0,1-7.843-5.106c-12.434-8.935-25.593-38.166-34.032-58.81s-20.516-50.18-20.516-50.18S218.227,491.028,221.569,487.167Z" transform="translate(-209.497 -476.341)"/></g><g transform="translate(0 66.327)"><path class="j" d="M232.125,496.442l25.891-14.529,4.453,7.445-26.558,15.266Z" transform="translate(-231.114 -481.913)"/><path class="l" d="M237.468,487.5a7.033,7.033,0,0,0,2.942,5.621c1.626.939,2.942-.057,2.942-2.222a7.049,7.049,0,0,0-2.942-5.626C238.784,484.33,237.468,485.327,237.468,487.5Z" transform="translate(-237.468 -470.601)"/></g><g transform="translate(68.789 26.476)"><path class="j" d="M217.979,488.551l26-14.945,4.009,8.052-26.225,15.075Z" transform="translate(-217.979 -473.36)"/><path class="j" d="M217.786,476.135a7.047,7.047,0,0,0,2.942,5.621c1.626.939,2.942-.057,2.942-2.222a7.049,7.049,0,0,0-2.942-5.626C219.1,472.969,217.786,473.966,217.786,476.135Z" transform="translate(-192.736 -473.555)"/></g><path class="f" d="M227.463,468.008s3.066,7.342,4.057,10.561l.992,3.218s13.087,10.088,18.2,14.484,9.273,1.621,14.87,4.954c6.451,3.838,6.136,6.37,6.217,10.923s-6.422,8.811-6.422,8.811-16.329-11.6-22.837-14.67c-13-6.131-23.8-19.19-23.8-19.19s4.076-3.2,3.867-8.286a30.664,30.664,0,0,0-1.75-7.757A7.6,7.6,0,0,1,227.463,468.008Z" transform="translate(-176.639 -468.002)"/><g transform="translate(13.569 31.669)"><path class="i" d="M226.45,504.673l-.091.715,22.437-13,28.754-16.654s9.688,6.036,15.114,12.51a13.909,13.909,0,0,1,1.111,1.535l1.645-.138v5.378c0,.124,0,.248,0,.367v.052h0c-.143,3.647-2.427,6.961-4.887,9.74-4,4.52-17.269,12.205-24.768,14.346s-17.211,3.89-27.062-.024a94.158,94.158,0,0,1-18.651-10.46v-5.216Z" transform="translate(-220.046 -470.522)"/><path class="k" d="M220.045,507.951,248.794,491.3l28.754-16.654s9.688,6.031,15.114,12.51,1.864,12.41-2.136,16.935-17.269,12.205-24.768,14.346-17.211,3.89-27.062-.024A94.158,94.158,0,0,1,220.045,507.951Z" transform="translate(-220.045 -474.644)"/></g></g><g transform="translate(40.194 75.9)"><path class="c" d="M255.6,472.659c.882,4.782-.615,12.2-.229,16.5,8.034,4.51,22.132,18.642,30.809,25.96,6.179,1.278,10.222-.01,14.484,8.3,2.546,4.963-1.063,10.7-5.45,12.644-5.078,2.25-9.035-.687-9.321-3.919,2.188-2.165,2.532-5.812-4.014-7.876-7.929-.82-25.831-11.08-31.82-15.9-5.712-4.6-8.382-3.881-9.521-7.142-3-8.577-8.8-25.226-8.8-25.226S252.054,473.679,255.6,472.659Z" transform="translate(-226.121 -424.656)"/><path class="g" d="M263.278,462.606c8.563,4.634,12.52,19.962,10.489,33.131-1.669,10.808-2.756,15.066-2.756,15.066s-13.965,1.893-24.94,4.062c-6.761-13.369-5.64-22.69-5.4-34.342C240.9,469.248,255.2,462.215,263.278,462.606Z" transform="translate(-240.453 -462.591)"/><path class="q" d="M267.139,473.572a33.227,33.227,0,0,0-12.777-.839,93.043,93.043,0,0,0-13.221,2.694l3.013,6.885s7.972-2.269,12.253-2.57a40.729,40.729,0,0,1,9.731.92Z" transform="translate(-236.581 -425.36)"/></g><g transform="translate(115.225 59.92)"><path class="g" d="M233.751,459.239a50.732,50.732,0,0,1,6.055,10.031c2.146,5.092,3.514,12.358,4.148,16.978a30.854,30.854,0,0,1,.219,7.662s-5.65,2.932-6.579,3.433c-1.173-2.222-2.575-7.929-4.091-12.825-2.217-7.175-5.006-18.117-5.006-18.117A64.984,64.984,0,0,0,233.751,459.239Z" transform="translate(-228.497 -459.239)"/><path class="q" d="M235.022,466.511l2.3,7.114-6.6,3.047-2.679-7.6A12.711,12.711,0,0,1,235.022,466.511Z" transform="translate(-219.346 -431.84)"/></g></g></svg>