<svg xmlns="http://www.w3.org/2000/svg" width="321.956" height="398.271" viewBox="0 0 321.956 398.271"><defs><style>.a{fill:#3d2828;}.b{fill:#593d3d;}.c{fill:#fff;}.d{fill:#d8c4c3;}.e{fill:#2b1b1a;}.f{fill:#281818;}.g{fill:#3f2a28;}.h{fill:#eddcda;}.i{fill:#352221;}.j{fill:#472f2e;}.k{fill:#778dfd;}.l{fill:#ccb5b4;}.m{fill:#ff61ad;}.n{fill:#ffc9b6;}.o{fill:#2c1d1b;}.p{fill:#ff85c5;}.q{fill:#bbcdff;}.r{fill:#f9bba7;}.s{fill:#a6c2ff;}</style></defs><g transform="translate(12 -4.265)"><g transform="translate(-12 4.265)"><g transform="translate(0 176.955)"><g transform="translate(9.55 58.956)"><path class="a" d="M325.049,503.834v89.03c0,.931-1.422,1.684-3.173,1.684s-3.169-.753-3.169-1.684v-89.03Z" transform="translate(-318.707 -502.15)"/><path class="b" d="M321.876,503.436c1.752,0,3.173.753,3.173,1.684s-1.422,1.688-3.173,1.688-3.169-.757-3.169-1.688S320.124,503.436,321.876,503.436Z" transform="translate(-318.707 -503.436)"/></g><path class="c" d="M312.953,549.884h-4.476V526.215c0-8.246,5.1-17.9,11.365-21.515l23.681-13.671c3.173-1.836,6.347-2.022,8.927-.529,2.97,1.718,4.675,5.437,4.675,10.209V609.859h-4.477V500.71c0-3.084-.914-5.449-2.437-6.33-1.138-.656-2.746-.457-4.451.525L322.08,508.576c-4.946,2.86-9.126,10.933-9.126,17.639Z" transform="translate(-297.95 -489.502)"/><path class="d" d="M321.15,503.492c1.235,0,2.234.533,2.234,1.189s-1,1.185-2.234,1.185-2.23-.529-2.23-1.185S319.918,503.492,321.15,503.492Z" transform="translate(-308.393 -444.299)"/><path class="e" d="M317.886,529.943s0,9.241,4.4,11.982c4.494,2.805,13.611-16.235,13.611-16.235L318.715,527.7Z" transform="translate(-316.528 -372.576)"/><g transform="translate(57.132 200.87)"><path class="f" d="M320.821,549.984c0-4.714-2.864-10.188-6.4-12.228a5.885,5.885,0,0,0-2.792-.779,7.831,7.831,0,0,0-4.1,1.151c-2.01,1.244-2.281,4.07-2.281,4.07l7.184,14.766a5.451,5.451,0,0,0,4.7-.169,7.348,7.348,0,0,0,2.78-2.89,10.309,10.309,0,0,0,.529-1.227A8.736,8.736,0,0,0,320.821,549.984Z" transform="translate(-305.107 -536.977)"/><path class="g" d="M305.936,542.978c0,4.714,2.864,10.188,6.4,12.228s6.4-.127,6.4-4.836-2.865-10.188-6.4-12.228S305.936,538.269,305.936,542.978Z" transform="translate(-305.936 -535.692)"/><path class="c" d="M306.743,541.483c0,2.581,1.57,5.581,3.5,6.7s3.507-.068,3.507-2.649-1.57-5.581-3.507-6.7S306.743,538.9,306.743,541.483Z" transform="translate(-304.374 -532.335)"/><g transform="translate(1.705 0.554)"><path class="d" d="M307.269,537.108h4.168v12.164a1.9,1.9,0,0,1-.647,1.625l0,.009-1.439.749-1.282-1.506.364-.144a5.294,5.294,0,0,1-1.168-3.139Z" transform="translate(-305.987 -537.108)"/><path class="h" d="M311.74,537.108v12.82c0,1.536-.931,2.243-2.082,1.578a5,5,0,0,1-2.086-3.986V537.108Z" transform="translate(-307.572 -537.108)"/></g></g><g transform="translate(110.702 169.34)"><path class="f" d="M308.163,542.527c0-4.709-2.864-10.185-6.4-12.224a5.887,5.887,0,0,0-2.8-.778,7.767,7.767,0,0,0-4.1,1.147c-2.014,1.244-2.285,4.074-2.285,4.074l7.189,14.762a5.43,5.43,0,0,0,4.692-.165,7.371,7.371,0,0,0,2.78-2.89,10.344,10.344,0,0,0,.529-1.227A8.76,8.76,0,0,0,308.163,542.527Z" transform="translate(-292.444 -529.525)"/><path class="g" d="M293.274,535.527c0,4.713,2.865,10.184,6.4,12.223s6.4-.123,6.4-4.836-2.865-10.184-6.4-12.223S293.274,530.813,293.274,535.527Z" transform="translate(-293.274 -528.241)"/><path class="c" d="M294.082,534.032c0,2.581,1.566,5.577,3.5,6.7s3.5-.072,3.5-2.653-1.57-5.576-3.5-6.694S294.082,531.451,294.082,534.032Z" transform="translate(-291.708 -524.885)"/><g transform="translate(1.705 0.554)"><path class="d" d="M294.607,529.656h4.172v12.16a1.9,1.9,0,0,1-.647,1.625v.013l-1.439.749-1.282-1.506.364-.144a5.3,5.3,0,0,1-1.168-3.144Z" transform="translate(-293.325 -529.656)"/><path class="h" d="M299.082,529.656v12.82c0,1.536-.935,2.239-2.086,1.574a4.99,4.99,0,0,1-2.086-3.981V529.656Z" transform="translate(-294.91 -529.656)"/></g></g><g transform="translate(0 157.032)"><path class="f" d="M342.106,548.19c0-7.819-4.751-16.9-10.616-20.284a9.723,9.723,0,0,0-4.637-1.29,12.951,12.951,0,0,0-6.8,1.9c-3.343,2.065-3.753,7.167-3.753,7.167l11.889,24.083a9.03,9.03,0,0,0,7.785-.275,12.251,12.251,0,0,0,4.612-4.8,16.113,16.113,0,0,0,.876-2.035A14.478,14.478,0,0,0,342.106,548.19Z" transform="translate(-316.034 -526.616)"/><path class="g" d="M317.446,536.575c0,7.815,4.752,16.895,10.612,20.279s10.616-.207,10.616-8.022-4.751-16.9-10.616-20.284S317.446,528.756,317.446,536.575Z" transform="translate(-317.446 -524.487)"/><path class="c" d="M318.785,534.094c0,4.278,2.6,9.253,5.813,11.106s5.818-.114,5.818-4.4-2.606-9.253-5.818-11.107S318.785,529.812,318.785,534.094Z" transform="translate(-314.854 -518.917)"/><path class="g" d="M319.538,533.2c0,2.928,1.781,6.33,3.977,7.6s3.977-.081,3.977-3.008-1.781-6.33-3.977-7.6S319.538,530.264,319.538,533.2Z" transform="translate(-315.117 -516.619)"/></g><g transform="translate(24.291 142.796)"><path class="i" d="M291.987,557.463l2.45-8.9,38.194-22.052c6.825-3.939,17.242-4.371,23.148-.96l30.7,17.728v-.309H396.74v10.256H396.7c-.237,2.471-2.124,5.022-5.61,7.036L348.4,584.914c-6.825,3.939-17.242,4.371-23.148.96l-33.294-19.222a18.946,18.946,0,0,0,.491-4.4A27,27,0,0,0,291.987,557.463Z" transform="translate(-291.957 -523.251)"/></g><path class="j" d="M340.323,519.061a16.568,16.568,0,0,1,4.709,1.722l52.241,30.261c5.906,3.414,5.158,9.427-1.663,13.366l-42.692,24.65c-6.825,3.939-17.242,4.371-23.148.956L296.506,571c0-2.666-3.888-22.793-4.548-23.711l48.632-28.077Z" transform="translate(-272.186 -393.995)"/><g transform="translate(63.953 96.769)"><path class="b" d="M302.86,540.37,297.592,515.4l5.268-3.03,11.149,6.44c7.43,4.29,9.414,4.548,14.614,15.532,4.481,9.461,9.063,23.187,10.248,26.817l-5.263,3.03Z" transform="translate(-297.592 -512.373)"/><path class="i" d="M298.836,541.086v-28s3.719,2.145,11.149,6.435,9.414,4.553,14.618,15.537c4.481,9.461,9.059,23.182,10.248,26.817Z" transform="translate(-298.836 -510.06)"/></g><g transform="translate(35.647 54.97)"><path class="d" d="M333.218,535.268c20.094,0,36.379-8.666,36.379-19.353v51.543c0,10.683-16.285,19.349-36.379,19.349s-36.375-8.665-36.375-19.349V515.915C296.843,526.6,313.128,535.268,333.218,535.268Z" transform="translate(-296.843 -459.13)"/><path class="i" d="M369.6,555.1c0,10.688-16.285,19.353-36.379,19.353s-36.375-8.666-36.375-19.353V503.787H369.6Z" transform="translate(-296.843 -498.316)"/><path class="k" d="M369.6,553.809c0,10.683-16.285,19.349-36.379,19.349s-36.375-8.665-36.375-19.349V502.494H369.6Z" transform="translate(-296.843 -502.494)"/></g><path class="l" d="M333.218,542.857c20.094,0,36.379-8.665,36.379-19.349v3.127c0,10.683-16.285,19.349-36.379,19.349s-36.375-8.666-36.375-19.349v-3.127C296.843,534.192,313.128,542.857,333.218,542.857Z" transform="translate(-261.196 -379.626)"/><path class="l" d="M333.218,540.2c20.094,0,36.379-8.665,36.379-19.349v3.127c0,10.684-16.285,19.349-36.379,19.349s-36.375-8.665-36.375-19.349v-3.127C296.843,531.536,313.128,540.2,333.218,540.2Z" transform="translate(-261.196 -388.208)"/><path class="b" d="M328.574,540.055,312.386,523.9l5.268-3.025,11.149,6.436c7.43,4.29,9.414,4.552,14.614,15.536,4.485,9.461,9.063,23.182,10.248,26.816l-5.264,3.03-11.149-8.64Z" transform="translate(-311.028 -388.146)"/><g transform="translate(34.961 32.478)"><path class="i" d="M314.192,497.525c0-.119.03-.229.034-.347v.694C314.222,497.753,314.192,497.644,314.192,497.525Z" transform="translate(-314.192 -497.178)"/></g><g transform="translate(87.399 80.697)"><path class="a" d="M296.625,534.441l16.115-9.3V509.346l-16.115,9.3Z" transform="translate(-290.818 -506.081)"/><path class="b" d="M312.74,508.574l5.808,3.266-16.115,9.3-5.808-3.266Z" transform="translate(-296.625 -508.574)"/><path class="i" d="M306.242,514.039V529.83l-5.808-3.266V510.773Z" transform="translate(-300.434 -501.469)"/></g><path class="i" d="M323.907,542.517c-4.163-2.4-7.87-1.95-10.277.686V521.586l11.149,6.439c7.434,4.291,9.414,4.553,14.618,15.537,4.481,9.456,9.059,23.182,10.248,26.812l-13.053-7.531C335.094,554.5,329.992,546.029,323.907,542.517Z" transform="translate(-312.272 -385.836)"/><path class="a" d="M296.431,562.126l16.115-9.3V524.28l-16.115,9.3Z" transform="translate(-202.402 -377.133)"/><path class="b" d="M312.546,523.508l5.808,3.266-16.115,9.3-5.808-3.266Z" transform="translate(-208.21 -379.627)"/><path class="i" d="M306.047,528.973v28.542l-5.808-3.266V525.707Z" transform="translate(-212.019 -372.522)"/><g transform="translate(66.262 74.877)"><path class="b" d="M322.733,630.543a16.571,16.571,0,0,0,4.785-.715c8.911-2.67,12.338-7.794,13.645-11.623,2.289-6.7.182-15.549-5.631-23.66a2.632,2.632,0,1,0-4.278,3.067c3.723,5.2,6.973,12.888,4.925,18.892-1.32,3.867-4.743,6.651-10.176,8.28a11.42,11.42,0,0,1-9.583-1.4c-6.406-3.922-11.369-13.205-13.611-25.467-2.784-15.215-1.426-48.6-.525-70.693.317-7.726.567-13.827.567-17.394a2.634,2.634,0,0,0-5.268,0c0,3.461-.245,9.512-.558,17.178-.91,22.327-2.289,56.066.6,71.856,2.517,13.734,8.365,24.308,16.048,29.013A17.245,17.245,0,0,0,322.733,630.543Z" transform="translate(-295.887 -507.199)"/></g><g transform="translate(31.149 12.626)"><path class="i" d="M295.814,519.656v-4.642h1.109c4.269-9.583,20.415-16.717,39.73-16.717s35.465,7.134,39.734,16.717h1.142v5.027c0,12-18.3,21.739-40.876,21.739s-40.872-9.736-40.872-21.739C295.78,519.909,295.81,519.787,295.814,519.656Z" transform="translate(-295.78 -473.71)"/><path class="j" d="M336.652,496.9c22.577,0,40.876,9.736,40.876,21.744s-18.3,21.743-40.876,21.743-40.872-9.736-40.872-21.743S314.079,496.9,336.652,496.9Z" transform="translate(-295.78 -478.221)"/><g transform="translate(4.498)"><path class="k" d="M333.218,518.336c19.323,0,35.084-8.022,36.265-18.139h.068c.009.3.047.592.047.9v7.248h-.114c-1.181,10.116-16.941,18.139-36.265,18.139-20.089,0-36.375-8.661-36.375-19.349v-6.038c0-.465.051-.914.072-1.371C297.647,510.064,313.6,518.336,333.218,518.336Z" transform="translate(-296.843 -469.103)"/><path class="i" d="M328.769,492.486h8.779a32.067,32.067,0,0,1,31.94,31.094h-.068c-1.181,10.116-16.941,18.139-36.265,18.139-19.62,0-35.571-8.272-36.3-18.613A32.061,32.061,0,0,1,328.769,492.486Z" transform="translate(-296.782 -492.486)"/></g></g><ellipse class="a" cx="6.341" cy="3.373" rx="6.341" ry="3.373" transform="translate(60.17 187.301)"/><ellipse class="a" cx="6.341" cy="3.373" rx="6.341" ry="3.373" transform="translate(112.076 159.713)"/><g transform="translate(43.398 26.343)"><path class="j" d="M309.125,495.728l38,21.942a45.46,45.46,0,0,1-17.6,3.3c-15.532,0-28.128-6.7-28.128-14.961C301.4,502.02,304.348,498.411,309.125,495.728Z" transform="translate(-301.399 -495.728)"/></g><path class="a" d="M339.4,520.4s0-12.858-17.089-21.942c-15.152-8.056-20.91,0-20.91,0Z" transform="translate(-250.275 -472.119)"/><g transform="translate(51.124 31.306)"><path class="d" d="M306.4,499.983c1.409,0,2.551.6,2.551,1.354s-1.142,1.354-2.551,1.354-2.547-.6-2.547-1.354S305,499.983,306.4,499.983Z" transform="translate(-281.351 -486.943)"/><path class="d" d="M308.179,498.959c1.409,0,2.551.6,2.551,1.354s-1.142,1.354-2.551,1.354-2.547-.605-2.547-1.354S306.775,498.959,308.179,498.959Z" transform="translate(-290.641 -490.251)"/><path class="d" d="M309.946,497.925c1.409,0,2.552.609,2.552,1.358s-1.143,1.354-2.552,1.354-2.547-.6-2.547-1.354S308.541,497.925,309.946,497.925Z" transform="translate(-299.885 -493.592)"/><path class="d" d="M311.722,496.9c1.409,0,2.552.609,2.552,1.358s-1.143,1.354-2.552,1.354-2.547-.605-2.547-1.354S310.317,496.9,311.722,496.9Z" transform="translate(-309.175 -496.901)"/></g><path class="d" d="M306.137,500.332,324.8,511.1l3.939-2.274-18.659-10.773Z" transform="translate(-259.661 -461.858)"/></g><g transform="translate(99.621)"><path class="m" d="M266.3,466.363l13.95-9.114s7.595,3.884,11.555,9.114,6.588,13.941,4.828,19.23c4.1,11.635,5,31.661,5.555,35.892,2.737,12.13,10.311,49.389,10.188,56.1-2.226,3.063-9.232,8.593-13.984,3.893s-17.83-73.168-17.83-73.168l1.908-.74C274.8,488.957,266.3,466.363,266.3,466.363Z" transform="translate(-174.383 -416.758)"/><path class="n" d="M277.56,485.69s2.6,5.6,4.316,8.856,1.362,9.867,0,13.954-7.112,7.781-12.655,2.031-4.02-21.151-4.02-21.151S273.173,488.982,277.56,485.69Z" transform="translate(-139.564 -324.863)"/><path class="o" d="M295.793,476.961s12.143,30.971,14.022,43.5,5.657,31.509,7.925,47.3,2.234,31.179,1.176,46.6c-.419,6.122-2.653,22.12-1.473,30.811-1.328,5.648-14.572,6.355-16.141-.212-.978-4.074-11.145-40.14-12.173-51.488A52.805,52.805,0,0,1,290.783,574s-16.539-35.406-22.336-49.338-1.853-31.2-1.853-31.2Z" transform="translate(-177.298 -353.067)"/><path class="o" d="M262.3,516.524a51.2,51.2,0,0,1-1.612,7.637c-1.172,3.905.266,9.351.266,9.351s.842,2.4,4.459,3.11a14.049,14.049,0,0,0,6.093-.148,45.076,45.076,0,0,0,7.646,7.07c4.328,3.063,13.882,5.441,16.48,5.048,4.193-.639,6.44-3.91,6.118-6.017s-5.263-7.946-9.312-10.472c-2.636-1.646-8.619-7.2-10.417-9.131a50.151,50.151,0,0,1-5.166-6.731Z" transform="translate(-138.069 -226.151)"/><path class="o" d="M279.518,523.819s-2.238,8.318-1.959,13.133,1.426,5.962,2.886,7.582a2.879,2.879,0,0,0,3.161.922s.669,9.926,5.374,13.937,13.239,4.392,17.157,2.937,1.341-8.564-2.492-15.532-8.724-14.466-9.947-20.762C284.312,524.742,279.518,523.819,279.518,523.819Z" transform="translate(-217.613 -201.666)"/><path class="g" d="M288.854,481.136s-5.945,8.407-10.683,23.2c-3.33,10.4-2.788,35.334-2.788,35.334s-.855,24.557.728,33.049,1.447,10.209,1.447,10.209a137.253,137.253,0,0,0-5.763,44.43c1.053,24.075,3.017,41.342,3.017,41.342s1.341,4.553,7.523,5.179a13.427,13.427,0,0,0,9.744-3.33s10.328-50.967,14.153-62.586a139.58,139.58,0,0,0,5.234-25.006l7.815-57.234s15.473-10.1,7.544-35.562C321.857,474.214,288.854,481.136,288.854,481.136Z" transform="translate(-213.858 -344.409)"/><path class="p" d="M272.087,483.042c7.667-15.245,30.7-26.2,47.27-23.808,7.938,6.317,11.61,10.548,14.47,18.122a48.94,48.94,0,0,1,2.864,22.12c-2.5,21.515,2.606,42.455,4.464,50.654a59.95,59.95,0,0,1-33.328,17.377c-6.986,1.21-12.084-1.413-18.892-3.939a2.284,2.284,0,0,1-1.578-2.069c-2.31-17.386-8.284-31.962-14.305-48.218C269.828,504.591,267.712,491.746,272.087,483.042Z" transform="translate(-217.143 -411.407)"/><path class="q" d="M306.665,462.479a84.7,84.7,0,0,1,8.555,12.575,44.876,44.876,0,0,1,4.379,13.912l-22.048,11.957s-7.781-13.446-13.4-20.123a92.9,92.9,0,0,0-9.545-10.18l-3.829,2.763s7.26,8.124,10.751,14.584c1.786,3.3,7.954,12.964,9.444,20.965.575,3.084-1.307,20.533-2.458,29.613-2.056,16.18-16.29,13.324-16.29,13.324s-2.721,11.073-6.194,28.949c-2.539,13.057-2.23,24.951-1.934,44.807.224,15.156,1,32.812,1,32.812s23.449,7.409,39.226,4.726a101.227,101.227,0,0,0,38.122-14.931c7.468-5.043,10.138-10.925,10.138-10.925s-7.641-28.865-14.58-56.515c-4.709-18.769-5.682-29.385-8.111-42.247a270.718,270.718,0,0,1-3.592-36.8c-.165-11.267-5.923-28.733-9.655-34.492-5.132-7.929-9.583-9.351-9.583-9.351Z" transform="translate(-204.451 -414.652)"/><path class="r" d="M298.056,461.338s-1.587,10.493,2.255,14.123,3.871,11.1-3.821,13.607c-9.334,3.042-15.917-3.685-21.731-8.318,2.513-5.323,3.74-5.289,3.74-20.229C278.5,448.37,298.056,461.338,298.056,461.338Z" transform="translate(-200.631 -422.976)"/><g transform="translate(61.583 157.137)"><path class="i" d="M246.37,559.139h0v-5.585H253.8l36.98-21.35c2.035-1.176,5.619-1.028,7.967.33l8.729,5.039-.013-.241,7.6.563-.025,5.268a2.259,2.259,0,0,1-1.345,2.268l-43.055,24.857c-2.031,1.172-5.615,1.024-7.963-.33l-14.373-8.3A3.315,3.315,0,0,1,246.37,559.139Z" transform="translate(-154.306 -334.274)"/><path class="j" d="M313.705,544.119,270.65,568.976c-2.031,1.172-5.615,1.024-7.963-.33l-14.373-8.3c-2.348-1.354-2.606-3.423-.571-4.6l43.051-24.853c2.035-1.176,5.619-1.028,7.967.33l14.373,8.3C315.482,540.873,315.736,542.942,313.705,544.119Z" transform="translate(-154.325 -338.514)"/><path class="d" d="M378.373,694.4l3.821-5.348c-13.573-9.7-15.173-13.243-24.054-32.909-5.788-12.816-18.469-44.98-29.656-73.358-10.536-26.719-20.487-51.958-23.652-58.482l-.74-1.531c-6.952-14.344-10.781-22.251-20.572-26.317-8.809-3.66-26.588-11.559-26.766-11.64l-2.67,6.008c.182.08,18.033,8.01,26.914,11.7,7.489,3.11,10.523,9.38,17.178,23.119l.745,1.531c3.055,6.3,12.96,31.424,23.448,58.021,11.762,29.842,23.927,60.695,29.783,73.655C360.983,678.415,363.361,683.674,378.373,694.4Z" transform="translate(-254.085 -484.818)"/><g transform="translate(76.414 121.136)"><path class="b" d="M306.828,600.591c2.065-1.773,1.189-3.7-2.919-7.231-3.169-2.729-9.774-7.713-13.3-13.358-4.354-6.96-21.642-49.783-27.938-65.7-1-2.53-10.167,1.092-9.169,3.626,2.352,5.94,23.127,58.308,28.746,67.3A52.376,52.376,0,0,0,296.8,600.346C298.751,601.9,303.35,603.583,306.828,600.591Z" transform="translate(-253.428 -513.448)"/></g><path class="d" d="M270.74,513.032l.948,2.331c.313.851-.825,2.056-2.547,2.691s-3.368.457-3.685-.394l-.91-2.416Z" transform="translate(-187.891 -393.657)"/><path class="i" d="M254.9,537.854v-4.413s5.124,1.4,7.586,3.859,4.1,7.607,4.1,7.607Z" transform="translate(-141.909 -327.714)"/><g transform="translate(112.987 196.736)"><path class="b" d="M258.289,545.067a71.211,71.211,0,0,0-6.969-4.76l15.122-8.991a71.922,71.922,0,0,1,6.977,4.764c2.352,1.887,4.722,6.71,4.722,6.71l-15.13,8.982S260.641,546.954,258.289,545.067Z" transform="translate(-251.32 -531.316)"/></g></g><g transform="translate(0 157.352)"><path class="b" d="M322,704.251a25.98,25.98,0,0,0,3-.178c9.376-1.1,16.425-5.466,20.948-12.968,8.894-14.741,7.189-40.843-4.675-71.607-2.132-5.53-4.781-11.872-7.586-18.587-11.327-27.13-25.429-60.894-22.742-80.822,1.853-13.747,6.173-22.958,12.833-27.379,5.729-3.8,12.181-3.182,16.565-1.989a146.259,146.259,0,0,1,19.285,7.04,2.462,2.462,0,1,0,2.052-4.476,147.3,147.3,0,0,0-20.047-7.324c-7.7-2.086-14.826-1.176-20.58,2.645-7.9,5.238-12.939,15.613-14.991,30.827-2.869,21.253,11.517,55.7,23.076,83.378,2.792,6.685,5.428,12.994,7.535,18.46,11.145,28.9,13.036,54.056,5.056,67.287-3.7,6.131-9.52,9.7-17.305,10.62-4.942.575-8.957-.546-12.253-3.453-11.242-9.934-11.432-38.329-11.542-55.3-.034-4.887-.064-9.109-.33-11.991-2.818-30.307-18.13-30.654-18.782-30.654a2.462,2.462,0,1,0,0,4.925c.068,0,11.509.719,13.874,26.182.25,2.674.275,6.795.309,11.568.123,18.942.313,47.57,13.209,58.96A19.18,19.18,0,0,0,322,704.251Z" transform="translate(-279.049 -484.869)"/></g><path class="m" d="M293.544,481.484c.567-13.2,14.936-18.786,14.936-18.786s10.3,8.361,8.784,36.421c-.563,2.611-4.557,5.12-5.759,7.781.516,10.823-1.938,16.146-6.05,21.473,3.626,2.386,12.173,16.141,17.4,22.983-7.624,2.183-7.489,10.776-7.489,10.776s-19.573-8.843-29.575-20.986c-4.091-4.963-2.67-9.719-4.227-15.092C278.592,515.815,293.037,493.251,293.544,481.484Z" transform="translate(-247.718 -399.152)"/><path class="m" d="M280.7,458.915s1.8,6.342,6.626,9.973c5.818,4.383,16.764,5.1,16.764,8.09-3.177,0-3.8.186-3.8,2.475,0,4.295-1.265,5.28-1.265,5.28s-7.9-2.247-13.59-4.62c-7.134-2.97-10.375-12.833-10.375-12.833S276.462,458.517,280.7,458.915Z" transform="translate(-203.172 -411.418)"/><path class="m" d="M276.7,458.983s4.62,5.022,6.6,7.332.825,6.571,1.815,8.483a25.808,25.808,0,0,1,1.434,3.211s-4.13-.834-4.925-3.211-4.925,1.917-4.925,1.917l-2.915-2.395s4.4-2.818,2.915-5.822-3.96-6.969-3.96-6.969Z" transform="translate(-175.779 -411.156)"/><g transform="translate(67.778)"><path class="n" d="M278.133,455.041c5.78-6.4,21.02-9.025,26.482.347,4.113,7.053,4.282,19.607,3.165,25.378-2.34,12.114-12.283,19.323-23.736,10.015C273.114,481.9,268.16,466.071,278.133,455.041Z" transform="translate(-265.38 -442.539)"/><path class="o" d="M271.393,468.174c.952-4.113,6.3-9.5,11.242-8.466-.927-4.455,1.164-9.812,5.945-11.234,9.977-2.966,19.091,3.169,28.7,5.323,2.733.613,3.431,2.107-1.261,5,2.589.22,5.01,1.659,4.659,4.595a4.024,4.024,0,0,1-3.389,3.495c2.67,3.85-1.164,7.117-4.781,8.551-6.072,2.412-14.339,2.327-19.78-1.583-1.257,5.627-6.279,12.85-11.454,14.318C276.127,484.408,270.026,474.081,271.393,468.174Z" transform="translate(-271.198 -447.679)"/><path class="n" d="M285.6,457.77s-3.343-5.065-6.313-1.21,3.123,7.591,3.123,7.591Z" transform="translate(-266.86 -423.66)"/></g><path class="s" d="M301.2,480.785c-1.274.068-7.324,5.192-13.92,6.135-7.316,1.049-10.722-.7-13.459-1.946,1.726-.063,6.393.728,13.116-1.032S301.2,480.785,301.2,480.785Z" transform="translate(-195.018 -340.712)"/><path class="n" d="M286.023,483.441c3.664,2.594,6.63,5.293,10.083,6.583,4.235,1.578,6,1.714,8.407,5.094a8.349,8.349,0,0,1,.982,7.227l-5.695-2.6s-1.714,3.275.448,5.818c1.206,1.417,5.437,5.082,5.437,5.082a15.742,15.742,0,0,1-14.42,1.379c-8.5-3.106-6.808-8.911-9.431-12.909s-4.912-5.1-4.912-5.1-1.307-2.251,1.5-6.029C282,483.17,283.51,483.441,286.023,483.441Z" transform="translate(-211.56 -332.139)"/><path class="s" d="M291.524,476.632A33.294,33.294,0,0,1,271.2,489.757s5.67-4.451,9.224-7.256S291.524,476.632,291.524,476.632Z" transform="translate(-174.239 -354.131)"/><path class="s" d="M273.306,491.428s5.75,15.342,10.9,28.848c2.894,7.586,7.447,17.973,7.447,17.973s-6.152-3.389-11.407-14.957C274.516,510.684,273.306,491.428,273.306,491.428Z" transform="translate(-183.286 -306.323)"/></g></g></g></svg>